<?xml version="1.0" encoding="utf-8"?>
<!-- Generator: Adobe Illustrator 16.0.0, SVG Export Plug-In . SVG Version: 6.00 Build 0)  -->
<!DOCTYPE svg PUBLIC "-//W3C//DTD SVG 1.1//EN" "http://www.w3.org/Graphics/SVG/1.1/DTD/svg11.dtd">
<svg version="1.1" id="Layer_1" xmlns="http://www.w3.org/2000/svg" xmlns:xlink="http://www.w3.org/1999/xlink" x="0px" y="0px"
	 width="200px" height="400px" viewBox="0 0 200 400" enable-background="new 0 0 200 400" xml:space="preserve">
<g>
	<linearGradient id="SVGID_1_" gradientUnits="userSpaceOnUse" x1="7.0601" y1="187.9946" x2="200" y2="187.9946">
		<stop  offset="0.4544" style="stop-color:#FF0000"/>
		<stop  offset="1" style="stop-color:#FFFFFF"/>
	</linearGradient>
	<path fill="url(#SVGID_1_)" d="M200,106.724c-1.691-0.784-3.226,0.102-4.784,0.964c-0.345-0.749-0.487-1.77-1.044-2.108
		c-1.314-0.799-1.076-2.075-1.373-3.19c-0.257-0.982-0.309-2.031-0.66-2.973c-0.524-1.419-1.223-2.774-1.861-4.149
		c-3.393-7.276-6.707-14.591-10.226-21.805c-1.426-2.929-3.204-5.705-5.004-8.431c-4.05-6.14-8.212-12.207-12.333-18.299
		c-1.497-2.215-2.918-4.49-4.544-6.603c-0.827-1.072-1.962-1.981-3.133-2.671c-0.367-0.216-1.873,0.542-1.867,0.828
		c0.029,1.091,0.124,2.52,0.812,3.188c1.704,1.658,3.956,2.764,5.607,4.462c2.877,2.954,5.587,6.088,8.125,9.338
		c1.53,1.963,2.57,4.302,3.885,6.439c2.244,3.647,4.677,7.187,6.75,10.925c1.957,3.532,3.621,7.234,5.3,10.915
		c1.908,4.182,3.847,8.358,5.482,12.648c1.73,4.54,4.435,8.862,3.885,14.008c-0.906,0-1.685-0.016-2.462,0.003
		c-2.535,0.062-3.151,0.734-3.334,3.208c-0.067,0.904-0.52,1.777-0.87,2.896c0.407,0.075,0.984,0.18,1.235,0.226
		c0.271,1.024,0.286,2.073,0.793,2.766c0.682,0.933,1.231,1.811,1.188,2.979c-0.043,1.147-0.107,2.292-0.167,3.561
		c-2.308-0.203-4.071-1.214-5.33-2.674c-1.608-1.862-2.83-4.06-4.197-6.127c-2.757-4.176-5.013-8.801-8.346-12.444
		c-6.038-6.598-12.692-12.631-19.146-18.839c-0.649-0.623-1.695-0.829-2.282-1.101c-0.312-0.699-0.416-1.529-0.875-1.865
		c-1.264-0.915-2.687-1.61-4.026-2.421c-1.027-0.622-2.098-1.206-3.029-1.953c-1.704-1.363-3.248-2.938-4.998-4.229
		c-1.661-1.225-3.637-2.035-5.234-3.322c-4.537-3.645-9.251-6.908-14.716-9.071c-3.393-1.343-6.856-2.746-9.855-4.76
		c-3.917-2.625-7.613-5.34-12.406-6.329c-3.839-0.792-7.545-2.231-11.303-3.409c-2.557-0.803-5.096-1.667-7.65-2.472
		c-3.598-1.134-7.136-2.608-10.82-3.275c-7.258-1.315-14.58-2.329-21.91-3.165c-4.106-0.468-8.327-0.787-12.408-0.35
		c-4.879,0.522-9.876,1.432-13.293,5.69c-0.219,0.273-0.592,0.426-0.902,0.624c-2.947,1.88-5.709,3.967-7.762,6.863
		c-1.73,2.442-2.383,5.268-1.372,7.971c2.352,6.296,3.05,12.881,3.95,19.437c0.454,3.287,0.387,6.651,0.959,9.91
		c0.325,1.83,1.307,3.614,2.287,5.239c0.96,1.594,2.362,2.914,3.448,4.439c1.302,1.824,2.375,3.813,3.732,5.592
		c2.094,2.749,3.601,5.761,3.601,9.212c0,3.607,1.997,6.247,3.507,9.213c1.22,2.39,2.058,5.045,2.625,7.677
		c0.647,3.012,0.582,6.183,1.27,9.181c0.417,1.816,1.533,3.535,2.597,5.123c1.413,2.11,3.238,3.947,4.601,6.086
		c2.454,3.853,4.593,7.908,7.08,11.739c0.93,1.431,2.391,2.563,3.75,3.659c1.804,1.456,3.856,2.614,5.591,4.138
		c2.073,1.824,4.246,2.759,7.031,2.152c1.119-0.244,2.377-0.462,3.435-0.184c0.95,0.248,2.236,1.074,2.418,1.865
		c0.176,0.767-0.644,2.272-1.416,2.648c-1.958,0.958-2.442,2.6-2.833,4.411c-0.447,2.063-0.679,4.195-1.343,6.186
		c-0.799,2.408-2.055,4.665-2.916,7.059c-0.5,1.39-0.832,2.917-0.858,4.389c-0.056,3.03,0.163,6.065,0.233,9.098
		c0.059,2.503-1.056,4.537-2.487,6.513c-0.8,1.108-1.476,2.431-1.772,3.75c-0.901,4.038,0.483,7.618,2.583,10.999
		c0.414,0.666,0.78,1.369,1.09,2.089c1.438,3.353,0.463,6.571-0.487,9.829c-1.476,5.042-0.424,6.108,3.352,8.471
		c4.181,2.621,7.709,5.7,10.268,9.93c2.159,3.57,3.995,7.15,4.3,11.499c0.138,1.947,1.104,4.554,2.581,5.542
		c3.268,2.185,6.049,4.446,7.94,8.03c1.295,2.457,2.051,4.904,1.763,7.503c-0.673,6.074-2.997,11.645-5.809,17.028
		c-2.871,5.5-6.417,10.721-7.737,16.896c-0.506,2.364-1.494,4.82-0.116,7.293c2.821,5.065,8.359,7.143,13.637,4.729
		c2.752-1.26,5.909-4.557,5.438-8.396c-0.271,0.497-0.513,0.941-0.96,1.76c0.338-1.995,0.718-3.531,0.829-5.087
		c0.14-1.938,0.459-4.003-0.042-5.806c-0.511-1.836,1.305-3.645-0.294-5.416c-0.302-0.337,0.452-1.55,0.599-2.377
		c0.771-4.318,1.333-8.679,2.331-12.942c0.424-1.813,1.428-3.712,2.713-5.051c1.821-1.9,4.498-2.458,6.973-1.606
		c1.85,0.634,3.479,1.992,5.102,3.173c1.623,1.179,3.062,2.616,4.695,3.774c0.549,0.393,1.533,0.542,2.182,0.349
		c2.341-0.696,3.839-2.197,4.771-4.604c0.75-1.936,1.281-4.316,3.593-5.232c3.5-1.385,9.053,0.304,11.56,3.214
		c1.454,1.686,3.186,3.132,4.824,4.651c0.296,0.273,0.731,0.506,1.124,0.543c2.979,0.284,7.027-2.06,8.207-4.857
		c0.635-1.506,0.999-3.123,1.486-4.688c1.108-3.544,2.239-7.08,3.318-10.631c2.222-7.3,6.973-11.951,14.372-13.926
		c1.514-0.404,3.188-0.757,4.4-1.654c2.84-2.111,4.577-5.104,5.118-8.605c0.596-3.837,1.046-7.709,1.311-11.584
		c0.214-3.064,0.277-6.176,0.004-9.232c-0.401-4.489-0.969-8.985-1.855-13.401c-0.436-2.154,0.955-4.82-1.567-6.479
		c-0.102-0.067-0.099-0.349-0.084-0.525c0.3-3.69,0.587-7.383,0.945-11.069c0.046-0.483,0.696-0.945,0.673-1.396
		c-0.108-2.1-0.494-4.192-0.504-6.286c-0.006-1.428,0.062-3.104,0.784-4.228c0.88-1.364,0.985-2.697,1.062-4.139
		c0.045-0.912-0.152-1.873,0.059-2.737c0.563-2.333,0.145-5.353,3.539-5.994c-0.148-0.22-0.396-0.593-0.762-1.126
		c0.574,0,0.923,0,0.957,0c0.049-1.054,0.093-1.989,0.136-2.92c0.213,0,0.426,0,0.639,0.001c0,3.082,0,6.16,0,9.323
		c0.66-0.155,0.927-0.219,1.297-0.307c-0.337,1.921-0.661,3.772-0.982,5.622c0.127,0.009,0.253,0.021,0.384,0.031
		c0.154-0.163,0.308-0.327,0.466-0.487c0.12,0.41,0.44,1.113,0.336,1.186c-1.321,0.888-0.573,2.348-1.019,3.38
		c-0.677,1.56,0.371,1.208,0.831,1.301c-0.12,1.16-0.402,2.277-0.312,3.364c0.136,1.697,0.522,3.377,0.814,5.121
		c3.414,0.684-0.712,2.842,0.784,3.988c0.137-0.065,0.38-0.18,0.836-0.396c-0.271,8.503,3.735,15.396,8.18,22.767
		c0.445-0.629,0.886-1.225,1.318-1.809"/>
</g>
<g>
	<path d="M149.091,121.473c-3.222,0.382-6.442,0.766-9.664,1.148c0.022,0.17,0.047,0.343,0.068,0.513
		c3.203-0.405,6.407-0.811,9.608-1.217C149.1,121.77,149.097,121.621,149.091,121.473z"/>
	<path d="M160.637,124.675c-2.086-0.145-4.169-0.289-6.252-0.435c-0.016,0.196-0.031,0.392-0.05,0.588
		c2.083,0.159,4.166,0.319,6.251,0.476C160.604,125.095,160.619,124.885,160.637,124.675z"/>
	<path d="M139.051,126.162c4.756-0.514,9.516-1.029,14.271-1.544c-0.019-0.17-0.033-0.337-0.053-0.507
		c-4.756,0.528-9.516,1.056-14.272,1.583C139.016,125.851,139.032,126.006,139.051,126.162z"/>
	<path d="M146.912,112.094c2.976,1.353,5.95,2.706,8.926,4.058c-0.062,0.139-0.127,0.279-0.191,0.417
		c-5.296-2.203-10.596-4.407-15.896-6.61c-0.062,0.14-0.123,0.28-0.185,0.42c2.173,0.979,4.345,1.957,6.519,2.934
		c-0.065,0.141-0.124,0.282-0.185,0.422c-2.877-1.048-5.751-2.097-8.628-3.146c-0.077,0.247-0.16,0.494-0.24,0.741
		c4.031,1.503,8.062,3.009,12.404,4.63c-1.867,0.083-3.536,0.158-5.207,0.232c1.047,0.238,2.087,0.18,3.118,0.247
		c3.706,0.243,7.429,0.407,10.826,2.176c-1.679-0.245-3.357-0.493-5.036-0.739c0.92,0.436,1.843,0.694,2.78,0.797
		c1.67,0.183,3.35,0.272,5.028,0.403c0.382,0.25,0.757,0.532,1.171,0.729c0.076,0.037,0.471-0.392,0.459-0.41
		c-0.269-0.356-0.509-0.812-0.883-1c-3.424-1.727-6.852-3.443-10.321-5.078c-1.383-0.653-2.865-1.093-4.301-1.628
		C147.02,111.824,146.965,111.958,146.912,112.094z"/>
	<path d="M140.272,121.321c5.032-0.311,10.065-0.625,14.724-0.913C150.313,119.406,145.323,120.336,140.272,121.321z"/>
	<path d="M142.072,113.675c-3.306-0.405-6.611-0.809-9.914-1.214c-0.02,0.112-0.034,0.224-0.055,0.336
		c1.447,0.222,2.889,0.446,4.332,0.668c-0.021,0.1-0.042,0.199-0.064,0.297c-0.756,0-1.512,0-2.271,0
		c0,0.274,0.004,0.549,0.004,0.822c2.647-0.203,5.299-0.406,7.947-0.609C142.057,113.875,142.066,113.775,142.072,113.675z"/>
	<path d="M128.547,108.736c1.83,0.248,3.663,0.495,5.494,0.743c0.027-0.183,0.053-0.366,0.081-0.548
		c-1.844-0.271-3.687-0.541-5.531-0.811C128.574,108.325,128.562,108.532,128.547,108.736z"/>
	<path d="M139.119,102.655c-1.77-0.799-3.538-1.6-5.307-2.399c-0.067,0.152-0.132,0.304-0.196,0.456
		c1.779,0.77,3.564,1.538,5.346,2.309C139.013,102.897,139.065,102.777,139.119,102.655z"/>
	<path d="M108.261,118.741c-2.628,0.617-5.255,1.233-7.88,1.85c0.032,0.137,0.064,0.275,0.098,0.412
		c2.626-0.624,5.25-1.249,7.877-1.872C108.324,119,108.293,118.871,108.261,118.741z"/>
	<path d="M127.633,84.952c-1.98-0.958-3.963-1.914-5.944-2.871c-0.055,0.118-0.11,0.235-0.167,0.352
		c1.974,0.976,3.945,1.952,5.917,2.928C127.504,85.223,127.568,85.087,127.633,84.952z"/>
	<path d="M162.397,112.774c-1.64-0.839-3.278-1.677-4.918-2.514c-0.067,0.136-0.136,0.272-0.202,0.408
		c1.614,0.87,3.228,1.739,4.842,2.609C162.212,113.11,162.305,112.942,162.397,112.774z"/>
	<path d="M118.535,80.51c-2.127-0.961-4.254-1.923-6.378-2.884c-0.101,0.129-0.199,0.258-0.298,0.387
		c2.169,0.953,4.343,1.906,6.514,2.859C118.427,80.752,118.479,80.631,118.535,80.51z"/>
	<path d="M130.718,92.632c6.669,3.193,13.342,6.388,20.015,9.582c0.09-0.188,0.18-0.377,0.27-0.566
		c-6.686-3.144-13.368-6.288-20.051-9.432C130.871,92.354,130.794,92.494,130.718,92.632z"/>
	<path d="M148.668,106.105c2.432,1.3,4.863,2.598,7.299,3.896c0.094-0.173,0.188-0.346,0.285-0.52
		c-2.474-1.233-4.948-2.467-7.421-3.7C148.779,105.889,148.724,105.997,148.668,106.105z"/>
	<path d="M139.949,108.622c-0.053,0.125-0.105,0.251-0.157,0.376c2.049,0.891,4.096,1.782,6.142,2.673
		c0.065-0.157,0.134-0.314,0.197-0.472C144.069,110.34,142.007,109.481,139.949,108.622z"/>
	<path d="M140.604,98.928c0.41,0.251,0.803,0.53,1.229,0.75c5.36,2.781,10.722,5.565,16.102,8.32
		c1.007,0.516,2.062,0.934,3.105,1.382c-2.049-1.265-4.056-2.617-6.18-3.742c-4.639-2.455-9.346-4.779-14.024-7.156
		C140.757,98.63,140.68,98.78,140.604,98.928z"/>
	<path d="M161.476,109.626c-0.042-0.038-0.085-0.075-0.128-0.113c-0.103-0.045-0.207-0.088-0.309-0.133
		c0.092,0.057,0.182,0.116,0.277,0.174C161.368,109.577,161.423,109.602,161.476,109.626z"/>
	<path d="M133.014,91.985c4.11,1.935,8.219,3.872,12.327,5.808c0.126-0.201,0.253-0.402,0.38-0.604
		c-4.145-1.923-8.293-3.847-12.438-5.771C133.192,91.607,133.104,91.795,133.014,91.985z"/>
	<path d="M139.701,87.043L139.701,87.043c-0.033-0.009-0.073-0.014-0.114-0.018c-0.509-0.466-0.974-0.996-1.549-1.36
		c-4.163-2.65-8.343-5.279-12.541-7.873c-1.159-0.716-2.404-1.292-3.61-1.932c5.45,3.91,11.111,7.447,16.787,10.961
		c0.062,0.039,0.13,0.068,0.204,0.091c0.059,0.018,0.119,0.03,0.183,0.042c0.015,0.002,0.03,0.007,0.046,0.01
		c0.156,0.026,0.323,0.039,0.48,0.063c0.024,0.021,0.048,0.045,0.071,0.065c1.835,1.242,3.667,2.486,5.501,3.73
		c0.036,0.004,0.07,0.011,0.104,0.016c-0.021-0.019-0.043-0.037-0.065-0.056C143.366,89.536,141.535,88.291,139.701,87.043z"/>
	<path d="M126.729,83.436c3.266,1.875,6.515,3.777,9.805,5.606c0.393,0.219,0.985,0.074,1.495,0.078
		c-3.846-2.197-7.452-4.839-11.751-6.29C126.275,83.239,126.519,83.314,126.729,83.436z"/>
	<path d="M128.415,151.282c3.11-1.094,6.219-2.188,9.329-3.282c-3.185,0.853-6.367,1.707-9.549,2.562
		C128.267,150.802,128.34,151.042,128.415,151.282z"/>
	<path d="M138.029,89.12c0.012,0.006,0.021,0.012,0.03,0.018c0.068,0.097,0.102,0.237,0.192,0.295
		c0.012,0.008,0.023,0.017,0.036,0.026c-0.065-0.118-0.133-0.234-0.206-0.34C138.065,89.119,138.047,89.12,138.029,89.12z"/>
	<polygon points="140.224,148.815 140.229,148.816 140.232,148.812 140.228,148.814 	"/>
	<path d="M169.064,176.056c-1.023,5.341-1.337,10.736-0.161,15.747c0.385-4.562,0.666-9.529,1.265-14.455
		c0.451-3.713,1.393-7.362,1.945-11.063c0.29-1.938,1.589-3.784,0.686-5.855c-0.33,1.393-0.669,2.781-1.003,4.169
		C170.869,168.416,169.801,172.204,169.064,176.056z"/>
	<path d="M133.532,150.63c2.23-0.605,4.459-1.21,6.691-1.814C137.606,147.882,135.729,149.89,133.532,150.63z"/>
	<path d="M151.607,148.072c-2.439,0.837-4.828,1.814-7.238,2.739c0.039,0.12,0.084,0.237,0.123,0.357
		c3.118-1.051,6.23-2.104,9.346-3.157C153.082,148.008,152.276,147.842,151.607,148.072z"/>
	<path d="M140.841,86.024c-4.876-3.129-9.774-6.223-14.677-9.315c-0.36-0.228-0.771-0.375-1.161-0.559
		c2.068,1.776,4.312,3.219,6.575,4.635c3.365,2.105,6.738,4.194,10.105,6.289C141.421,86.696,141.198,86.255,140.841,86.024z"/>
	<path d="M165.857,136.077c-0.016-0.177-0.032-0.354-0.05-0.53c-2.557,0.199-5.111,0.402-7.667,0.601
		c0.019,0.19,0.037,0.38,0.056,0.571C160.748,136.503,163.305,136.29,165.857,136.077z"/>
	<path d="M160.952,131.154c-0.016-0.181-0.027-0.361-0.04-0.542c-2.896,0.217-5.793,0.432-8.691,0.649
		c0.01,0.158,0.021,0.316,0.03,0.473C155.153,131.543,158.052,131.348,160.952,131.154z"/>
	<path d="M152.023,141.831c1.953-0.361,3.911-0.721,5.867-1.08c-0.027-0.138-0.056-0.277-0.083-0.416
		c-1.989,0.39-3.977,0.779-5.967,1.169C151.902,141.611,151.962,141.721,152.023,141.831z"/>
	<path d="M156.017,134.107c-0.018-0.145-0.04-0.29-0.062-0.434c-2.922,0.422-5.849,0.845-8.771,1.267
		c0.002,0.125,0.005,0.251,0.008,0.376C150.135,134.913,153.075,134.51,156.017,134.107z"/>
	<path d="M155.526,161.319c-1.29,1.223-2.583,2.448-3.877,3.673c0.235,0.235,0.47,0.467,0.701,0.701
		C152.468,164.875,153.751,163.215,155.526,161.319z"/>
	<path d="M155.351,173.9c-0.16-0.185-0.321-0.368-0.482-0.552c-2.049-0.059-1.931,2.431-3.366,3.094
		c0.132,0.165,0.269,0.331,0.4,0.495C153.051,175.925,154.199,174.913,155.351,173.9z"/>
	<path d="M155.526,161.319c1.898-1.799,3.794-3.597,5.691-5.396C159.242,157.606,157.171,159.563,155.526,161.319z"/>
	<path d="M146.187,175.933c0.173,0.118,0.342,0.234,0.516,0.35c1.074-1.558,2.204-3.083,3.188-4.697
		c0.346-0.565,0.364-1.327,0.516-2.009c-0.321,0.609-0.605,1.241-0.988,1.799C148.366,172.913,147.267,174.416,146.187,175.933z"/>
	<path d="M154.236,186.925c0.185,0.028,0.37,0.06,0.555,0.09c0.346-1.908,0.688-3.818,1.035-5.726
		c-0.18-0.034-0.358-0.068-0.537-0.102C154.937,183.101,154.585,185.012,154.236,186.925z"/>
	<path d="M157.604,205.126c0.133-0.002,0.266-0.005,0.398-0.01c0.136-2.202,0.271-4.406,0.41-6.61
		c-0.123-0.006-0.243-0.014-0.367-0.022C157.9,200.699,157.752,202.914,157.604,205.126z"/>
	<path d="M151.782,206.562c0.204,0.026,0.404,0.052,0.608,0.079c0.188-1.74,0.379-3.48,0.57-5.221
		c-0.147-0.019-0.296-0.04-0.447-0.062C152.271,203.093,152.026,204.827,151.782,206.562z"/>
	<path d="M157.631,218.204c0.099,0,0.201,0,0.303-0.002c0-2.229,0-4.46,0-6.69c-0.102-0.03-0.204-0.062-0.303-0.095
		C157.631,213.679,157.631,215.941,157.631,218.204z"/>
	<path d="M143.894,176.188c-2.12,3.349-4.238,6.694-6.358,10.043c0.197,0.112,0.39,0.223,0.587,0.335
		c2.07-3.369,4.142-6.735,6.216-10.104C144.187,176.371,144.042,176.28,143.894,176.188z"/>
	<path d="M141.412,237.965c0.083-0.007,0.166-0.013,0.247-0.019c0-1.825,0-3.646,0-5.471c-0.214,0.01-0.427,0.017-0.64,0.025
		C141.149,234.322,141.281,236.143,141.412,237.965z"/>
	<path d="M146.187,167.06c-2.084,2.263-4.166,4.528-6.251,6.792c0.146,0.134,0.294,0.268,0.439,0.403
		c2.092-2.262,4.186-4.521,6.277-6.781C146.498,167.334,146.341,167.198,146.187,167.06z"/>
	<path d="M142.041,219.941c0.115,0.017,0.229,0.031,0.343,0.049c0.694-4.212,1.39-8.425,2.084-12.636
		c-0.223-0.024-0.444-0.049-0.667-0.071C143.215,211.504,142.628,215.723,142.041,219.941z"/>
	<path d="M153.105,197.314c0.158,0.017,0.318,0.033,0.479,0.052c0.297-2.765,0.592-5.53,0.889-8.292
		c-0.151-0.017-0.302-0.035-0.454-0.05C153.715,191.787,153.409,194.552,153.105,197.314z"/>
	<path d="M173.932,197.215c0.151,0.005,0.309,0.01,0.459,0.016c0-3.673,0-7.346,0-11.019c-0.15-0.003-0.308-0.005-0.459-0.007
		C173.932,189.876,173.932,193.546,173.932,197.215z"/>
	<path d="M170.822,192.43c0.241,4.329,0.485,8.656,0.727,12.983c0.163-0.014,0.327-0.027,0.49-0.042
		c-0.222-4.324-0.441-8.649-0.663-12.976C171.191,192.407,171.008,192.419,170.822,192.43z"/>
	<path d="M195.216,107.688c-0.345-0.749-0.487-1.77-1.044-2.108c-1.314-0.799-1.076-2.075-1.373-3.19
		c-0.257-0.982-0.309-2.031-0.66-2.973c-0.524-1.419-1.223-2.774-1.861-4.149c-3.393-7.276-6.707-14.591-10.226-21.805
		c-1.426-2.929-3.204-5.705-5.004-8.431c-4.05-6.14-8.212-12.207-12.333-18.299c-1.497-2.215-2.918-4.49-4.544-6.603
		c-0.827-1.072-1.962-1.981-3.133-2.671c-0.367-0.216-1.873,0.542-1.867,0.828c0.029,1.091,0.124,2.52,0.812,3.188
		c1.704,1.658,3.956,2.764,5.607,4.462c2.877,2.954,5.587,6.088,8.125,9.338c1.53,1.963,2.57,4.302,3.885,6.439
		c2.244,3.647,4.677,7.187,6.75,10.925c1.957,3.532,3.621,7.234,5.3,10.915c1.908,4.182,3.847,8.358,5.482,12.648
		c1.73,4.54,4.435,8.862,3.885,14.008c-0.906,0-1.685-0.016-2.462,0.003c-2.535,0.062-3.151,0.734-3.334,3.208
		c-0.067,0.904-0.52,1.777-0.87,2.896c0.407,0.075,0.984,0.18,1.235,0.226c0.271,1.024,0.286,2.073,0.793,2.766
		c0.682,0.933,1.231,1.811,1.188,2.979c-0.043,1.147-0.107,2.292-0.167,3.561c-2.308-0.203-4.071-1.214-5.33-2.674
		c-1.608-1.862-2.83-4.06-4.197-6.127c-2.757-4.176-5.013-8.801-8.346-12.444c-6.038-6.598-12.692-12.631-19.146-18.839
		c-0.649-0.623-1.695-0.829-2.282-1.101c-0.312-0.699-0.416-1.529-0.875-1.865c-1.264-0.915-2.687-1.61-4.026-2.421
		c-1.027-0.622-2.098-1.206-3.029-1.953c-1.704-1.363-3.248-2.938-4.998-4.229c-1.661-1.225-3.637-2.035-5.234-3.322
		c-4.537-3.645-9.251-6.908-14.716-9.071c-3.393-1.343-6.856-2.746-9.855-4.76c-3.917-2.625-7.613-5.34-12.406-6.329
		c-3.839-0.792-7.545-2.231-11.303-3.409c-2.557-0.803-5.096-1.667-7.65-2.472c-3.598-1.134-7.136-2.608-10.82-3.275
		c-7.258-1.315-14.58-2.329-21.91-3.165c-4.106-0.468-8.327-0.787-12.408-0.35c-4.879,0.522-9.876,1.432-13.293,5.69
		c-0.219,0.273-0.592,0.426-0.902,0.624c-2.947,1.88-5.709,3.967-7.762,6.863c-1.73,2.442-2.383,5.268-1.372,7.971
		c2.352,6.296,3.05,12.881,3.95,19.437c0.454,3.287,0.387,6.651,0.959,9.91c0.325,1.83,1.307,3.614,2.287,5.239
		c0.96,1.594,2.362,2.914,3.448,4.439c1.302,1.824,2.375,3.813,3.732,5.592c2.094,2.749,3.601,5.761,3.601,9.212
		c0,3.607,1.997,6.247,3.507,9.213c1.22,2.39,2.058,5.045,2.625,7.677c0.647,3.012,0.582,6.183,1.27,9.181
		c0.417,1.816,1.533,3.535,2.597,5.123c1.413,2.11,3.238,3.947,4.601,6.086c2.454,3.853,4.593,7.908,7.08,11.739
		c0.93,1.431,2.391,2.563,3.75,3.659c1.804,1.456,3.856,2.614,5.591,4.138c2.073,1.824,4.246,2.759,7.031,2.152
		c1.119-0.244,2.377-0.462,3.435-0.184c0.95,0.248,2.236,1.074,2.418,1.865c0.176,0.767-0.644,2.272-1.416,2.648
		c-1.958,0.958-2.442,2.6-2.833,4.411c-0.447,2.063-0.679,4.195-1.343,6.186c-0.799,2.408-2.055,4.665-2.916,7.059
		c-0.5,1.39-0.832,2.917-0.858,4.389c-0.056,3.03,0.163,6.065,0.233,9.098c0.059,2.503-1.056,4.537-2.487,6.513
		c-0.8,1.108-1.476,2.431-1.772,3.75c-0.901,4.038,0.483,7.618,2.583,10.999c0.414,0.666,0.78,1.369,1.09,2.089
		c1.438,3.353,0.463,6.571-0.487,9.829c-1.476,5.042-0.424,6.108,3.352,8.471c4.181,2.621,7.709,5.7,10.268,9.93
		c2.159,3.57,3.995,7.15,4.3,11.499c0.138,1.947,1.104,4.554,2.581,5.542c3.268,2.185,6.049,4.446,7.94,8.03
		c1.295,2.457,2.051,4.904,1.763,7.503c-0.673,6.074-2.997,11.645-5.809,17.028c-2.871,5.5-6.417,10.721-7.737,16.896
		c-0.506,2.364-1.494,4.82-0.116,7.293c2.821,5.065,8.359,7.143,13.637,4.729c2.752-1.26,5.909-4.557,5.438-8.396
		c-0.271,0.497-0.513,0.941-0.96,1.76c0.338-1.995,0.718-3.531,0.829-5.087c0.14-1.938,0.459-4.003-0.042-5.806
		c-0.511-1.836,1.305-3.645-0.294-5.416c-0.302-0.337,0.452-1.55,0.599-2.377c0.771-4.318,1.333-8.679,2.331-12.942
		c0.424-1.813,1.428-3.712,2.713-5.051c1.821-1.9,4.498-2.458,6.973-1.606c1.85,0.634,3.479,1.992,5.102,3.173
		c1.623,1.179,3.062,2.616,4.695,3.774c0.549,0.393,1.533,0.542,2.182,0.349c2.341-0.696,3.839-2.197,4.771-4.604
		c0.75-1.936,1.281-4.316,3.593-5.232c3.5-1.385,9.053,0.304,11.56,3.214c1.454,1.686,3.186,3.132,4.824,4.651
		c0.296,0.273,0.731,0.506,1.124,0.543c2.979,0.284,7.027-2.06,8.207-4.857c0.635-1.506,0.999-3.123,1.486-4.688
		c1.108-3.544,2.239-7.08,3.318-10.631c2.222-7.3,6.973-11.951,14.372-13.926c1.514-0.404,3.188-0.757,4.4-1.654
		c2.84-2.111,4.577-5.104,5.118-8.605c0.596-3.837,1.046-7.709,1.311-11.584c0.214-3.064,0.277-6.176,0.004-9.232
		c-0.401-4.489-0.969-8.985-1.855-13.401c-0.436-2.154,0.955-4.82-1.567-6.479c-0.102-0.067-0.099-0.349-0.084-0.525
		c0.3-3.69,0.587-7.383,0.945-11.069c0.046-0.483,0.696-0.945,0.673-1.396c-0.108-2.1-0.494-4.192-0.504-6.286
		c-0.006-1.428,0.062-3.104,0.784-4.228c0.88-1.364,0.985-2.697,1.062-4.139c0.045-0.912-0.152-1.873,0.059-2.737
		c0.563-2.333,0.145-5.353,3.539-5.994c-0.148-0.22-0.396-0.593-0.762-1.126c0.574,0,0.923,0,0.957,0
		c0.049-1.054,0.093-1.989,0.136-2.92c0.213,0,0.426,0,0.639,0.001c0,3.082,0,6.16,0,9.323c0.66-0.155,0.927-0.219,1.297-0.307
		c-0.337,1.921-0.661,3.772-0.982,5.622c0.127,0.009,0.253,0.021,0.384,0.031c0.154-0.163,0.308-0.327,0.466-0.487
		c0.12,0.41,0.44,1.113,0.336,1.186c-1.321,0.888-0.573,2.348-1.019,3.38c-0.677,1.56,0.371,1.208,0.831,1.301
		c-0.12,1.16-0.402,2.277-0.312,3.364c0.136,1.697,0.522,3.377,0.814,5.121c3.414,0.684-0.712,2.842,0.784,3.988
		c0.137-0.065,0.38-0.18,0.836-0.396c-0.271,8.503,3.735,15.396,8.18,22.767c0.445-0.629,0.886-1.225,1.318-1.809v-119.39
		C198.309,105.94,196.774,106.826,195.216,107.688z M116.821,282.061l3.634-34.97C119.244,258.752,117.977,270.972,116.821,282.061z
		 M129.744,270.171c-2.48-0.211-3.233-1.461-3.426-3.588c0.124-2.219,1.84-3.863,3.883-3.719c2.214,0.156,3.735,1.714,3.677,3.761
		C133.825,268.438,131.661,270.335,129.744,270.171z M151.795,260.745c-2.691-0.157-4.337-1.784-4.173-4.135
		c0.138-2.007,2.082-3.457,4.473-3.334c2.049,0.104,3.783,2.016,3.642,4.011C155.57,259.678,154.192,260.885,151.795,260.745z
		 M172.403,246.538l0.179-7.222c1.717-0.055,3.658,1.959,3.75,3.885C176.397,244.569,174.089,246.526,172.403,246.538z
		 M185.021,163.25c-1.41,4.162-3.084,8.264-4.14,12.517c-0.975,3.916-1.119,8.034-1.969,11.991c-0.38,1.75-0.386,3.331-0.24,5.08
		c0.135,1.656-0.664,3.368-0.852,5.078c-0.31,2.826-0.424,5.673-0.689,8.505c-0.093,0.987-0.46,1.948-0.562,2.935
		c-0.096,0.96-0.027,1.94,0.003,2.91c0.027,0.843,0.477,1.92,0.107,2.489c-3.33,5.191-0.475,10.573-0.622,15.845
		c-0.035,1.327,0.16,2.656,0.25,3.983c-0.167,0.014-0.337,0.028-0.504,0.042c-0.453-5.439-0.91-10.876-1.364-16.313
		c-0.148-0.014-0.297-0.025-0.444-0.035c-0.151,1.37-0.3,2.738-0.45,4.108c-0.071,0.026-0.139,0.052-0.207,0.077
		c-0.226-1.184-0.447-2.367-0.67-3.551c-0.06-0.002-0.114-0.002-0.173-0.002c-0.185,1.797-0.37,3.594-0.556,5.389
		c-0.099,0.007-0.201,0.016-0.3,0.022c-0.342-3.957-0.688-7.914-1.015-11.704c0,4.188,0,8.52,0,12.85
		c-0.152,0.013-0.304,0.026-0.451,0.04c-0.188-1.438-0.377-2.877-0.562-4.314c-0.113,0.002-0.227,0.002-0.337,0.002
		c0,1.367,0,2.731,0,4.099c-0.19,0.015-0.379,0.03-0.57,0.045c-0.314-2.109-0.636-4.219-0.954-6.329
		c-0.14,0.018-0.28,0.035-0.422,0.05c0.142,2.68,0.282,5.357,0.425,8.035c-0.166,0.024-0.33,0.047-0.497,0.07
		c-0.475-2.79-0.953-5.578-1.433-8.369c-0.045,0.002-0.095,0.005-0.141,0.007c0.209,2.649,0.42,5.301,0.667,8.43
		c-0.454-0.889-0.715-1.393-1.041-2.037c-0.704,0.765,0.557,2.71-1.726,2.238c-0.077-0.767-0.16-1.596-0.297-2.969
		c-0.079,1.043-0.119,1.555-0.167,2.18c-0.558,0-1.058,0-1.314,0c-0.802,1.233-1.512,2.32-2.349,3.603
		c-0.259-0.561-0.419-0.906-0.548-1.195c-0.411,1.02-0.831,2.061-1.249,3.101c-0.196,0-0.391,0-0.586,0.004
		c-0.224-0.981-0.447-1.962-0.688-3.021c-0.98,0.761,0.479,2.883-1.753,2.904c-0.216-0.807-0.433-1.593-0.646-2.38
		c-0.074,0.009-0.148,0.019-0.22,0.027c-0.063,0.87-0.126,1.741-0.228,3.16c-0.396-1.098-0.604-1.685-0.877-2.44
		c-0.71,1.073-0.086,2.787-1.784,2.91c-0.244,0.017-0.53-0.613-0.8-0.945c-0.12,0.289-0.297,0.72-0.604,1.47
		c-0.21-0.743-0.327-1.151-0.44-1.562c-0.167,0.041-0.334,0.082-0.501,0.123c0.186,0.847,0.371,1.694,0.596,2.72
		c-0.067,0.026-0.49,0.184-1.124,0.421c-0.119-1.215-0.228-2.316-0.339-3.418c-0.16-0.002-0.32-0.005-0.483-0.008
		c0,1.377,0,2.751,0,4.126c-0.188,0.001-0.378,0.003-0.566,0.003c-0.09-0.639-0.179-1.277-0.269-1.919
		c-0.083-0.007-0.16-0.016-0.243-0.023c-0.107,0.708-0.214,1.418-0.396,2.618c-0.263-1.087-0.41-1.697-0.559-2.31
		c-0.136-0.014-0.273-0.028-0.413-0.042c-0.423,1.754-1.124,3.491-1.224,5.263c-0.495,8.909-0.906,17.828-1.209,26.747
		c-0.164,4.816-0.103,9.64-0.03,14.46c0.015,1.061,0.5,2.115,0.774,3.192c-0.25,0.349-0.654,0.911-1.164,1.624
		c-0.147-5.129-0.441-10.158-0.408-15.186c0.05-7.984,0.247-15.97,0.526-23.949c0.099-2.736,0.613-5.459,0.978-8.186
		c0.071-0.536,0.16-1.178,0.494-1.551c1.174-1.31,0.559-2.546,0.16-3.757c-0.706,2.469-1.417,4.959-2.129,7.451
		c-0.213-0.026-0.424-0.05-0.634-0.075c-0.096-0.771-0.188-1.546-0.284-2.317c-0.107-0.01-0.219-0.017-0.33-0.024
		c-0.147,1.102-0.295,2.202-0.446,3.302c-0.118-0.005-0.238-0.01-0.355-0.014c0-1.449,0-2.896,0-4.343
		c-0.074-0.008-0.146-0.013-0.217-0.022c-0.357,1.902-0.712,3.805-1.067,5.706c-0.191-0.012-0.383-0.024-0.574-0.036
		c-0.104-0.668-0.213-1.336-0.41-2.597c-0.46,1.234-0.738,1.985-1.084,2.917c-0.202-0.766-0.376-1.404-0.546-2.043
		c-0.139,0.012-0.278,0.022-0.413,0.035c-0.114,0.622-0.227,1.242-0.307,1.689c-1.021,0.278-1.944,0.528-2.96,0.806
		c-0.228-0.403-0.611-1.08-1.269-2.239c0.09,1.694,0.155,2.881,0.22,4.069c-0.093-0.014-0.186-0.026-0.277-0.041
		c-0.433-0.897-0.867-1.794-1.105-2.284c-1.136,0.243-1.756,0.373-2.679,0.571c-0.247,0.513-0.707,1.474-1.171,2.434
		c-0.092-0.021-0.185-0.043-0.277-0.064c0-1.738,0-3.48,0-5.22c-0.117-0.007-0.234-0.014-0.349-0.021
		c-0.167,2.131-0.334,4.26-0.5,6.39c-0.173-0.017-0.349-0.033-0.524-0.051c0.083-0.553,0.163-1.102,0.247-1.651
		c-0.081-0.074-0.161-0.148-0.238-0.222c-0.135,0.368-0.271,0.737-0.516,1.405c-0.247-0.785-0.317-1.011-0.422-1.345
		c-0.269,0.454-0.507,0.849-0.741,1.246c-0.08-0.029-0.157-0.058-0.235-0.085c0.164-1.266,0.327-2.533,0.494-3.8
		c0.096,0.036,0.192,0.071,0.288,0.104c-0.167-0.501-0.574-1.063-0.467-1.496c0.783-3.117,1.748-6.191,2.507-9.314
		c0.617-2.548,0.98-5.154,1.552-7.714c0.63-2.845,1.364-5.666,1.941-8.534c-0.913,2.988-2.867,5.553-2.8,8.979
		c0.044,2.255-0.762,4.549-1.342,6.783c-1.04,4.021-2.136,8.03-3.337,12.005c-0.425,1.415-1.22,2.723-2.083,3.983
		c0.157-1.2,0.317-2.401,0.5-3.771c-0.704,0.431-1.114,0.681-1.519,0.93c-0.271-0.55-0.543-1.102-0.766-1.547
		c-0.327,1.063-0.707,2.278-1.083,3.494c-0.13-0.018-0.263-0.032-0.392-0.048c-0.281-0.789-0.565-1.577-0.837-2.337
		c-0.433,0.331-1.021,0.778-1.639,1.247c-0.09-0.387-0.146-0.95-0.238-0.957c-0.463-0.032-0.963,0.004-1.395,0.165
		c-0.571,0.215-1.275,0.934-1.596,0.777c-0.547-0.272-0.84-1.057-1.278-1.68c-0.219,0.364-0.636,1.056-1.349,2.237
		c0.207-1.192,0.324-1.877,0.444-2.562c-6.323,13.358-9.615,27.671-13.577,41.767c-0.213-0.059-0.425-0.118-0.637-0.178
		c2.4-8.706,4.438-17.533,7.303-26.082c2.852-8.518,6.535-16.757,9.698-25.218c-1.857,3.139-3.719,6.276-5.611,9.473
		c-0.398-1.127-0.492-2.091-1.023-2.615c-0.276-0.27-1.32,0.239-2.171,0.43c0.522-0.797,1.032-1.571,1.65-2.513
		c-1.106-0.116-3.268,0.772-1.617-1.721c-0.54,0.024-0.938,0.043-1.978,0.093c2.114-2.913,3.971-5.464,5.825-8.016
		c-0.078-0.065-0.157-0.129-0.235-0.195c-1.661,2.028-3.321,4.058-4.982,6.085c-0.163-0.098-0.328-0.196-0.491-0.295
		c0.102-0.465,0.204-0.932,0.342-1.552c-0.635-0.271-1.24-0.529-1.882-0.806c0.194-0.326,0.439-0.737,0.757-1.269
		c-0.437-0.361-0.862-0.71-1.488-1.229c3.94-4.871,7.913-9.783,11.886-14.693c-0.068-0.06-0.136-0.123-0.206-0.182
		c-2.26,2.485-4.522,4.972-6.778,7.463c-1.028,1.134-2.004,2.319-3.087,3.397c-0.515,0.515-1.229,0.832-1.853,1.239
		c-0.201-0.138-0.402-0.274-0.604-0.414c0.39-1.04,0.778-2.082,1.152-3.086c-1.332-0.234-1.285-0.626,0.446-3.431
		c-0.654,0.393-1.307,0.786-1.806,1.085c0-1.102-0.12-2.306,0.053-3.465c0.083-0.572,0.632-1.149,1.108-1.57
		c1.129-1,2.337-1.908,3.284-3.168c-1.261,0.958-2.516,1.918-4.032,3.072c-0.555-2.841,2.786-2.564,3.075-4.582
		c-1.206,0.67-2.331,1.297-3.457,1.923c-0.14-0.16-0.281-0.317-0.42-0.478c1.3-1.275,2.602-2.55,3.901-3.825
		c-0.027-0.053-0.057-0.102-0.085-0.151c-0.597,0.346-1.194,0.691-1.791,1.038c-0.179-0.056-0.358-0.11-0.538-0.165
		c0.476-1.713,0.952-3.425,1.389-4.997c-12.333,7.265-24.131,16.048-35.888,24.89c-0.104-0.135-0.209-0.271-0.315-0.407
		c2.602-2.067,5.126-4.245,7.82-6.182c7.094-5.101,14.243-10.127,21.42-15.108c1.644-1.143,3.471-2.026,5.242-2.976
		c1.253-0.67,2.35-1.222,1.495-3.052c-0.276-0.591,0.385-1.602,0.578-2.427c0.082-0.354,0.191-0.79,0.058-1.086
		c-0.142-0.31-0.555-0.497-0.951-0.825c3.963-2.169,8.087-4.423,12.208-6.679c-0.057-0.116-0.115-0.231-0.175-0.347
		c-3.283,1.701-6.566,3.403-9.943,5.15c-0.873-2.255,1.795-1.392,1.92-2.766c-0.403-0.227-0.901-0.509-1.398-0.789
		c0.104-0.251,0.407-0.43,0.699-0.615c0.116-0.074,0.228-0.148,0.325-0.229c0.047-0.042,0.091-0.083,0.131-0.126
		c0.068-0.079,0.117-0.164,0.137-0.258c0.054-0.236-0.068-0.536-0.523-0.948c1.756-0.68,2.37-3.436,5.217-2.211
		c-0.099-0.218-0.194-0.435-0.289-0.654c-0.875,0-1.746,0-3.049,0c0.99-0.626,1.621-1.027,2.251-1.425
		c-0.058-0.109-0.115-0.216-0.174-0.325c-0.23,0.115-0.458,0.229-0.688,0.344c-0.024-0.372-0.038-0.741-0.061-1.111
		c-0.021-0.374-0.051-0.745-0.104-1.109c-0.056-0.391-0.28-0.756-0.509-1.342c-0.068,0.01-0.538,0.083-1.063,0.167
		c0-0.423,0-0.821,0-1.494c0.715-0.176,1.661-0.411,2.609-0.645c0.012-0.124,0.023-0.249,0.035-0.374
		c-0.729-0.038-1.458-0.077-2.394-0.126c0.862-0.729,1.676-1.419,2.599-2.201c-0.591,0.046-1.063,0.083-1.538,0.123
		c-0.029-0.099-0.058-0.197-0.085-0.296c1.216-0.447,2.435-0.893,3.651-1.339c-0.028-0.104-0.058-0.213-0.085-0.319
		c-0.819,0.146-1.638,0.292-2.899,0.519c1.475-0.857,2.543-1.477,3.607-2.095c-0.061-0.133-0.123-0.266-0.185-0.4
		c-0.817,0.269-1.633,0.535-2.879,0.945c0.56-0.613,0.808-0.883,1.264-1.384c-14.725,2.958-28.52,7.82-41.989,13.689
		c14.384-7.516,29.764-12.121,45.675-15.169c-0.035-0.17-0.068-0.343-0.103-0.513c-0.599-0.097-1.196-0.193-2.204-0.355
		c3.115-1.465,5.881-2.769,8.648-4.069c-0.089-0.208-0.179-0.413-0.268-0.622c-1.067,0.296-2.139,0.59-3.461,0.956
		c0.525,0.206,0.771,0.303,1.021,0.402c-0.006,0.129-0.015,0.258-0.024,0.386c-0.994-0.062-1.984-0.124-2.976-0.185
		c-0.018-0.099-0.039-0.198-0.059-0.296c1.707-0.646,3.414-1.292,5.118-1.938c-0.028-0.106-0.056-0.214-0.083-0.321
		c-1.013,0.181-2.028,0.362-3.04,0.545c-0.038-0.121-0.075-0.238-0.112-0.354c3.01-0.96,6.016-1.92,9.025-2.877
		c-0.033-0.121-0.067-0.238-0.102-0.355c-2.071,0.533-4.142,1.068-6.213,1.601c-0.05-0.145-0.096-0.29-0.145-0.436
		c0.449-0.174,0.896-0.351,1.348-0.52c1.18-0.44,1.738-1.33,2.009-2.527c0.062-0.285,0.618-0.543,0.991-0.658
		c2.458-0.74,4.942-1.381,7.38-2.172c1.454-0.475,2.833-1.167,4.108-2.116c-2.142,0.609-4.284,1.22-6.426,1.829
		c-0.037-0.104-0.071-0.206-0.105-0.309c4.019-1.501,8.034-2.999,12.053-4.498c-0.063-0.176-0.127-0.35-0.191-0.525
		c-4.45,1.559-8.904,3.118-13.355,4.678c-0.052-0.146-0.107-0.292-0.16-0.44c1.713-0.704,3.396-1.494,5.139-2.099
		c5.312-1.836,10.634-3.644,15.979-5.373c3.3-1.066,6.648-1.967,9.973-2.944c-0.46-0.196-1.013-0.667-1.371-0.548
		c-7.873,2.592-15.726,5.242-23.574,7.9c-1.648,0.557-3.269,1.19-4.9,1.789c-0.091-0.154-0.184-0.312-0.273-0.468
		c0.497-0.338,0.998-0.675,1.494-1.014c-0.019-0.086-0.033-0.176-0.052-0.265c-1.184,0.344-2.368,0.689-3.553,1.036
		c-0.056-0.144-0.108-0.289-0.164-0.431c1.705-0.694,3.408-1.388,5.112-2.084c-0.078-0.191-0.158-0.384-0.235-0.574
		c-2.564,1.685-5.911,1.27-8.287,3.529c-0.353,0.334-1.003,0.389-1.531,0.493c-3.164,0.616-6.418,0.928-9.483,1.856
		c-10.492,3.189-21.147,5.549-32.027,6.904c-1.198,0.149-2.405,0.242-3.149,0.316c11.894-2.644,24.214-5.383,36.533-8.121
		c-0.072-0.354-0.143-0.707-0.214-1.062c-3.287,0.617-6.577,1.232-9.865,1.853c-0.749,0.142-1.494,0.302-2.24,0.453
		c0.324-0.231,0.629-0.527,0.964-0.717c0.114-0.064,0.23-0.117,0.354-0.15c2.593-0.7,5.206-1.318,7.66-1.928
		c0.061-0.49,0.111-0.927,0.198-1.643c-9.367,2.042-18.479,5.364-27.708,6.105c8.41-1.983,17.21-4.057,26.011-6.131
		c-0.02-0.153-0.037-0.31-0.054-0.464c-0.605-0.029-1.209-0.058-2.005-0.096c0.485-0.219,0.807-0.366,1.13-0.511
		c-0.106-0.16-0.212-0.32-0.318-0.479c-0.687,0.09-1.373,0.183-2.272,0.303c0.33-0.379,0.589-0.675,0.714-0.816
		c-0.991-0.369-1.984-0.738-2.979-1.108c0.061-0.186,0.123-0.372,0.182-0.559c-0.349,0-0.703-0.021-1.052,0.007
		c-0.321,0.025-0.638,0.104-0.919,0.152c1.04-0.733,2.067-1.458,3.093-2.182c-0.153-0.224-0.307-0.448-0.46-0.671
		c-0.549,0.441-1.08,0.911-1.657,1.313c-0.375,0.259-0.795,0.489-1.229,0.608c-6.66,1.823-13.292,3.75-19.998,5.391
		c-5.318,1.301-10.725,2.24-16.124,3.131c11.516-2.909,23.031-5.819,34.546-8.729c-0.012-0.134-0.026-0.269-0.039-0.402
		c-0.411-0.076-0.821-0.154-1.528-0.285c0.921-0.334,1.565-0.568,2.544-0.924c-1.078,0-1.815,0-2.581,0
		c0.441-1.468-0.728-1.996-3.553-1.476c0.693-0.504,1.117-0.81,1.889-1.369c-0.939-0.073-1.535-0.121-2.13-0.166
		c-0.08-0.08-0.159-0.159-0.237-0.239c0.444-0.083,0.887-0.166,1.332-0.25c-0.134-0.176-0.271-0.352-0.405-0.529
		c-0.461-0.039-0.925-0.077-1.387-0.116c-0.086-0.109-0.173-0.216-0.259-0.325c0.399-0.139,0.799-0.276,1.197-0.413
		c-0.091-0.179-0.182-0.356-0.274-0.535c-0.614,0.031-1.225,0.064-2.229,0.118c0.791-0.473,1.293-0.771,1.738-1.037
		c-0.214-0.421-0.419-0.824-0.741-1.452c-0.227,0.048-0.718,0.155-1.579,0.341c0.918-0.605,1.521-1.005,2.125-1.402
		c-0.035-0.122-0.068-0.243-0.103-0.363c-0.73,0.061-1.463,0.121-2.623,0.218c1.456-0.575,2.542-1.001,3.624-1.43
		c-0.045-0.134-0.09-0.27-0.134-0.404c-0.512,0.05-1.023,0.102-1.884,0.187c0.552-0.392,0.819-0.58,1.362-0.966
		c-0.721,0.086-1.164,0.14-1.608,0.192c-0.031-0.12-0.061-0.237-0.091-0.357c1.35-0.39,2.7-0.783,4.048-1.174
		c-0.019-0.1-0.037-0.199-0.057-0.298c-1.044,0.086-2.093,0.171-3.136,0.257c0.958-0.844,1.903-1.677,2.769-2.442
		c-0.48-0.03-1.233-0.077-2.207-0.137c0.871-0.48,1.591-0.88,2.313-1.28c-0.056-0.158-0.111-0.315-0.167-0.473
		c-0.87,0.212-1.743,0.425-2.614,0.636c-0.031-0.07-0.063-0.14-0.096-0.21c0.583-0.309,1.167-0.617,1.903-1.007
		c-0.505-0.118-0.84-0.198-1.518-0.358c1.084-0.2,1.838-0.338,2.588-0.476c-0.042-0.22-0.085-0.439-0.125-0.659
		c-14.36,3.654-28.633,7.752-43.466,9.015c6.438-1.29,12.899-2.48,19.311-3.896c6.479-1.431,12.907-3.085,19.357-4.642
		c-0.02-0.173-0.039-0.345-0.056-0.517c-1.353-0.356-2.708-0.711-4.062-1.068c1.007,0.081,1.966-1.771,2.972-0.152
		c0.061,0.095,0.649,0.037,0.673-0.042c0.59-2.011,2.679-1.346,4.122-2.389c-2.72,0.5-5.196,0.953-8.034,1.474
		c1.456-1.013,2.57-1.791,3.759-2.619c-1.941,0.261-3.905,0.525-6.234,0.837c1.889-1.1,3.336-2.201,4.966-2.812
		c1.413-0.53,3.03-0.548,4.564-0.712c1.134-0.122,2.299,0.368,3.186-1.038c0.391-0.618,1.739-0.631,2.805-0.966
		c-0.453-0.399-0.899-0.83-1.387-1.205c-0.332-0.253-0.726-0.429-1.091-0.638c0.296-0.378,0.592-0.757,0.932-1.188
		c-0.648,0.067-1.298,0.135-2.198,0.226c0.549-0.348,0.895-0.566,1.349-0.853c-0.564-0.103-1.005-0.181-1.824-0.326
		c1.235-0.347,2.086-0.589,2.939-0.829c-0.029-0.132-0.056-0.265-0.084-0.397c-1.925,0.384-3.85,0.768-6.293,1.257
		c0.551-0.515,0.692-0.647,0.985-0.92c-0.593-0.08-1.067-0.144-2.084-0.279c1.528-0.347,2.544-0.579,3.56-0.811
		c-0.031-0.16-0.061-0.319-0.092-0.481c-1.871,0.376-3.741,0.752-5.612,1.126c-0.044-0.103-0.087-0.208-0.129-0.313
		c0.699-0.252,1.397-0.505,2.098-0.759c-0.011-0.087-0.023-0.174-0.035-0.261c-0.539,0-1.077,0-1.616,0
		c-0.021-0.168-0.047-0.336-0.069-0.502c3.683-0.592,7.368-1.184,11.053-1.775c-0.025-0.162-0.049-0.324-0.074-0.486
		c-2.876,0.409-5.781,0.674-8.614,1.278c-2.192,0.465-4.244,1.579-6.438,2.013c-4.785,0.948-9.604,1.77-14.44,2.42
		c-6.904,0.927-13.836,1.662-20.758,2.453c-0.78,0.089-1.58,0.013-2.39-0.26c4.08-0.523,8.173-0.988,12.242-1.584
		c7.975-1.171,15.94-2.399,23.9-3.651c0.941-0.148,2.476,0.037,1.744-1.887c0.947-0.261,1.809-0.501,2.672-0.741
		c0-0.086,0-0.171-0.002-0.257c-0.912-0.107-1.826-0.215-3.024-0.357c0.574-0.318,0.956-0.529,1.67-0.926
		c-0.832-0.176-1.324-0.28-1.974-0.417c0.419-0.136,0.737-0.239,1.2-0.387c-0.393-0.219-0.645-0.359-0.955-0.533
		c0.446-0.34,0.877-0.669,1.587-1.209c-0.628,0-1.151,0-1.628,0c0.273-0.835,0.54-1.652,0.78-2.386
		c-0.45-0.032-1.271-0.091-2.575-0.184c1.016-0.321,1.597-0.505,2.176-0.69c0-0.095,0-0.192,0-0.288
		c-0.812-0.096-1.626-0.194-2.441-0.292c0.006-0.089,0.009-0.179,0.015-0.268c0.553-0.079,1.106-0.157,1.655-0.235
		c0.022-0.128,0.042-0.256,0.061-0.385c-0.685-0.154-1.369-0.309-2.055-0.464c-0.008-0.079-0.016-0.159-0.023-0.238
		c0.673-0.046,1.344-0.093,2.017-0.14c0.014-0.09,0.023-0.18,0.034-0.271c-0.479-0.119-0.959-0.236-1.581-0.39
		c0.565-0.429,1.078-0.817,1.591-1.207c-0.044-0.158-0.085-0.316-0.126-0.475c-14.832,1.38-29.64,3.133-44.58,2.583
		c8.596-0.647,17.192-1.304,25.79-1.937c5.543-0.405,11.092-0.734,16.63-1.207c0.667-0.058,1.276-0.801,2.064-1.33
		c-0.572-0.293-1.068-0.547-1.816-0.933c0.61-0.104,0.975-0.166,1.499-0.255c-0.232-0.368-0.437-0.683-0.67-1.052
		c1.99-1.49,4.141,0.062,6.218-0.591c-1.482-0.25-3.134-0.177-4.382-0.855c-0.934-0.508-1.34-1.98-2.171-3.329
		c1.271,0.174,2.031,0.277,3.009,0.411c-0.559-1.333-1.019-2.434-1.456-3.482c0.171,0,0.726,0,1.28,0
		c0.028-0.083,0.054-0.167,0.08-0.25c-0.392-0.186-0.879-0.285-1.148-0.582c-0.231-0.256-0.208-0.738-0.312-1.185
		c4.849,0.364,8.917,2.202,12.729,4.755c0.106-0.216,0.209-0.431,0.316-0.646c-3.539-1.958-7.078-3.917-10.616-5.875
		c0.114-0.275,0.232-0.551,0.349-0.828c1.105,0.34,2.211,0.68,3.593,1.105c-0.275-0.599-0.432-0.945-0.646-1.408
		c3.661-0.917,6.99-2.992,10.933-2.946c-0.077-0.845-0.223-1.987,1.419-1.332c1.032,0.412,1.898-1.078,3.071-0.028
		c1.015,0.912,2.347,1.507,3.605,2.105c3.033,1.441,6.099,2.811,9.164,4.184c0.465,0.209,0.994,0.284,1.642,0.014
		c-2.602-1.198-5.228-2.349-7.802-3.609c-2.842-1.389-5.616-2.917-8.462-4.3c-0.727-0.353-1.623-0.332-2.417-0.568
		c-10.777-3.211-21.501-6.607-32.333-9.614c-14.183-3.939-28.584-6.959-43.141-9.208c-0.814-0.126-1.638-0.208-2.417-0.559
		c9.253,0.933,18.452,2.201,27.495,4.449c9.016,2.242,18.083,4.295,27.029,6.78c8.928,2.481,17.733,5.396,26.593,8.121
		c0.065-0.199,0.13-0.397,0.195-0.595c-0.991-0.376-1.985-0.752-3.207-1.215c0.473-0.172,0.75-0.273,1.058-0.387
		c-0.218-0.241-0.419-0.464-0.775-0.859c0.482,0.067,0.78,0.109,0.929,0.13c0.059-0.52,0.127-1.07,0.192-1.622
		c-0.119,0.014-0.241,0.028-0.361,0.044c-0.034-0.725-0.07-1.45-0.104-2.175c0.167-0.015,0.334-0.029,0.503-0.044
		c-0.414-0.336-0.83-0.673-1.427-1.158c0.662-0.249,1.14-0.429,2.045-0.769c-0.521-0.281-0.888-0.479-1.534-0.831
		c0.447-0.141,0.737-0.163,0.76-0.25c0.395-1.648,2.265-1.673,3.153-2.838c0.321-0.422,1.569-0.605,2.098-0.329
		c4.044,2.123,8.018,4.383,12.011,6.61c0.093,0.052,0.14,0.195,0.491,0.72c-1.945-0.885-3.5-1.591-5.054-2.299
		c-0.01,0.024-0.019,0.048-0.027,0.071c8.235,5.018,16.468,10.037,24.702,15.055c-0.114,0.186-0.229,0.373-0.343,0.559
		c-5.611-3.468-11.226-6.936-16.84-10.403c-0.074,0.125-0.151,0.249-0.229,0.373c8.697,5.641,17.393,11.281,26.086,16.921
		c-0.08,0.146-0.157,0.291-0.237,0.435c-0.645-0.175-1.287-0.352-1.929-0.529c-0.037-0.03-0.073-0.059-0.11-0.089
		c-0.043-0.029-0.088-0.055-0.133-0.084c0.03,0.044,0.059,0.089,0.09,0.131v0.001c0.05,0.014,0.104,0.028,0.153,0.042
		c0.38,0.309,0.76,0.618,1.143,0.929c1.11,0.906,2.25,1.835,3.501,2.854c-0.312-0.046-0.565-0.084-0.795-0.119
		c-0.182-0.027-0.351-0.053-0.512-0.076c1.876,1.549,3.756,3.099,5.633,4.648c0.516,0.422,1.034,0.839,1.392,1.518
		c-0.3-0.173-0.607-0.331-0.897-0.52c-7.078-4.641-14.151-9.289-21.238-13.916c-0.448-0.291-0.994-0.425-1.495-0.631
		c-1.725-1.221-3.446-2.44-5.169-3.66c-0.139,0.215-0.281,0.429-0.416,0.643c1.829,1.04,3.663,2.079,5.496,3.116
		c2.143,1.445,4.263,2.917,6.427,4.33c6.114,3.998,12.247,7.971,18.374,11.952c-0.108,0.182-0.214,0.363-0.318,0.545
		c-0.352-0.141-0.735-0.229-1.043-0.432c-4.58-2.98-9.151-5.974-13.72-8.971c0.287,0.495,0.546,1.037,0.975,1.316
		c2.906,1.896,5.875,3.692,8.729,5.697c-3.181-1.251-5.975-3.367-9.218-4.43c-0.074,0.162-0.146,0.324-0.221,0.486
		c3.279,1.875,6.604,3.667,9.816,5.646c3.459,2.131,6.852,4.379,10.197,6.684c1.88,1.293,3.608,2.804,5.346,4.386
		c-3.03-1.745-6.059-3.487-9.089-5.23c-0.072,0.117-0.143,0.236-0.214,0.355c3.868,2.477,7.735,4.955,11.6,7.433
		c-1.576-0.724-3.152-1.447-4.729-2.172c0.794,0.7,1.59,1.4,2.386,2.101c-0.004-0.001-0.009-0.002-0.009-0.003l0.073,0.061
		c-2.271-1.063-4.544-2.128-6.814-3.193c-0.053,0.1-0.104,0.198-0.158,0.296c4.158,2.426,8.316,4.851,12.471,7.276
		c-0.075,0.139-0.148,0.278-0.224,0.417c-1.947-1.037-3.897-2.073-5.846-3.11c-0.042,0.087-0.083,0.174-0.123,0.262
		c0.867,0.701,1.731,1.403,2.598,2.104c-3.484-1.7-6.946-3.444-10.459-5.083c-2.229-1.041-4.531-1.927-6.796-2.883
		c-0.065,0.16-0.133,0.319-0.201,0.478c2.479,1.16,4.994,2.243,7.417,3.5c2.63,1.364,5.176,2.889,7.757,4.343
		c-3.346-1.554-6.683-3.122-10.038-4.655c-1.028-0.472-2.102-0.854-3.213-1.105c3.667,2.022,7.334,4.043,11,6.067
		c-1.228-0.429-2.454-0.858-3.685-1.288c-0.05,0.122-0.097,0.243-0.146,0.365c2.34,1.123,4.68,2.246,7.022,3.37
		c0.037-0.09,0.077-0.18,0.113-0.27c-1.123-0.749-2.247-1.495-3.37-2.243c2.534,1.101,5.068,2.202,7.603,3.303
		c-0.062,0.156-0.121,0.313-0.182,0.47c-0.271-0.061-0.597-0.044-0.804-0.194c-1.766-1.287-3.403-0.792-4.667,0.627
		c-0.663,0.746-1.159,0.677-1.916,0.532c-1.297-0.25-2.605-0.431-3.91-0.641c-0.029,0.153-0.06,0.307-0.09,0.459
		c2.66,0.551,5.321,1.102,7.981,1.651c-0.027,0.15-0.059,0.301-0.09,0.451c-2.87-0.486-5.737-0.971-8.607-1.458
		c-0.028,0.141-0.057,0.28-0.08,0.42c3.157,0.582,6.315,1.163,9.473,1.743c-0.016,0.089-0.029,0.177-0.041,0.267
		c-5.013-0.494-10.021-0.989-15.038-1.483c-0.024,0.229-0.049,0.458-0.073,0.688c5.513,0.469,11.12,0.295,16.59,2.194
		c-0.448,0.155-0.72,0.249-1.269,0.44c0.861,0.281,1.5,0.488,2.136,0.696c-5.587-0.132-11.142-1.273-16.767-0.46
		c5.584,0.405,11.165,0.811,16.749,1.217c-0.01,0.175-0.016,0.351-0.026,0.526c-7.47-0.596-14.951-1.491-22.327,0.674
		c4.151-0.237,8.303-0.476,12.454-0.712c0.036,0.121,0.071,0.243,0.107,0.363c-0.367,0.201-0.73,0.401-1.233,0.677
		c0.459,0.15,0.82,0.269,1.666,0.544c-0.827,0.238-1.247,0.358-2.056,0.592c1.969,0,3.556,0,5.253,0
		c-0.185-0.227-0.333-0.408-0.481-0.586c0.05-0.138,0.1-0.276,0.146-0.415c0.688,0.291,1.373,0.582,2.194,0.928
		c0.182-0.214,0.504-0.593,0.935-1.108c-1.746-0.108-3.268-0.203-4.789-0.298c0.016-0.161,0.031-0.321,0.046-0.482
		c3.444,0.312,6.889,0.624,10.337,0.938c-1.757,1.046-3.803-1.125-5.447,0.957c0.959,0.231,1.833,0.443,2.707,0.654
		c0,0.047,0,0.094-0.003,0.141c-1.818,0-3.637,0-5.455,0c-0.003,0.104-0.006,0.207-0.01,0.311c2.146,0.223,4.294,0.446,6.439,0.668
		c-5.936,0.347-11.935-0.259-16.695,1.06c5.691,0,12.437,0,19.177,0c0.003,0.172,0.003,0.347,0.006,0.52c-4.581,0-9.16,0-13.744,0
		c-0.006,0.169-0.009,0.338-0.013,0.507c4.494,0,8.991,0,13.488,0c0.004,0.186,0.006,0.372,0.009,0.558c-3.423,0-6.845,0-10.271,0
		c-0.003,0.206-0.007,0.412-0.01,0.62c4.096,0,8.195,0,12.295,0c0.012,0.143,0.023,0.287,0.037,0.429
		c-0.333,0.071-0.667,0.144-0.998,0.213c-0.005,0.1-0.012,0.2-0.018,0.3c1.373,0.067,2.746,0.133,4.12,0.2
		c-0.01,0.17-0.015,0.341-0.024,0.511c-3.448,0-6.893,0-10.34,0c0,0.149,0.003,0.297,0.003,0.447c1.645,0,3.299-0.114,4.932,0.026
		c2.368,0.202,4.72,0.586,7.079,0.893c-0.008,0.188-0.015,0.374-0.02,0.562c-2.627,0.136-5.257,0.271-7.887,0.408
		c0,0.114-0.003,0.229-0.003,0.343c4.405,0,8.806,0,13.21,0c0.004,0.16,0.007,0.322,0.01,0.481c-2.01,0.108-4.021,0.14-6.021,0.339
		c-3.994,0.399-7.987,0.823-11.964,1.363c-4.093,0.553-8.211,1.06-12.234,1.947c-4.349,0.96-8.607,2.324-12.896,3.552
		c-0.134,0.04-0.268,0.09-0.4,0.15c-0.392,0.181-0.763,0.436-1.146,0.649c-0.046,0.006-0.089,0.015-0.133,0.023
		c-0.166,0.058-0.33,0.115-0.494,0.173c0.178-0.048,0.353-0.093,0.528-0.142l0.003,0.003c0.034-0.02,0.068-0.041,0.103-0.061
		c0.197-0.037,0.392-0.073,0.589-0.108c0.734-0.134,1.47-0.27,2.183-0.399c-0.287,0.477-0.603,0.999-0.917,1.518
		c0.353-0.139,0.703-0.283,1.056-0.426c1.751-0.709,3.487-1.458,5.288-2.015c3.363-1.042,6.783-1.897,10.4-2.892
		c-0.679,0.762,1.479,1.25-0.021,2.104c-0.487,0.359-0.99,0.706-1.463,1.083c-0.537,0.427-1.05,0.881-1.58,1.318
		c-0.016,0.005-0.03,0.012-0.047,0.015c-0.009,0.005-0.019,0.006-0.027,0.01c0.016,0.001,0.027,0.001,0.044,0.001l0.006,0.007
		c0.019-0.014,0.037-0.029,0.052-0.043c3.087-1.07,6.173-2.138,9.26-3.208c0.136,0.201,0.272,0.4,0.404,0.6
		c-0.604,0.529-1.206,1.059-1.809,1.588c0.16-0.287,0.322-0.574,0.76-1.354c-6.87,2.417-13.231,4.659-19.594,6.9
		c3.747-0.871,7.359-2.125,10.991-3.322c1.954-0.645,3.941-1.19,5.911-1.78c-2.336,0.982-4.646,2.041-7.017,2.927
		c-5.166,1.932-10.364,3.776-15.41,6.057c7.96-2.794,15.923-5.59,23.883-8.385c0.065,0.183,0.127,0.365,0.19,0.548
		c-8.832,3.251-17.666,6.505-26.496,9.755c0.043,0.129,0.089,0.259,0.136,0.389c8.863-3.163,17.731-6.324,26.596-9.485
		c0.06,0.147,0.115,0.293,0.17,0.439c-4.987,1.977-9.978,3.954-14.969,5.928c0.056,0.146,0.107,0.287,0.16,0.432
		c3.833-1.422,7.663-2.845,11.497-4.267c0.06,0.138,0.114,0.273,0.17,0.411c-1.997,0.897-3.994,1.795-5.991,2.691
		c0.027,0.088,0.059,0.177,0.087,0.266c1.438-0.517,2.877-1.034,4.314-1.55c-3.269,2.3-5.624,5.295-7.879,8.415
		c-0.705,0.975-1.694,1.745-2.556,2.608c0.125,0.127,0.253,0.257,0.376,0.388c2.621-2.488,5.24-4.978,7.858-7.467
		c0.111,0.105,0.219,0.209,0.326,0.313c-2.193,2.211-4.392,4.424-6.586,6.637c0.126,0.133,0.254,0.266,0.383,0.399
		c3.133-2.987,6.266-5.973,9.398-8.96c0.074,0.075,0.148,0.151,0.22,0.228c-4.514,4.768-9.025,9.535-13.538,14.303
		c0.154,0.154,0.309,0.31,0.467,0.466c5.832-5.854,10.806-12.632,18.04-17.041c-0.389,0.49-0.784,0.979-1.173,1.469
		c0.053,0.075,0.107,0.147,0.163,0.219c0.756-0.487,1.513-0.975,2.269-1.462c0.06,0.083,0.117,0.166,0.179,0.25
		c-0.783,0.715-1.513,1.512-2.36,2.136c-4.627,3.396-8.13,7.833-11.58,12.325c-0.214,0.277-0.51,0.494-0.767,0.74
		c0-0.003-0.002-0.005-0.005-0.007c-0.007,0.021-0.007,0.042-0.013,0.062c0.009-0.016,0.016-0.03,0.024-0.044
		c0-0.002,0-0.002,0.003-0.004c0.581,0.557,0.988,0.446,1.349,0.056c0.03-0.03,0.059-0.07,0.087-0.104
		c0.03-0.038,0.062-0.071,0.093-0.115c0.062-0.08,0.12-0.163,0.179-0.253c3.817-5.82,8.743-10.559,14.321-14.657
		c0.222-0.164,0.509-0.238,0.997-0.121c-9.247,6.215-14.837,15.466-20.908,24.313c0.118,0.102,0.231,0.204,0.346,0.305
		c0.688-0.901,1.373-1.802,2.062-2.702c0.74-0.973,1.456-1.968,2.225-2.914c3.491-4.309,6.904-8.685,10.547-12.86
		c1.469-1.685,3.454-2.922,5.369-4.185c-4.002,3.772-8.249,7.293-10.768,12.394c4.63-6.142,10.586-10.804,16.697-15.307
		c-5.812,5.478-12.636,9.994-16.277,17.498c3.956-5.293,8.664-9.824,13.994-13.761c-8.876,7.204-14.913,16.602-20.482,26.363
		c4.441-6.376,8.731-12.871,14.133-18.497c-4.996,7.638-9.996,15.276-14.996,22.914c0.08,0.071,0.16,0.142,0.24,0.212
		c2.479-3.292,4.957-6.583,7.694-10.215c-0.317,1.975-0.57,3.557-0.824,5.138c0.099,0.022,0.2,0.043,0.303,0.065
		c0.57-2.608,1.145-5.219,1.719-7.83c0.093,0.03,0.188,0.057,0.284,0.087c-0.943,7.671-1.885,15.343-2.831,23.014
		c0.25,0.035,0.501,0.068,0.748,0.102c0.694-8.049,1.321-16.111,3.944-23.852c-0.124,0.771-0.256,1.543-0.364,2.316
		c-0.117,0.825-0.213,1.655-0.318,2.483c0.167,0.042,0.334,0.087,0.501,0.129c0.877-3.343,1.753-6.687,2.63-10.031
		c0.093,0.027,0.188,0.053,0.283,0.075c-1.077,6.363-2.158,12.728-3.234,19.09c0.185,0.033,0.37,0.065,0.559,0.097
		c1.247-6.803,2.494-13.605,3.74-20.405c0.164,0.026,0.324,0.058,0.485,0.089c-1.124,7.769-2.249,15.537-3.426,23.662
		c1.953-2.288,1.473-1.933,2.07-7.604c0.589-5.561,1.25-11.104,2.767-16.495c0.493-1.764,1.4-3.411,2.484-4.967
		c-0.554,1.599-1.105,3.197-1.657,4.795c0.188,0.077,0.376,0.151,0.563,0.229c0.47-1.201,0.941-2.401,1.412-3.602
		c0.107,0.041,0.218,0.08,0.327,0.118c-1.004,4.764-2.307,9.49-2.93,14.303c-0.627,4.84-0.578,9.766-0.424,14.686
		c0.671-5.766,1.266-11.542,2.025-17.297c0.754-5.712,2.4-11.198,4.783-16.479c-0.046,0.178-0.099,0.355-0.147,0.534
		c-0.013,0.006-0.024,0.016-0.037,0.022c0.009,0.021,0.016,0.045,0.028,0.067c0.004-0.017,0.007-0.033,0.009-0.049
		c0.007-0.018,0.01-0.033,0.013-0.049c0.392-0.262,0.82-0.488,1.191-0.767c0.03-0.024,0.068-0.044,0.099-0.071
		c0.13-0.105,0.25-0.22,0.355-0.347c0.512-0.617,0.792-1.42,1.369-2.066c-2.401,5.31-3.645,10.937-4.446,16.617
		c-0.797,5.663-1.066,11.401-1.562,17.108c0.281,0.056,0.564,0.112,0.85,0.167c0.296-1.065,0.703-2.112,0.864-3.197
		c0.083-0.553,0.157-1.108,0.225-1.661c0.068-0.548,0.133-1.094,0.191-1.642c0.003-0.007,0.003-0.018,0.007-0.026
		c0.12-1.113,0.233-2.226,0.357-3.337c0.113,0.786,0.274,1.574,0.352,2.36c0.024,0.263,0.043,0.527,0.043,0.789
		c0.043,5.847,0.02,11.695,0.35,17.542c0-2.24-0.071-4.482,0.016-6.717c0.212-5.593,0.443-11.188,0.777-16.775
		c0.206-3.488,0.444-6.99,0.997-10.432c0.317-1.983,1.271-3.865,1.969-5.78c0.593-1.623,1.226-3.231,1.84-4.847
		c0.161,0.058,0.323,0.117,0.487,0.176c-0.58,1.651-1.29,3.271-1.716,4.962c-1.09,4.324-2.071,8.674-3.037,13.025
		c-0.094,0.42,0.231,0.932,0.479,1.828c0.889-3.979,1.653-7.411,2.419-10.84c0.195,0.037,0.393,0.074,0.587,0.112
		c-0.357,2.084-0.717,4.169-1.07,6.255c-0.377,2.224-0.89,4.439-1.084,6.678c-0.186,2.153-0.04,4.335,0.12,6.523
		c1.368-6.463,0.708-13.288,3.781-19.436c-0.191,0.862-0.376,1.723-0.574,2.581c-0.203,0.889-0.503,1.766-0.605,2.664
		c-0.107,0.923-0.023,1.871,0.212,2.827c1.353-4.78,2.098-9.71,5.035-14.299c-0.673,2.578-1.25,4.799-1.827,7.021
		c0.093,0.035,0.189,0.068,0.284,0.102c1.163-2.526,2.33-5.054,3.498-7.58c0.166,0.062,0.336,0.124,0.506,0.188
		C185.777,161.106,185.386,162.175,185.021,163.25z"/>
	<path d="M165.595,215.312c0.067-0.012,0.136-0.023,0.204-0.037c0-2.383,0-4.766,0-7.148c-0.068,0.007-0.137,0.016-0.204,0.021
		C165.595,210.537,165.595,212.923,165.595,215.312z"/>
	<path d="M162.668,222.717c0.179-0.002,0.361-0.004,0.541-0.005c-0.21-3.335-0.419-6.669-0.541-8.521
		C162.668,216.017,162.668,219.368,162.668,222.717z"/>
	<path d="M164.646,187.175c0.896-6.114,1.795-12.229,2.691-18.344C165.236,174.744,164.872,180.95,164.646,187.175z"/>
	<path d="M102.398,145.103c0.054,0.17,0.107,0.341,0.162,0.511c2.359-0.858,4.721-1.716,7.079-2.574
		c-0.047-0.134-0.097-0.27-0.146-0.404C107.13,143.459,104.764,144.281,102.398,145.103z"/>
	<path d="M159.653,180.098c-0.491,5.044-0.981,10.087-1.473,15.128c0.139,0.015,0.278,0.031,0.417,0.046
		c0.586-5.033,1.176-10.065,1.762-15.096C160.122,180.15,159.887,180.126,159.653,180.098z"/>
	<path d="M152.626,146.964c-0.035-0.109-0.072-0.219-0.105-0.327c-3.877,1.247-7.751,2.494-11.62,3.741
		c0.051,0.193,0.107,0.39,0.163,0.582C144.918,149.629,148.77,148.296,152.626,146.964z"/>
	<path d="M136.177,157.005c-0.05-0.154-0.095-0.31-0.143-0.463c-3.104,1.027-6.206,2.058-9.309,3.085
		c0.034,0.104,0.067,0.207,0.099,0.313C129.942,158.962,133.059,157.983,136.177,157.005z"/>
	<path d="M119.605,106.75c1.988,0.112,3.979,0.225,5.967,0.337c0.009-0.181,0.018-0.36,0.03-0.54
		c-2.013-0.104-4.024-0.208-6.034-0.312C119.58,106.405,119.594,106.577,119.605,106.75z"/>
	<path d="M100.263,215.887c-0.262,0.228-0.475,0.517-0.71,0.777c0.105,0.099,0.209,0.197,0.315,0.296
		c1.7-1.496,3.399-2.99,5.099-4.488c-0.099-0.113-0.197-0.225-0.297-0.338C103.197,213.383,101.724,214.627,100.263,215.887z"/>
	<path d="M136.315,91.052c-2.277-1.163-4.527-2.372-6.833-3.473c-2.244-1.069-4.547-2.013-6.812-3.042
		c-2.233-1.016-4.449-2.068-6.68-3.104c-0.08,0.19-0.163,0.381-0.246,0.572c6.8,3.187,13.6,6.373,20.399,9.558
		C136.201,91.393,136.257,91.223,136.315,91.052z"/>
	<path d="M111.896,106.444c0.006,0.16,0.015,0.322,0.021,0.481c2.049-0.111,4.097-0.221,6.146-0.332
		c-0.017-0.049-0.035-0.099-0.05-0.149C115.973,106.444,113.932,106.444,111.896,106.444z"/>
	<path d="M137.908,174.201c2.723-2.753,5.528-5.591,8.334-8.428c-0.117-0.11-0.234-0.221-0.35-0.332
		c-2.123,1.995-4.263,3.971-6.356,5.993C138.646,172.29,137.412,173.03,137.908,174.201z"/>
	<path d="M97.304,108.101c4.458-0.464,8.913-0.925,13.368-1.389C106.165,106.558,101.704,106.975,97.304,108.101z"/>
	<path d="M132.498,241.666c0.182,0.012,0.361,0.025,0.544,0.037c0.165-2.715,0.329-5.43,0.492-8.146
		c-0.123-0.01-0.247-0.015-0.369-0.023C132.943,236.244,132.72,238.954,132.498,241.666z"/>
	<path d="M120.306,213.525c-1.379,2.99-4.407,5.256-4.259,9C117.467,219.525,118.886,216.524,120.306,213.525z"/>
	<path d="M130.529,161.098c0.061,0.191,0.126,0.385,0.188,0.579c1.736-0.593,3.475-1.188,5.212-1.78
		c-0.049-0.151-0.099-0.305-0.148-0.459C134.028,159.99,132.278,160.544,130.529,161.098z"/>
	<path d="M151.144,155.477c-5.049,1.842-10.1,3.688-15.148,5.531c0.059,0.179,0.12,0.355,0.179,0.531
		c5.057-1.843,10.114-3.682,15.171-5.525C151.276,155.834,151.212,155.656,151.144,155.477z"/>
	<path d="M130.774,206.729c-2.07-0.524-4.407-1.114-6.512-1.649C125.908,206.902,129.327,207.691,130.774,206.729z"/>
	<path d="M121.93,194.25c0.188,0.019,0.377,0.036,0.565,0.056c0.138-1.952,0.273-3.902,0.413-5.853
		c-0.102-0.014-0.201-0.028-0.3-0.04C122.383,190.358,122.155,192.305,121.93,194.25z"/>
	<path d="M118.108,204.053c0.089,0.089,0.179,0.182,0.269,0.271c1.053-1.037,2.108-2.074,3.161-3.109
		c-0.071-0.068-0.14-0.14-0.21-0.212C120.258,202.02,119.183,203.037,118.108,204.053z"/>
	<path d="M125.467,163.347c-2.605,0.873-5.209,1.744-7.818,2.618c0.081,0.224,0.161,0.454,0.241,0.678
		c2.565-0.99,5.126-1.981,7.691-2.972C125.544,163.563,125.504,163.453,125.467,163.347z"/>
</g>
</svg>
