<?xml version="1.0" encoding="utf-8"?>
<!-- Generator: Adobe Illustrator 16.0.0, SVG Export Plug-In . SVG Version: 6.00 Build 0)  -->
<!DOCTYPE svg PUBLIC "-//W3C//DTD SVG 1.1//EN" "http://www.w3.org/Graphics/SVG/1.1/DTD/svg11.dtd">
<svg version="1.1" id="Layer_1" xmlns="http://www.w3.org/2000/svg" xmlns:xlink="http://www.w3.org/1999/xlink" x="0px" y="0px"
	 width="200px" height="400px" viewBox="0 0 200 400" enable-background="new 0 0 200 400" xml:space="preserve">
<g>
	<linearGradient id="SVGID_1_" gradientUnits="userSpaceOnUse" x1="6.2944" y1="184.6978" x2="198.8877" y2="184.6978">
		<stop  offset="0.4544" style="stop-color:#FF0000"/>
		<stop  offset="1" style="stop-color:#FFFFFF"/>
	</linearGradient>
	<path fill="url(#SVGID_1_)" d="M198.423,258.459c0.166,0,0.311,0.03,0.465,0.046v-2.001 M198.888,263.134v-3.03 M198.888,266.831
		v-2.229 M197.062,270.295c0.548-0.035,1.102-0.075,1.825-0.124v-1.577c-0.671,0.03-1.351,0.003-2.009-0.083 M198.888,255.552
		v-95.193c-1.204,0-2.41,0-3.628,0c-0.13-0.343-0.271-0.702-0.398-1.064c-4.16-11.738-9.241-23.055-15.605-33.774
		c-6.347-10.688-13.613-20.674-22.664-29.27c-1.759-1.67-3.815-3.062-5.391-4.879c-1.853-2.133-4.022-3.6-6.665-4.386
		c-0.624-0.186-1.396,0.122-2.101,0.201c0.26,0.682,0.321,1.657,0.816,1.992c1.811,1.229,3.769,2.24,5.668,3.339
		c2.086,1.207,4.387,2.163,6.204,3.69c2.823,2.371,5.525,4.958,7.918,7.761c11.25,13.189,19.632,28.143,26.48,43.986
		c1.788,4.136,3.193,8.438,4.806,12.747c-2.82,1.342-5.159,2.655-5.191,5.741c-0.031,3.148,2.457,4.423,4.814,5.701
		c-0.34,1.031-0.648,1.971-0.967,2.908c-0.032,0.097-0.13,0.173-0.266,0.348c-0.55-0.796-1.082-1.561-1.608-2.33
		c-18.49-26.988-40.165-51.057-65.742-71.523c-17.914-14.334-37.228-26.343-58.686-34.69c-16.772-6.526-34.09-10.378-52.166-10.44
		c-2.903-0.009-5.132,1.215-6.292,3.772c-0.896,1.974-1.538,4.169-1.754,6.319C5.706,74.093,7.535,81.331,9.969,88.42
		c5.027,14.642,12.98,27.656,22.459,39.784c1.254,1.605,1.873,3.047,1.657,5.181c-0.45,4.479,1.356,8.524,3.049,12.572
		c1.569,3.755,3.225,7.522,4.261,11.437c0.983,3.713,1.114,7.645,1.8,11.447c0.61,3.381,1.806,6.5,5.012,8.404
		c0.281,0.167,0.411,0.832,0.379,1.245c-0.293,3.84-0.03,7.637,1.034,11.336c2.021,7.038,5.161,13.302,12.148,16.759
		c0.061,0.029,0.054,0.194,0.037,0.124c-0.616,0.686-1.154,1.317-1.726,1.917c-2.464,2.587-4.178,5.622-3.772,9.225
		c0.737,6.549-0.089,12.695-2.961,18.688c-1.471,3.07-0.774,4.561,1.802,6.775c-1.348,3.983-1.823,7.81,2.272,10.386
		c-0.99,3.523-3.242,6.745-0.646,10.317c0.096,0.133-0.02,0.419-0.042,0.635c-0.416,3.976,1.961,7.702,5.7,9.101
		c0.457,0.17,0.917,0.786,1.053,1.282c0.727,2.652,1.183,5.394,2.082,7.98c0.421,1.212,1.585,2.188,2.484,3.205
		c0.628,0.713,1.485,1.237,2.05,1.987c1.731,2.304,3.529,4.404,6.742,4.526c0.417,0.016,0.847,0.569,1.216,0.929
		c2.05,1.987,3.931,4.191,6.182,5.914c1.161,0.889,2.951,1.15,4.492,1.28c0.949,0.078,1.598,0.256,2.282,0.886
		c2.849,2.616,6.062,4.398,10.096,4.305c0.61-0.014,1.25,0.34,1.842,0.602c3.377,1.496,6.678,3.192,10.135,4.47
		c3.213,1.188,6.58,1.987,9.999,0.459c0.349-0.154,0.86,0.016,1.286,0.092c2.119,0.375,4.221,0.915,6.354,1.129
		c4.699,0.467,9.235,0.196,13.261-2.857c1.212-0.921,2.89-1.418,4.427-1.677c2.793-0.473,5.267-1.548,7.084-3.638
		c2.891-3.324,5.857-6.651,8.256-10.326c9.526-14.585,16.683-30.366,22.823-46.617c2.099-5.555,3.921-11.212,5.97-17.115
		c0,0.797,0.015,1.315-0.002,1.833c-0.331,9.849-0.213,19.687,1.421,29.424c0.531,3.181,1.498,6.327,2.627,9.356
		c0.5,1.343,1.447,1.693,2.293,1.156v-1.15"/>
</g>
<path d="M195.26,160.359c-0.13-0.343-0.271-0.702-0.398-1.064c-4.16-11.738-9.241-23.055-15.605-33.774
	c-6.347-10.688-13.613-20.674-22.664-29.27c-1.759-1.67-3.815-3.062-5.391-4.879c-1.853-2.133-4.022-3.6-6.665-4.386
	c-0.624-0.186-1.396,0.122-2.101,0.201c0.26,0.682,0.321,1.657,0.816,1.992c1.811,1.229,3.769,2.24,5.668,3.339
	c2.086,1.207,4.387,2.163,6.204,3.69c2.823,2.371,5.525,4.958,7.918,7.761c11.25,13.189,19.632,28.143,26.48,43.986
	c1.788,4.136,3.193,8.438,4.806,12.747c-2.82,1.342-5.159,2.655-5.191,5.741c-0.031,3.148,2.457,4.423,4.814,5.701
	c-0.34,1.031-0.648,1.971-0.967,2.908c-0.032,0.097-0.13,0.173-0.266,0.348c-0.55-0.796-1.082-1.561-1.608-2.33
	c-18.49-26.988-40.165-51.057-65.742-71.523c-17.914-14.334-37.228-26.343-58.686-34.69c-16.772-6.526-34.09-10.378-52.166-10.44
	c-2.903-0.009-5.132,1.215-6.292,3.772c-0.896,1.974-1.538,4.169-1.754,6.319C5.706,74.093,7.535,81.331,9.969,88.42
	c5.027,14.642,12.98,27.656,22.459,39.784c1.254,1.605,1.873,3.047,1.657,5.181c-0.45,4.479,1.356,8.524,3.049,12.572
	c1.569,3.755,3.225,7.522,4.261,11.437c0.983,3.713,1.114,7.645,1.8,11.447c0.61,3.381,1.806,6.5,5.012,8.404
	c0.281,0.167,0.411,0.832,0.379,1.245c-0.293,3.84-0.03,7.637,1.034,11.336c2.021,7.038,5.161,13.302,12.148,16.759
	c0.061,0.029,0.054,0.194,0.037,0.124c-0.616,0.686-1.154,1.317-1.726,1.917c-2.464,2.587-4.178,5.622-3.772,9.225
	c0.737,6.549-0.089,12.695-2.961,18.688c-1.471,3.07-0.774,4.561,1.802,6.775c-1.348,3.983-1.823,7.81,2.272,10.386
	c-0.99,3.523-3.242,6.745-0.646,10.317c0.096,0.133-0.02,0.419-0.042,0.635c-0.416,3.976,1.961,7.702,5.7,9.101
	c0.457,0.17,0.917,0.786,1.053,1.282c0.727,2.652,1.183,5.394,2.082,7.98c0.421,1.212,1.585,2.188,2.484,3.205
	c0.628,0.713,1.485,1.237,2.05,1.987c1.731,2.304,3.529,4.404,6.742,4.526c0.417,0.016,0.847,0.569,1.216,0.929
	c2.05,1.987,3.931,4.191,6.182,5.914c1.161,0.889,2.951,1.15,4.492,1.28c0.949,0.078,1.598,0.256,2.282,0.886
	c2.849,2.616,6.062,4.398,10.096,4.305c0.61-0.014,1.25,0.34,1.842,0.602c3.377,1.496,6.678,3.192,10.135,4.47
	c3.213,1.188,6.58,1.987,9.999,0.459c0.349-0.154,0.86,0.016,1.286,0.092c2.119,0.375,4.221,0.915,6.354,1.129
	c4.699,0.467,9.235,0.196,13.261-2.857c1.212-0.921,2.89-1.418,4.427-1.677c2.793-0.473,5.267-1.548,7.084-3.638
	c2.891-3.324,5.857-6.651,8.256-10.326c9.526-14.585,16.683-30.366,22.823-46.617c2.099-5.555,3.921-11.212,5.97-17.115
	c0,0.797,0.015,1.315-0.002,1.833c-0.331,9.849-0.213,19.687,1.421,29.424c0.531,3.181,1.498,6.327,2.627,9.356
	c0.5,1.343,1.447,1.693,2.293,1.156v-1.15v-1.016v-1.577v-1.763v-2.229v-1.469v-3.03v-1.599v-2.001v-0.952v-95.193
	C197.684,160.359,196.478,160.359,195.26,160.359z M139.83,124.896c12.737,13.12,25.386,26.328,37.857,39.697
	c3.404,3.648,6.171,7.932,8.949,12.109c1.082,1.628,1.601,3.727,1.988,5.69c0.311,1.574-0.732,2.633-2.346,2.425
	c-2.051-0.265-4.205-0.632-6.035-1.525c-4.556-2.223-9.125-4.504-13.376-7.248c-6.519-4.205-13.253-7.937-20.323-11.104
	c-4.88-2.187-9.697-4.51-14.579-6.689c-2.882-1.287-4.964-3.11-6.309-6.14c-3.592-8.105-9.864-13.875-17.589-17.839
	c-4.094-2.101-6.178-4.947-7.188-9.298c-1.496-6.428-4.753-11.956-10.097-16.138C109.859,106.253,126.405,111.065,139.83,124.896z
	 M67.295,162.303c1.589-0.04,1.063,1.34,1.272,2.063c0.016,2.239-0.998,3.829-2.833,4.585c-1.764,0.724-4.578,0.224-5.75-1.045
	c-0.842-0.915-0.656-1.888,0.132-2.654C62.103,163.324,64.551,162.373,67.295,162.303z M65.34,118.595
	c0.637-1.999,1.81-3.895,3.049-5.612c1.343-1.859,3.361-2.73,5.736-2.811c4.758-0.159,9.486-0.216,14.104,1.237
	c3.852,1.211,6.818,3.559,8.347,7.264c1.693,4.107,2.985,8.379,4.488,12.684c-5,2.188-9.875,3.983-15.021,4.673
	c-3.412,0.458-6.977,0.73-10.358,0.255C66.948,135.056,62.54,127.376,65.34,118.595z M69.214,146.425
	c1.073-3.53,3.25-6.037,7.044-6.684c5.493-0.935,10.996-1.815,16.51-2.62c2.512-0.364,5.061-0.448,7.586-0.74
	c4.908-0.568,9.265,0.942,12.933,3.997c3.16,2.636,6.033,5.655,8.792,8.722c2.044,2.275,1.55,4.675-1.016,6.516
	c-3.118,2.238-6.745,3.351-10.437,3.988c-6.738,1.167-13.529,2.025-20.295,3.027c-3.6,0.535-7.195,1.099-9.299,1.42
	c-6.325,0.281-9.408-1.663-11.22-6.114C68.281,154.18,68.03,150.316,69.214,146.425z M72.788,238.571
	c3.061-7.993,8.936-12.816,17.623-13.834c8.66-1.013,17.375-1.675,25.792-4.199c1.531-0.459,2.904,0.785,2.651,2.428
	c-0.175,1.123-0.54,2.276-1.085,3.272c-1.804,3.289-3.517,6.665-5.684,9.705c-1.405,1.975-3.377,3.668-5.387,5.066
	c-6.934,4.817-14.489,8.196-23.001,9.079c-0.493,0.051-0.988,0.086-1.752,0.153c-0.894-0.115-2.059-0.184-3.187-0.426
	C73.577,248.698,70.76,243.867,72.788,238.571z M126.684,202.814c1.444,0.284,2.849,0.772,4.743,1.297
	c-3.923,2.83-6.245,6.349-8.355,10.08c-1.562,2.766-4.03,4.213-7.261,4.564c-6.806,0.734-13.578,1.804-20.394,2.39
	c-3.818,0.329-7.731,0.27-11.541-0.162c-4.595-0.521-5.992-3.387-4.407-7.729c1.296-3.546,3.713-5.931,7.094-7.456
	c5.415-2.441,11.185-3.381,17.025-3.896C111.315,201.222,119.036,201.321,126.684,202.814z M125.123,200.714
	c0.597-0.032,1.193-0.062,1.789-0.095c0.605-0.032,1.211-0.086,1.816-0.089c8.62-0.041,17.243,0.041,25.859-0.141
	c7.242-0.148,14.433-0.929,21.457-2.835c0.151-0.043,0.324-0.006,0.861-0.006c-3.409,2.809-7.054,4.286-10.932,5.261
	c-6.062,1.525-12.23,1.655-18.433,1.374C139.975,203.841,132.541,202.602,125.123,200.714z M120.356,224.516
	c1.729-3.986,3.648-7.918,5.837-11.669c3.833-6.564,9.631-8.857,17.079-7.242c3.067,0.667,6.191,1.175,9.316,1.461
	c4.612,0.421,8.953-0.973,13.248-2.468c4.478-1.562,8.964-3.098,13.451-4.632c0.3-0.103,0.632-0.113,1.077-0.189
	c0.829,2.314,0.389,4.324-0.54,6.265c-1.974,4.126-5.058,7.38-8.505,10.256c-14.948,12.471-31.672,21.658-50.513,26.762
	c-2.569,0.696-5.345,0.696-8.034,0.851c-0.98,0.057-1.99-0.378-3.301-0.653C115.088,237.883,117.505,231.094,120.356,224.516z
	 M168.881,191.954c-5.188,0.125-10.392-0.059-15.576-0.332c-7.523-0.397-14.883-1.907-22.195-3.665
	c-7.496-1.798-14.948-1.015-22.31,0.775c-5.626,1.369-11.178,3.049-16.779,4.529c-9.022,2.385-16.51-2.241-18.536-11.401
	c-1.717-7.771,2.684-14.485,11.064-16.148c4.137-0.824,8.44-1.053,12.673-1.102c6.765-0.079,13.222-1.75,19.754-3.127
	c5.59-1.183,11.243-2.147,16.812,0.041c3.697,1.453,7.28,3.189,10.963,4.683c6.695,2.714,12.978,6.06,18.472,10.856
	c4.848,4.229,10.754,6.435,16.864,8.152c2.212,0.624,4.38,1.399,6.813,2.182c-1.521,2.152-3.457,3.103-5.52,3.389
	C177.238,191.362,173.056,191.851,168.881,191.954z M93.887,91.485c1.334,0.184,2.714,0.208,3.991,0.581
	c6.665,1.944,12.651,5.186,17.895,9.749c0.822,0.714,1.485,1.628,2.135,2.514c0.227,0.308,0.381,1.06,0.234,1.169
	c-0.337,0.256-0.901,0.383-1.328,0.308c-0.809-0.143-1.615-0.397-2.371-0.721c-6.733-2.891-13.011-6.562-18.77-11.101
	c-0.475-0.374-0.9-0.814-1.326-1.248c-0.227-0.231-0.401-0.513-0.6-0.772C93.795,91.804,93.841,91.644,93.887,91.485z
	 M93.398,87.169c-4.068,0.701-9.785-2.897-11.139-6.935L93.398,87.169z M78.031,78.739c-2.42-0.343-4.504-1.488-6.338-3.065
	L78.031,78.739z M66.432,79.679c0.431-1.963,1.963-2.922,3.713-1.985c3.907,2.094,7.202,4.874,8.147,9.548
	c0.135,0.666,0.019,1.38,0.019,2.032c-5.668,0.938-10.85-2.16-11.887-6.995C66.245,81.447,66.248,80.51,66.432,79.679z
	 M76.514,93.823c-4.093,3.234-13.702,2.568-14.911-4.302C67.12,88.122,74.139,90.113,76.514,93.823z M59.734,73.784
	c0.274,0.006,0.563,0.041,0.815,0.135c0.994,0.378,2.586,0,2.682,1.583c0.089,1.51-1.341,2.654-3.075,2.799
	c-0.165,0.014-0.331,0.001-0.498,0.001c-1.777-0.027-2.946-0.94-2.914-2.271C56.777,74.732,58.079,73.747,59.734,73.784z
	 M44.393,71.499c2.305,0.113,4.596,0.556,6.886,0.899c1.68,0.251,2.957,1.142,3.211,2.875c0.248,1.709-1.078,2.558-2.36,3.251
	c-3.589,1.943-7.53,2.412-12.446,2.721c-1.059-0.123-3.052-0.22-4.982-0.628c-1.021-0.216-2.14-0.771-2.849-1.52
	c-2.193-2.32-1.531-5.142,1.437-6.371C36.856,71.253,40.645,71.318,44.393,71.499z M33.89,60.424
	c4.244,0.482,5.976,1.777,6.342,4.966c-4.123,0.394-7.948-0.613-11.65-2.223C28.828,61.07,31.378,60.141,33.89,60.424z
	 M20.062,68.205c1.334-2.058,4.199-2.96,6.367-1.979c1.34,0.605,2.269,1.544,2.311,3.119c0.044,1.645-0.864,2.71-2.262,3.32
	c-0.837,0.366-1.791,0.463-2.458,0.625c-0.813-0.098-1.364-0.129-1.901-0.237C19.583,72.549,18.661,70.365,20.062,68.205z
	 M28.16,81.453l-5.651-2.086C24.402,80.043,26.414,80.505,28.16,81.453z M14.65,64.632H8.407
	C9.25,62.493,12.112,62.477,14.65,64.632z M13.441,76.973c-1.766,0.135-3.311-0.427-4.796-1.469c0.699-1.517,1.86-2.312,3.335-2.412
	c1.459-0.1,1.968,1.137,2.481,2.259C14.962,76.449,14.489,76.892,13.441,76.973z M17.302,94.763
	c-1.304-0.632-2.286-1.551-2.319-3.125c-0.035-1.521,0.848-2.514,2.333-2.279c1.377,0.219,2.76,0.71,3.994,1.36
	c0.604,0.317,0.875,1.268,1.395,2.085c-0.498,0.793-0.778,1.635-1.36,2.082C20.041,95.888,18.625,95.407,17.302,94.763z
	 M31.655,116.962c-0.467,1.198-1.78,1.543-3.062,0.809c-1.175-0.672-2.214-2.9-1.746-4.155c0.236-0.633,0.917-1.102,1.15-1.368
	C30.753,112.324,32.452,114.915,31.655,116.962z M31.177,103.95c-1.636,1.153-3.465,1.391-5.363,0.893
	c-3.203-0.839-4.25-4.167-1.929-6.531c0.747-0.76,2.113-0.91,3.46-1.445c1.438,0.672,3.027,1.099,4.206,2.039
	C33.342,100.332,33.06,102.624,31.177,103.95z M32.471,90.199c-0.537-1.145-0.41-2.704,0.797-3.447
	c1.608-0.99,3.363-1.995,5.179-2.339c3.397-0.641,6.883-0.811,9.441-1.083c3.621,0.248,6.319,0.408,9.011,0.628
	c1.842,0.151,2.668,1.944,1.434,3.34c-0.774,0.876-1.845,1.601-2.922,2.079c-4.448,1.971-9.198,2.684-14.013,2.884
	c-2.19,0.09-4.419-0.039-6.584-0.372C33.941,91.758,32.838,90.98,32.471,90.199z M41.575,109.994
	c-0.021,1.687-0.817,2.56-2.31,2.536c-1.612-0.025-2.59-1.507-2.595-3.933c-0.004-1.166,0.883-1.97,2.171-1.973
	C40.232,106.619,41.597,108.3,41.575,109.994z M35.984,122.707c-0.065-0.759,0.346-1.788,0.913-2.325
	c1.037-0.979,2.289-1.764,3.816-0.644c0.997,0.73,1.361,1.53,0.324,2.386c-0.88,0.728-1.931,1.25-3.084,1.977
	C37.107,123.538,36.023,123.167,35.984,122.707z M40.37,139.681c-0.594-0.196-0.974-1.038-1.45-1.593
	c0.304-1.343,0.373-2.391,1.804-2.347c0.942,0.031,1.966,0.187,2.025,1.464C42.8,138.267,41.257,139.973,40.37,139.681z
	 M40.972,104.347c-1.642-2.749-0.929-5.093,2.128-5.998c2.987-0.883,6.134-1.227,8.628-1.698c2.085,0.27,3.54,0.311,4.914,0.667
	c3.49,0.902,4.777,3.721,3.347,7.058c-2.76,6.437-11.207,8.03-16.562,3.073C42.468,106.562,41.643,105.473,40.972,104.347z
	 M49.483,128.695c-3.354-0.887-4.955-2.707-4.885-6.047c0.23-2.425,1.389-4.847,3.837-6.516c1.982-1.351,4.221-1.312,5.66,0.562
	c1.334,1.739,2.574,3.822,3,5.928C57.955,126.858,53.958,129.877,49.483,128.695z M48.518,156.795l-4.404-6.406
	C47.158,151.648,49.03,154.371,48.518,156.795z M49.434,139.328c-1.208-1.751-0.701-3.127,1.381-3.451
	c2.338-0.365,4.58,0.013,6.775,1.393c-0.751,2.259-2.198,3.521-4.393,3.889C51.537,141.439,50.339,140.641,49.434,139.328z
	 M52.072,169.665l-1.665-4.026c1.145-0.068,2.841,1.501,3.116,2.781C53.042,168.854,52.6,169.594,52.072,169.665z M54.452,149.209
	c3.306-2.142,8.782,0.304,9.427,4.207c0.393,2.376-1.446,3.943-4.618,4.125c-1.637-0.588-3.407-0.944-4.874-1.812
	C51.752,154.17,51.874,150.881,54.452,149.209z M60.141,188.238c-2.118,0.005-3.978-1.372-4.449-3.297
	c-0.413-1.683,0.929-4.515,2.538-5.193c0.349-0.146,0.926-0.114,1.238,0.086c1.711,1.104,3.377,2.274,5.035,3.457
	c0.17,0.119,0.259,0.472,0.247,0.713C64.641,186.161,62.373,188.23,60.141,188.238z M66.383,212.099
	c1.318-0.831,2.417-0.318,3.5,0.422c1.064,0.729,1.214,1.793,0.924,2.938c-0.752,2.971-6.703,7.259-10.048,7.181
	C60.871,218.167,62.491,214.554,66.383,212.099z M59.27,228.115c0.27,1.628,0.651,3.251,0.743,4.891
	c0.027,0.497-0.74,1.039-1.143,1.561L59.27,228.115z M55.929,240.356l1.847-2.106c1.896,1.072,2.49,2.058,1.607,2.868
	C58.219,242.189,57.236,240.993,55.929,240.356z M59.483,252.284c-0.262-1.296-0.235-2.651-0.336-4.01l2.592,5.354
	C60.561,253.953,59.705,253.381,59.483,252.284z M63.913,261.173c-0.428,1.062,0.261,2.879-1.729,2.906
	c-0.918,0.014-2.07-0.246-1.96-1.686c0.146-1.885,1.183-3.248,2.393-3.191C63.958,259.267,64.102,260.074,63.913,261.173z
	 M65.662,276.279c0.206-1.394,0.291-2.446,0.543-3.456l0.281,6.811C66.048,278.47,65.875,277.206,65.662,276.279z M64.809,231.553
	c-0.116-2.235,1.089-3.826,2.746-5.665c1.291,2.058,2.104,3.937,1.801,6.098c-0.175,1.25-0.926,2.176-2.36,2.022
	C65.586,233.854,64.88,232.963,64.809,231.553z M67.417,242.873l0.506-5.836c0.18,1.696,0.404,3.39,0.485,5.088
	C68.422,242.376,67.558,242.96,67.417,242.873z M67.552,246.505c1.283,0.214,2.295,0.168,3.065,0.578
	c0.59,0.313,0.98,1.164,1.242,1.855L67.552,246.505z M72.982,261.562c-0.17,0.323-0.95,0.699-1.123,0.577l-1.353-4.377
	C72.148,257.9,73.671,260.261,72.982,261.562z M76.583,273.09c0.138,0.519-0.37,1.207-0.583,1.82l-2.77-5.214
	C75.059,270.525,76.173,271.551,76.583,273.09z M74.419,285.062c2.087-1.977,2.83-2.028,5.006-0.078
	c2.228,1.992,2.336,2.174,2.32,3.872L74.419,285.062z M83.018,267.657c-3.778-4.696-3.268-9.333,1.444-13.137
	c3.057-2.469,6.6-4.021,10.282-5.223c8.565-2.793,17.345-4.311,26.385-4.083c0.663,0.016,1.327,0.043,1.984,0.121
	c0.489,0.057,0.97,0.2,1.821,0.386c-11.081,4.478-19.698,11.755-27.948,19.583c-1.701,1.615-3.684,3.022-5.74,4.156
	C88.105,271.191,85.25,270.433,83.018,267.657z M83.921,279.244c1.567,0.173,3.177,1.586,3.444,3.025L83.921,279.244z
	 M93.061,297.567c-2.487,0.438-4.485-0.151-6.156-1.845c-1.101-1.115-0.803-2.382,0.718-3.011c2.183-0.905,5.119,0.929,5.429,3.405
	C93.106,296.546,93.061,296.989,93.061,297.567z M91.799,287.011c0.548-0.216,1.091-0.61,1.643-0.624
	c3.353-0.072,4.738,1.008,4.933,3.859L91.799,287.011z M106.679,303.581c-2.986-0.054-5.266-1.045-6.664-3.881
	c1.716-0.915,3.309-0.424,4.817,0.343C106.168,300.724,107.116,301.736,106.679,303.581z M108.298,296.714
	c-1.056-0.087-2.135-0.47-3.102-0.935c-1.38-0.661-1.612-2.282-0.373-3.179c1.01-0.731,2.31-1.066,3.481-1.577
	c2.137,0.327,3.354,1.288,3.343,2.842C111.637,295.528,110.193,296.87,108.298,296.714z M99.813,280.862
	c-2.243-2.398-2.997-5.096-2.15-8.231c1.233-4.558,4.252-7.958,7.526-11.112c6.531-6.291,13.908-11.465,22.039-15.442
	c4.79-2.342,9.845-4.14,15.271-6.387c-0.069,1.361,0.097,2.492-0.216,3.47c-1.04,3.252-2.056,6.535-3.433,9.648
	c-3.962,8.949-8.887,17.383-13.93,25.768C119.859,286.989,105.588,287.032,99.813,280.862z M120.167,306.627
	c-2.341,0.251-4.189-0.529-5.329-2.954c2.008-0.889,3.952-0.939,5.74-0.222c0.608,0.246,0.84,1.566,1.071,2.444
	C121.681,306.009,120.707,306.567,120.167,306.627z M116.341,296.371c-0.49-0.691-0.443-1.213,0.389-1.559
	c2.497-1.04,7.205,0.187,8.808,2.393c0.553,0.762,0.85,1.709,1.263,2.573C124.062,300.964,117.68,298.256,116.341,296.371z
	 M126.176,285.561c0.392-2.968,1.112-6.014,2.344-8.728c2.619-5.773,5.9-11.247,8.476-17.04c2.75-6.186,5.092-12.562,7.4-18.932
	c0.624-1.726,1.456-3.043,2.933-4.01c4.023-2.628,8.07-5.221,12.082-7.864c9.551-6.303,18.379-13.429,25.454-22.532
	c0.098-0.121,0.246-0.202,0.537-0.44c0.98,3.138,0.422,6.006-0.329,8.831c-1.906,7.167-5.23,13.729-9.108,19.97
	c-10.583,17.023-20.742,34.335-32.895,50.329c-1.68,2.215-3.694,4.303-5.936,5.914c-1.498,1.08-3.665,1.64-5.552,1.688
	C128.004,292.839,125.628,289.733,126.176,285.561z M130.591,309.719c-1.083-0.389-2.308-1.126-2.844-2.068l5.042-1.412
	C132.781,308.161,131.519,310.051,130.591,309.719z M130.441,300.519c1.26-2.174,3.298-2.916,5.66-2.968
	c1.555-0.032,1.784,1.274,2.034,2.371c0.289,1.258-0.151,2.26-1.443,2.778C134.739,303.483,131.917,302.522,130.441,300.519z
	 M136.925,307.718l8.843-2.541C143.026,307.521,139.892,307.11,136.925,307.718z M159.453,291.148
	c-1.604,2.819-3.983,5.258-6.286,7.594c-1.456,1.477-3.515,2.044-5.693,1.377c-2.368-0.724-3.748-2.689-3.142-5.431
	c0.708-3.208,1.43-6.562,2.958-9.417c4.035-7.534,8.383-14.908,12.849-22.2c3.771-6.154,7.88-12.103,11.839-18.141
	c0.112-0.019,0.225-0.038,0.337-0.057c0,1.834,0.179,3.688-0.029,5.498C170.633,264.784,166.647,278.505,159.453,291.148z
	 M191.129,220.732c-0.559,6.454-2.411,12.589-5.136,18.4c-4.491,9.576-9.268,19.014-14.112,28.896
	c0.845-8.29,1.605-16.107,2.457-23.914c0.424-3.875,2.25-7.237,4.224-10.51c3.846-6.379,7.826-12.682,10.24-19.8
	c0.335-0.985,0.667-1.972,0.999-2.957C191.221,214.062,191.421,217.373,191.129,220.732z"/>
</svg>
