<?xml version="1.0" encoding="utf-8"?>
<!-- Generator: Adobe Illustrator 16.0.0, SVG Export Plug-In . SVG Version: 6.00 Build 0)  -->
<!DOCTYPE svg PUBLIC "-//W3C//DTD SVG 1.1//EN" "http://www.w3.org/Graphics/SVG/1.1/DTD/svg11.dtd">
<svg version="1.1" id="Layer_1" xmlns="http://www.w3.org/2000/svg" xmlns:xlink="http://www.w3.org/1999/xlink" x="0px" y="0px"
	 width="200px" height="400px" viewBox="0 0 200 400" enable-background="new 0 0 200 400" xml:space="preserve">
<linearGradient id="SVGID_1_" gradientUnits="userSpaceOnUse" x1="17.0122" y1="210.4785" x2="200" y2="210.4785">
	<stop  offset="0.4544" style="stop-color:#FF0000"/>
	<stop  offset="1" style="stop-color:#FFFFFF"/>
</linearGradient>
<path fill="url(#SVGID_1_)" d="M39.638,139.636c1.151,5.878,1.708,11.755,2.259,17.704c0.501,5.422,3.25,10.613,4.79,15.967
	c3.863,13.434,11.448,19.024,26.151,20.625c5.489,0.6,11.042,0.617,17.287,0.939c-3.369,1.434-6.112,2.633-8.878,3.773
	c-4.177,1.726-7.552,4.48-9.812,8.345c-2.613,4.463-4.935,9.099-7.318,13.696c-2.38,4.589-3.117,9.471-1.875,14.488
	c1.249,5.056,0.053,9.569-2.146,14.098c-2.691,5.547,0.25,11.61,6.379,12.948c2.807,0.609,3.259,2.169,2.813,4.359
	c-0.582,2.865-0.435,5.038,2.752,6.419c2.591,1.125,2.281,3.737,1.524,5.867c-0.631,1.768-1.747,3.437-2.935,4.915
	c-2.095,2.605-2.202,5.279-0.336,7.831c1.605,2.193,3.406,4.362,5.52,6.039c9.366,7.431,11.954,16.834,9.158,28.241
	c-1.978,8.068-4.957,15.618-9.279,22.722c-2.311,3.794-4.427,7.811-5.905,11.985c-2.347,6.631-0.493,12.62,4.27,17.688
	c3.422,3.645,6.889,3.052,8.54-1.74c1.412-4.104,2.347-8.393,3.178-12.662c0.835-4.279,1.209-8.646,1.917-12.952
	c1.51-9.209,9.175-18.266,17.273-19.783c2.858-0.537,6.021,0.029,8.964,0.554c6.579,1.172,13.101,2.671,19.661,3.943
	c1.156,0.225,2.445,0.195,3.596-0.061c3.456-0.767,7.013-1.366,10.256-2.697c2.131-0.873,3.902-2.778,5.632-4.436
	c2.982-2.861,5.669-6.045,8.742-8.802c3.231-2.896,4.925-6.098,5.687-10.576c2.23-13.08,4.823-26.134,8.084-38.991
	c3.992-15.729,8.802-31.247,13.274-46.85c0.295-1.025,0.749-2.003,1.847-2.908c0,0.729-0.053,1.463,0.012,2.187
	c0.892,10.198,1.729,20.403,2.771,30.586c0.19,1.855,1.037,3.73,1.93,5.409c1.21,2.275,2.876,3.311,4.578,2.923V146.34
	c-3.613,0.442-4.811-2.692-6.454-5.239c-5.279-8.188-10.927-16.161-15.792-24.588c-4.446-7.693-8.061-15.869-12.037-23.832
	c-0.049-0.092-0.084-0.185-0.127-0.278c-6.878-14.9-13.718-29.82-20.703-44.669c-0.633-1.348-2.214-2.248-3.354-3.354
	c-0.177,1.673-0.935,3.57-0.402,4.976c0.951,2.509,2.686,4.716,4.085,7.055c0.197,0.33,0.364,0.678,0.517,1.029
	c4.782,10.922,8.637,22.375,14.549,32.646c9.542,16.575,19.524,32.874,27.737,50.182c1.383,2.917,3.267,5.6,4.5,7.686
	c-1.284,6.556-2.466,12.579-3.817,19.488c-1.334-3.642-2.533-6.497-3.433-9.444c-4.465-14.652-10.521-28.539-19.153-41.265
	c-12.997-19.159-29.348-34.953-48.135-48.327C99.968,55.583,80.149,46.799,58.586,41.956c-2.856-0.641-5.756-1.096-8.636-1.639
	c-3.254,0-6.506,0-9.759,0c-2.063,0.47-4.147,0.877-6.19,1.417c-8.394,2.227-14.182,7.185-16.454,15.801
	c-0.101,0.382-0.354,0.723-0.535,1.082c0,2.237,0,4.474,0,6.709c6.209,16.581,12.899,33.004,18.416,49.811
	C37.983,122.921,38.045,131.496,39.638,139.636z"/>
<path d="M193.546,141.101c-5.279-8.188-10.927-16.161-15.792-24.588c-4.446-7.693-8.061-15.869-12.037-23.832
	c-0.049-0.092-0.084-0.185-0.127-0.278c-6.878-14.9-13.718-29.82-20.703-44.669c-0.633-1.348-2.214-2.248-3.354-3.354
	c-0.177,1.673-0.935,3.57-0.402,4.976c0.951,2.509,2.686,4.716,4.085,7.055c0.197,0.33,0.364,0.678,0.517,1.029
	c4.782,10.922,8.637,22.375,14.549,32.646c9.542,16.575,19.524,32.874,27.737,50.182c1.383,2.917,3.267,5.6,4.5,7.686
	c-1.284,6.556-2.466,12.579-3.817,19.488c-1.334-3.642-2.533-6.497-3.433-9.444c-4.465-14.652-10.521-28.539-19.153-41.265
	c-12.997-19.159-29.348-34.953-48.135-48.327C99.968,55.583,80.149,46.799,58.586,41.956c-2.856-0.641-5.756-1.096-8.636-1.639
	c-3.254,0-6.506,0-9.759,0c-2.063,0.47-4.147,0.877-6.19,1.417c-8.394,2.227-14.182,7.185-16.454,15.801
	c-0.101,0.382-0.354,0.723-0.535,1.082c0,2.237,0,4.474,0,6.709c6.209,16.581,12.899,33.004,18.416,49.811
	c2.555,7.785,2.617,16.359,4.21,24.499c1.151,5.878,1.708,11.755,2.259,17.704c0.501,5.422,3.25,10.613,4.79,15.967
	c3.863,13.434,11.448,19.024,26.151,20.625c5.489,0.6,11.042,0.617,17.287,0.939c-3.369,1.434-6.112,2.633-8.878,3.773
	c-4.177,1.726-7.552,4.48-9.812,8.345c-2.613,4.463-4.935,9.099-7.318,13.696c-2.38,4.589-3.117,9.471-1.875,14.488
	c1.249,5.056,0.053,9.569-2.146,14.098c-2.691,5.547,0.25,11.61,6.379,12.948c2.807,0.609,3.259,2.169,2.813,4.359
	c-0.582,2.865-0.435,5.038,2.752,6.419c2.591,1.125,2.281,3.737,1.524,5.867c-0.631,1.768-1.747,3.437-2.935,4.915
	c-2.095,2.605-2.202,5.279-0.336,7.831c1.605,2.193,3.406,4.362,5.52,6.039c9.366,7.431,11.954,16.834,9.158,28.241
	c-1.978,8.068-4.957,15.618-9.279,22.722c-2.311,3.794-4.427,7.811-5.905,11.985c-2.347,6.631-0.493,12.62,4.27,17.688
	c3.422,3.645,6.889,3.052,8.54-1.74c1.412-4.104,2.347-8.393,3.178-12.662c0.835-4.279,1.209-8.646,1.917-12.952
	c1.51-9.209,9.175-18.266,17.273-19.783c2.858-0.537,6.021,0.029,8.964,0.554c6.579,1.172,13.101,2.671,19.661,3.943
	c1.156,0.225,2.445,0.195,3.596-0.061c3.456-0.767,7.013-1.366,10.256-2.697c2.131-0.873,3.902-2.778,5.632-4.436
	c2.982-2.861,5.669-6.045,8.742-8.802c3.231-2.896,4.925-6.098,5.687-10.576c2.23-13.08,4.823-26.134,8.084-38.991
	c3.992-15.729,8.802-31.247,13.274-46.85c0.295-1.025,0.749-2.003,1.847-2.908c0,0.729-0.053,1.463,0.012,2.187
	c0.892,10.198,1.729,20.403,2.771,30.586c0.19,1.855,1.037,3.73,1.93,5.409c1.21,2.275,2.876,3.311,4.578,2.923V146.34
	C196.387,146.783,195.189,143.648,193.546,141.101z M54.173,88.173c-7.84,0-14.193-6.354-14.193-14.193s6.353-14.193,14.193-14.193
	c7.839,0,14.193,6.353,14.193,14.193S62.012,88.173,54.173,88.173z M84.474,180.209c-1.096-0.646-1.976-1.664-3.745-3.191
	c9.4-3.202,18.312-5.939,25.458-12.45c-3.47-1.206-6.706-0.029-10.026,0.558c-5.145,0.908-10.343,1.507-15.683,1.67
	c5.035-5.891,11.237-9.76,18.531-11.272c7.207-1.497,14.587-2.159,22.327-3.247c-2.098-1.097-4.118-2.548-6.375-3.266
	c-8.17-2.601-16.522-2.895-24.986-1.54c-4.891,0.779-9.831,1.214-14.75,1.805c-0.046-0.317-0.093-0.634-0.14-0.95
	c11.159-5.128,22.097-10.963,35.053-10.375c0.051-0.401,0.099-0.803,0.15-1.201c-3.855-1.085-7.665-2.382-11.575-3.197
	c-4.062-0.845-8.217-1.225-12.781-1.873c3.828-2.956,7.926-4.752,12.344-5.502c4.442-0.756,8.986-0.922,13.433-1.34
	c-2.106-2.77-3.481-2.846-7.371-0.975c-4.946-1.102-8.891-1.982-12.944-2.883c1.274-0.888,2.691-1.873,4.574-3.184
	c-3.351-0.674-6.093-1.228-8.836-1.78c-0.026-0.345-0.051-0.688-0.078-1.033c2.565-1.225,5.125-2.458,7.701-3.657
	c0.221-0.101,0.558,0.014,0.833,0.072c3.339,0.738,6.677,1.486,10.015,2.229c0.087-0.404,0.174-0.805,0.261-1.208
	c-4.745-1.07-9.489-2.138-15.217-3.43c3.105-1.403,5.544-2.508,8.687-3.93c-4.307-1.75-8.165-3.316-12.543-5.097
	c5.627-3.095,11.258-1.093,16.877-1.729c-2.222-3.16-5.487-3.677-8.738-3.892c-3.211-0.215-6.444-0.048-10.331-0.048
	c1.429-1.053,2.411-2.024,3.584-2.601c4.633-2.27,9.503-3.467,14.724-2.988c2.426,0.222,4.869,0.354,7.303,0.322
	c3.275-0.042,4.442-1.701,3.218-4.803c-0.883-2.235-2.226-4.29-3.542-6.757c0.766,0.194,1.385,0.247,1.91,0.5
	c8.942,4.307,16.764,9.917,21.886,18.715c0.812,1.391,1.855,2.678,2.948,3.871c5.758,6.284,10.938,13.317,17.528,18.566
	l15.233,21.297c5.018,8.353,10.219,16.598,15.5,24.786c1.235,1.915,1.53,3.729,0.106,5.222c-0.823,0.87-2.685,1.369-3.901,1.129
	c-3.249-0.645-6.41-1.746-9.584-2.73c-2.165-0.672-4.3-1.452-6.737-1.715c5.94,3.441,11.207,7.413,14.562,14.12
	c-1.533,0.092-2.783,0.177-4.03,0.242c-15.314,0.778-30.639,1.387-45.934,2.412c-6.36,0.427-12.638,2.017-18.994,2.595
	C101.101,187.319,92.464,184.911,84.474,180.209z M188.071,210.63c-11.868,16.175-15.114,34.902-16.617,54.265
	c-0.782,10.041-5.096,18.905-10.727,27.124c-0.643,0.94-1.748,1.563-2.639,2.332c-0.45-0.062-0.901-0.125-1.352-0.187
	c-0.561-4.213-1.123-8.424-1.767-13.258c-2.638,4.214-5.049,8.075-7.662,12.253c-1.152-1.258-1.683-1.838-2.359-2.576
	c-0.513,0.458-1.036,0.924-1.631,1.457c-2.674-3.01-4.178-7.811-9.895-5.271c0.933-6.237,1.82-12.17,2.71-18.103
	c-0.383-0.19-0.766-0.381-1.15-0.573c-4.706,3.37-9.411,6.742-14.312,10.251c0.868-6.836,6.234-12.55,4.695-20.151
	c-1.072,0.799-1.992,1.486-3.223,2.404c-0.766-1.379-1.344-2.747-2.213-3.896c-1.022-1.352-1.965-1.938-2.957,0.351
	c-0.582,1.34-2.162,2.248-3.296,3.351c-0.27-0.221-0.537-0.439-0.806-0.663c2.49-6.095,4.98-12.19,7.539-18.451
	c-3.446-0.826-6.938,0.024-9.883,2.238c-4.859,3.655-9.465,7.649-14.177,11.499c-1,0.816-2.008,1.62-3.337,2.129
	c2.976-4.376,6.027-8.707,8.877-13.166c0.678-1.062,0.68-2.554,0.34-4.095c1.462-1.235,3.087-2.324,4.351-3.733
	c2.069-2.317,1.177-4.359-2.059-4.703c-3.332-0.353-6.689-0.444-10.035-0.661c-0.371-0.023-0.737-0.121-1.563-0.264
	c7.116-4.803,14.991-8.091,19.626-16.422c-3.236-0.204-5.936-0.374-8.915-0.562c4.496-2.164,8.701-4.188,12.902-6.208
	c-0.097-0.291-0.192-0.58-0.29-0.869c-0.931-0.065-1.863-0.134-2.795-0.199c-0.063-0.312-0.124-0.624-0.184-0.938
	c4.954-1.09,9.91-2.182,15.769-3.473c-2.774-1.354-5.018-2.449-7.04-3.437c1.805-1.186,4.487-2.17,5.952-4.082
	c2.104-2.749-1.286-4.294-2.596-6.266l54.48-2.741c0.44,2.552-1.066,3.725-2.779,4.583c-1.55,0.775-3.249,1.256-4.775,2.528
	c0.918,0,1.878,0.176,2.742-0.033c3.036-0.739,5.188,0.261,7.144,2.684c2.8,3.469,6.338,6.47,6.732,11.282
	C189.018,207.783,188.853,209.565,188.071,210.63z"/>
</svg>
