<?xml version="1.0" encoding="utf-8"?>
<!-- Generator: Adobe Illustrator 17.0.0, SVG Export Plug-In . SVG Version: 6.00 Build 0)  -->
<!DOCTYPE svg PUBLIC "-//W3C//DTD SVG 1.1//EN" "http://www.w3.org/Graphics/SVG/1.1/DTD/svg11.dtd">
<svg version="1.1" id="Layer_4" xmlns="http://www.w3.org/2000/svg" xmlns:xlink="http://www.w3.org/1999/xlink" x="0px" y="0px"
	 width="396.85px" height="396.85px" viewBox="-98.425 1.575 396.85 396.85" enable-background="new -98.425 1.575 396.85 396.85"
	 xml:space="preserve">
<linearGradient id="SVGID_1_" gradientUnits="userSpaceOnUse" x1="-2750.0559" y1="54.942" x2="-2576.3479" y2="54.942" gradientTransform="matrix(1 0 0 -1 2677.0449 268.4202)">
	<stop  offset="0.4544" style="stop-color:#FF0000"/>
	<stop  offset="1" style="stop-color:#FFFFFF"/>
</linearGradient>
<path fill="url(#SVGID_1_)" d="M98.678,170.442c-1.334-3.642-2.533-6.497-3.433-9.444c-4.465-14.652-10.521-28.539-19.153-41.265
	C63.095,100.574,46.744,84.78,27.957,71.406C9.945,58.583-9.874,49.799-31.437,44.956c-2.856-0.641-5.756-1.096-8.636-1.639
	c-3.254,0-6.506,0-9.759,0c-2.063,0.47-4.147,0.877-6.19,1.417c-8.394,2.227-14.182,7.185-16.454,15.801
	c-0.101,0.382-0.354,0.723-0.535,1.082c0,2.237,0,4.474,0,6.709c6.209,16.581,12.899,33.004,18.416,49.811
	c2.555,7.784,2.617,16.359,4.21,24.499c1.151,5.878,1.708,11.755,2.259,17.704c0.501,5.422,3.25,10.613,4.79,15.967
	c3.863,13.434,11.448,19.024,26.151,20.625c5.489,0.6,11.042,0.617,17.287,0.939c-3.369,1.434-6.112,2.633-8.878,3.773
	c-4.177,1.726-7.552,4.48-9.812,8.345c-2.613,4.463-4.935,9.099-7.318,13.696c-2.38,4.589-3.117,9.471-1.875,14.488
	c1.249,5.056,0.053,9.569-2.146,14.098c-2.691,5.547,0.25,11.61,6.379,12.948c2.807,0.609,3.259,2.169,2.813,4.359
	c-0.582,2.865-0.435,5.038,2.752,6.419c2.591,1.125,2.281,3.737,1.524,5.867c-0.631,1.768-1.747,3.437-2.935,4.915
	c-2.095,2.605-2.202,5.279-0.336,7.831c1.605,2.193,3.406,4.362,5.52,6.039c9.366,7.431,11.954,16.834,9.158,28.241
	c-1.978,8.068-4.957,15.618-9.279,22.722c-2.311,3.794-4.427,7.811-5.905,11.985c-2.347,6.631-0.493,12.62,4.27,17.688
	c3.422,3.645,6.889,3.052,8.54-1.74c1.412-4.104,2.347-8.393,3.178-12.662c0.835-4.279,1.209-8.646,1.917-12.952
	c1.51-9.209,9.175-18.266,17.273-19.783c2.858-0.537,6.021,0.029,8.964,0.554c6.579,1.172,13.101,2.671,19.661,3.943
	c1.156,0.225,2.445,0.195,3.596-0.061c3.456-0.767,7.013-1.366,10.256-2.697c2.131-0.873,3.902-2.778,5.632-4.436
	c2.982-2.861,5.669-6.045,8.742-8.802c3.231-2.896,4.925-6.098,5.687-10.576c2.23-13.08,4.823-26.134,8.084-38.991
	c3.992-15.729,8.802-31.247,13.274-46.85c0.295-1.025,0.749-2.003,1.847-2.908c0,0.729-0.053,1.463,0.012,2.187"/>
<path d="M98.679,170.442c-1.334-3.642-2.533-6.497-3.433-9.444c-4.465-14.652-10.521-28.539-19.153-41.265
	C63.096,100.574,46.745,84.78,27.958,71.406C9.945,58.583-9.874,49.799-31.437,44.956c-2.856-0.641-5.756-1.096-8.636-1.639
	c-3.254,0-6.506,0-9.759,0c-2.063,0.47-4.147,0.877-6.19,1.417c-8.394,2.227-14.182,7.185-16.454,15.801
	c-0.101,0.382-0.354,0.723-0.535,1.082c0,2.237,0,4.474,0,6.709c6.209,16.581,12.899,33.004,18.416,49.811
	c2.555,7.785,2.617,16.359,4.21,24.499c1.151,5.878,1.708,11.755,2.259,17.704c0.501,5.422,3.25,10.613,4.79,15.967
	c3.863,13.434,11.448,19.024,26.151,20.625c5.489,0.6,11.042,0.617,17.287,0.939c-3.369,1.434-6.112,2.633-8.878,3.773
	c-4.177,1.726-7.552,4.48-9.812,8.345c-2.613,4.463-4.935,9.099-7.318,13.696c-2.38,4.589-3.117,9.471-1.875,14.488
	c1.249,5.056,0.053,9.569-2.146,14.098c-2.691,5.547,0.25,11.61,6.379,12.948c2.807,0.609,3.259,2.169,2.813,4.359
	c-0.582,2.865-0.435,5.038,2.752,6.419c2.591,1.125,2.281,3.737,1.524,5.867c-0.631,1.768-1.747,3.437-2.935,4.915
	c-2.095,2.605-2.202,5.279-0.336,7.831c1.605,2.193,3.406,4.362,5.52,6.039c9.366,7.431,11.954,16.834,9.158,28.241
	c-1.978,8.068-4.957,15.618-9.279,22.722c-2.311,3.794-4.427,7.811-5.905,11.985c-2.347,6.631-0.493,12.62,4.27,17.688
	c3.422,3.645,6.889,3.052,8.54-1.74c1.412-4.104,2.347-8.393,3.178-12.662c0.835-4.279,1.209-8.646,1.917-12.952
	c1.51-9.209,9.175-18.266,17.273-19.783c2.858-0.537,6.021,0.029,8.964,0.554c6.579,1.172,13.101,2.671,19.661,3.943
	c1.156,0.225,2.445,0.195,3.596-0.061c3.456-0.767,7.013-1.366,10.256-2.697c2.131-0.873,3.902-2.778,5.632-4.436
	c2.982-2.861,5.669-6.045,8.742-8.802c3.231-2.896,4.925-6.098,5.687-10.576c2.23-13.08,4.823-26.134,8.084-38.991
	c3.992-15.729,8.802-31.247,13.274-46.85c0.295-1.025,0.749-2.003,1.847-2.908c0,0.729-0.053,1.463,0.012,2.187 M-35.85,91.173
	c-7.84,0-14.193-6.354-14.193-14.193s6.353-14.193,14.193-14.193c7.839,0,14.193,6.353,14.193,14.193S-28.011,91.173-35.85,91.173z
	 M-5.549,183.209c-1.096-0.646-1.976-1.664-3.745-3.191c9.4-3.202,18.312-5.939,25.458-12.45c-3.47-1.206-6.706-0.029-10.026,0.558
	c-5.145,0.908-10.343,1.507-15.683,1.67c5.035-5.891,11.237-9.76,18.531-11.272c7.207-1.497,14.587-2.159,22.327-3.247
	c-2.098-1.097-4.118-2.548-6.375-3.266c-8.17-2.601-16.522-2.895-24.986-1.54c-4.891,0.779-9.831,1.214-14.75,1.805
	c-0.046-0.317-0.093-0.634-0.14-0.95c11.159-5.128,22.097-10.963,35.053-10.375c0.051-0.401,0.099-0.803,0.15-1.201
	c-3.855-1.085-7.665-2.382-11.575-3.197c-4.062-0.845-8.217-1.225-12.781-1.873c3.828-2.956,7.926-4.752,12.344-5.502
	c4.442-0.756,8.986-0.922,13.433-1.34c-2.106-2.77-3.481-2.846-7.371-0.975c-4.946-1.102-8.891-1.982-12.944-2.883
	c1.274-0.888,2.691-1.873,4.574-3.184c-3.351-0.674-6.093-1.228-8.836-1.78c-0.026-0.345-0.051-0.688-0.078-1.033
	c2.565-1.225,5.125-2.458,7.701-3.657c0.221-0.101,0.558,0.014,0.833,0.072c3.339,0.738,6.677,1.486,10.015,2.229
	c0.087-0.404,0.174-0.805,0.261-1.208c-4.745-1.07-9.489-2.138-15.217-3.43c3.105-1.403,5.544-2.508,8.687-3.93
	c-4.307-1.75-8.165-3.316-12.543-5.097c5.627-3.095,11.258-1.093,16.877-1.729c-2.222-3.16-5.487-3.677-8.738-3.892
	c-3.211-0.215-6.444-0.048-10.331-0.048c1.429-1.053,2.411-2.024,3.584-2.601c4.633-2.27,9.503-3.467,14.724-2.988
	c2.426,0.222,4.869,0.354,7.303,0.322c3.275-0.042,4.442-1.701,3.218-4.803c-0.883-2.235-2.226-4.29-3.542-6.757
	c0.766,0.194,1.385,0.247,1.91,0.5c8.942,4.307,16.764,9.917,21.886,18.715c0.812,1.391,1.855,2.678,2.948,3.871
	c5.758,6.284,10.938,13.317,17.528,18.566l15.233,21.297c5.018,8.353,10.219,16.598,15.5,24.786c1.235,1.915,1.53,3.729,0.106,5.222
	c-0.823,0.87-2.685,1.369-3.901,1.129c-3.249-0.645-6.41-1.746-9.584-2.73c-2.165-0.672-4.3-1.452-6.737-1.715
	c5.94,3.441,11.207,7.413,14.562,14.12c-1.533,0.092-2.783,0.177-4.03,0.242c-15.314,0.778-30.639,1.387-45.934,2.412
	c-6.36,0.427-12.638,2.017-18.994,2.595C11.078,190.319,2.441,187.911-5.549,183.209z M98.048,213.63
	c-11.868,16.175-15.114,34.902-16.617,54.265c-0.782,10.041-5.096,18.905-10.727,27.124c-0.643,0.94-1.748,1.563-2.639,2.332
	c-0.45-0.062-0.901-0.125-1.352-0.187c-0.561-4.213-1.123-8.424-1.767-13.258c-2.638,4.214-5.049,8.075-7.662,12.253
	c-1.152-1.258-1.683-1.838-2.359-2.576c-0.513,0.458-1.036,0.924-1.631,1.457c-2.674-3.01-4.178-7.811-9.895-5.271
	c0.933-6.237,1.82-12.17,2.71-18.103c-0.383-0.19-0.766-0.381-1.15-0.573c-4.706,3.37-9.411,6.742-14.312,10.251
	c0.868-6.836,6.234-12.55,4.695-20.151c-1.072,0.799-1.992,1.486-3.223,2.404c-0.766-1.379-1.344-2.747-2.213-3.896
	c-1.022-1.352-1.965-1.938-2.957,0.351c-0.582,1.34-2.162,2.248-3.296,3.351c-0.27-0.221-0.537-0.439-0.806-0.663
	c2.49-6.095,4.98-12.19,7.539-18.451c-3.446-0.826-6.938,0.024-9.883,2.238c-4.859,3.655-9.465,7.649-14.177,11.499
	c-1,0.816-2.008,1.62-3.337,2.129c2.976-4.376,6.027-8.707,8.877-13.166c0.678-1.062,0.68-2.554,0.34-4.095
	c1.462-1.235,3.087-2.324,4.351-3.733c2.069-2.317,1.177-4.359-2.059-4.703c-3.332-0.353-6.689-0.444-10.035-0.661
	c-0.371-0.023-0.737-0.121-1.563-0.264c7.116-4.803,14.991-8.091,19.626-16.422c-3.236-0.204-5.936-0.374-8.915-0.562
	c4.496-2.164,8.701-4.188,12.902-6.208c-0.097-0.291-0.192-0.58-0.29-0.869c-0.931-0.065-1.863-0.134-2.795-0.199
	c-0.063-0.312-0.124-0.624-0.184-0.938c4.954-1.09,9.91-2.182,15.769-3.473c-2.774-1.354-5.018-2.449-7.04-3.437
	c1.805-1.186,4.487-2.17,5.952-4.082c2.104-2.749-1.286-4.294-2.596-6.266l54.48-2.741c0.44,2.552-1.066,3.725-2.779,4.583
	c-1.55,0.775-3.249,1.256-4.775,2.528c0.918,0,1.878,0.176,2.742-0.033c3.036-0.739,5.188,0.261,7.144,2.684
	c2.8,3.469,6.338,6.47,6.732,11.282C98.995,210.783,98.83,212.565,98.048,213.63z"/>
<linearGradient id="SVGID_2_" gradientUnits="userSpaceOnUse" x1="-2751.0559" y1="54.942" x2="-2577.3479" y2="54.942" gradientTransform="matrix(-1 0 0 -1 -2477.3589 268.4202)">
	<stop  offset="0.4544" style="stop-color:#FF0000"/>
	<stop  offset="1" style="stop-color:#FFFFFF"/>
</linearGradient>
<path fill="url(#SVGID_2_)" d="M99.989,225.511c0.065-0.724,0.012-1.458,0.012-2.187c1.098,0.905,1.552,1.883,1.847,2.908
	c4.472,15.603,9.282,31.121,13.274,46.85c3.261,12.857,5.854,25.911,8.084,38.991c0.762,4.478,2.456,7.68,5.687,10.576
	c3.073,2.757,5.76,5.941,8.742,8.802c1.73,1.658,3.501,3.563,5.632,4.436c3.243,1.331,6.8,1.93,10.256,2.697
	c1.151,0.256,2.44,0.286,3.596,0.061c6.56-1.272,13.082-2.771,19.661-3.943c2.943-0.525,6.106-1.091,8.964-0.554
	c8.098,1.517,15.763,10.574,17.273,19.783c0.708,4.306,1.082,8.673,1.917,12.952c0.831,4.269,1.766,8.558,3.178,12.662
	c1.651,4.792,5.118,5.385,8.54,1.74c4.763-5.068,6.617-11.057,4.27-17.688c-1.478-4.174-3.594-8.191-5.905-11.985
	c-4.322-7.104-7.301-14.654-9.279-22.722c-2.796-11.407-0.208-20.81,9.158-28.241c2.114-1.677,3.915-3.846,5.52-6.039
	c1.866-2.552,1.759-5.226-0.336-7.831c-1.188-1.478-2.304-3.147-2.935-4.915c-0.757-2.13-1.067-4.742,1.524-5.867
	c3.187-1.381,3.334-3.554,2.752-6.419c-0.446-2.19,0.006-3.75,2.813-4.359c6.129-1.338,9.07-7.401,6.379-12.948
	c-2.199-4.529-3.395-9.042-2.146-14.098c1.242-5.017,0.505-9.899-1.875-14.488c-2.383-4.597-4.705-9.233-7.318-13.696
	c-2.26-3.865-5.635-6.619-9.812-8.345c-2.766-1.14-5.509-2.339-8.878-3.773c6.245-0.322,11.798-0.339,17.287-0.939
	c14.703-1.601,22.288-7.191,26.151-20.625c1.54-5.354,4.289-10.545,4.79-15.967c0.551-5.949,1.108-11.826,2.259-17.704
	c1.593-8.14,1.655-16.715,4.21-24.499c5.517-16.807,12.207-33.23,18.416-49.811c0-2.235,0-4.472,0-6.709
	c-0.181-0.359-0.434-0.7-0.535-1.082c-2.272-8.616-8.06-13.574-16.454-15.801c-2.043-0.54-4.127-0.947-6.19-1.417
	c-3.253,0-6.505,0-9.759,0c-2.88,0.543-5.78,0.998-8.636,1.639c-21.563,4.843-41.382,13.627-59.394,26.45
	c-18.787,13.374-35.138,29.168-48.135,48.327c-8.632,12.726-14.688,26.613-19.153,41.265c-0.9,2.947-2.099,5.802-3.433,9.444"/>
<path d="M99.989,225.511c0.065-0.724,0.012-1.458,0.012-2.187c1.098,0.905,1.552,1.883,1.847,2.908
	c4.472,15.603,9.282,31.121,13.274,46.85c3.261,12.857,5.854,25.911,8.084,38.991c0.762,4.478,2.456,7.68,5.687,10.576
	c3.073,2.757,5.76,5.941,8.742,8.802c1.73,1.658,3.501,3.563,5.632,4.436c3.243,1.331,6.8,1.93,10.256,2.697
	c1.151,0.256,2.44,0.286,3.596,0.061c6.56-1.272,13.082-2.771,19.661-3.943c2.943-0.525,6.106-1.091,8.964-0.554
	c8.098,1.517,15.763,10.574,17.273,19.783c0.708,4.306,1.082,8.673,1.917,12.952c0.831,4.269,1.766,8.558,3.178,12.662
	c1.651,4.792,5.118,5.385,8.54,1.74c4.763-5.068,6.617-11.057,4.27-17.688c-1.478-4.174-3.594-8.191-5.905-11.985
	c-4.322-7.104-7.301-14.654-9.279-22.722c-2.796-11.407-0.208-20.81,9.158-28.241c2.114-1.677,3.915-3.846,5.52-6.039
	c1.866-2.552,1.759-5.226-0.336-7.831c-1.188-1.478-2.304-3.147-2.935-4.915c-0.757-2.13-1.067-4.742,1.524-5.867
	c3.187-1.381,3.334-3.554,2.752-6.419c-0.446-2.19,0.006-3.75,2.813-4.359c6.129-1.338,9.07-7.401,6.379-12.948
	c-2.199-4.529-3.395-9.042-2.146-14.098c1.242-5.017,0.505-9.899-1.875-14.488c-2.383-4.597-4.705-9.233-7.318-13.696
	c-2.26-3.865-5.635-6.619-9.812-8.345c-2.766-1.14-5.509-2.339-8.878-3.773c6.245-0.322,11.798-0.339,17.287-0.939
	c14.703-1.601,22.288-7.191,26.151-20.625c1.54-5.354,4.289-10.545,4.79-15.967c0.551-5.949,1.108-11.826,2.259-17.704
	c1.593-8.14,1.655-16.714,4.21-24.499c5.517-16.807,12.207-33.23,18.416-49.811c0-2.235,0-4.472,0-6.709
	c-0.181-0.359-0.434-0.7-0.535-1.082c-2.272-8.616-8.06-13.574-16.454-15.801c-2.043-0.54-4.127-0.947-6.19-1.417
	c-3.253,0-6.505,0-9.759,0c-2.88,0.543-5.78,0.998-8.636,1.639c-21.563,4.843-41.382,13.627-59.395,26.45
	c-18.787,13.374-35.138,29.168-48.135,48.327c-8.632,12.726-14.688,26.613-19.153,41.265c-0.9,2.947-2.099,5.802-3.433,9.444
	 M222.343,76.98c0-7.84,6.354-14.193,14.193-14.193c7.84,0,14.193,6.354,14.193,14.193s-6.353,14.193-14.193,14.193
	C228.697,91.173,222.343,84.82,222.343,76.98z M180.33,189.476c-6.356-0.578-12.634-2.168-18.994-2.595
	c-15.295-1.025-30.62-1.634-45.934-2.412c-1.247-0.065-2.497-0.15-4.03-0.242c3.355-6.707,8.622-10.679,14.562-14.12
	c-2.437,0.263-4.572,1.043-6.737,1.715c-3.174,0.984-6.335,2.085-9.584,2.73c-1.216,0.24-3.078-0.259-3.901-1.129
	c-1.424-1.493-1.129-3.307,0.106-5.222c5.281-8.188,10.482-16.433,15.5-24.786l15.233-21.297c6.59-5.249,11.77-12.282,17.528-18.566
	c1.093-1.193,2.136-2.48,2.948-3.871c5.122-8.798,12.944-14.408,21.886-18.715c0.525-0.253,1.144-0.306,1.91-0.5
	c-1.316,2.467-2.659,4.522-3.542,6.757c-1.224,3.102-0.057,4.761,3.218,4.803c2.434,0.032,4.877-0.1,7.303-0.322
	c5.221-0.479,10.091,0.718,14.724,2.988c1.173,0.577,2.155,1.548,3.584,2.601c-3.887,0-7.12-0.167-10.331,0.048
	c-3.251,0.215-6.516,0.732-8.738,3.892c5.619,0.636,11.25-1.366,16.877,1.729c-4.378,1.781-8.236,3.347-12.543,5.097
	c3.143,1.422,5.582,2.527,8.687,3.93c-5.728,1.292-10.472,2.36-15.217,3.43c0.087,0.403,0.174,0.804,0.261,1.208
	c3.338-0.743,6.676-1.491,10.015-2.229c0.275-0.058,0.612-0.173,0.833-0.072c2.576,1.199,5.136,2.432,7.701,3.657
	c-0.027,0.345-0.052,0.688-0.078,1.033c-2.743,0.552-5.485,1.106-8.836,1.78c1.883,1.311,3.3,2.296,4.574,3.184
	c-4.053,0.901-7.998,1.781-12.944,2.883c-3.89-1.871-5.265-1.795-7.371,0.975c4.447,0.418,8.991,0.584,13.433,1.34
	c4.418,0.75,8.516,2.546,12.344,5.502c-4.564,0.648-8.719,1.028-12.781,1.873c-3.91,0.815-7.72,2.112-11.575,3.197
	c0.051,0.398,0.099,0.8,0.15,1.201c12.956-0.588,23.894,5.247,35.053,10.375c-0.047,0.316-0.094,0.633-0.14,0.95
	c-4.919-0.591-9.859-1.026-14.75-1.805c-8.464-1.355-16.816-1.061-24.986,1.54c-2.257,0.718-4.277,2.169-6.375,3.266
	c7.74,1.088,15.12,1.75,22.327,3.247c7.294,1.512,13.496,5.381,18.531,11.272c-5.34-0.163-10.538-0.762-15.683-1.67
	c-3.32-0.587-6.556-1.764-10.026-0.558c7.146,6.511,16.058,9.248,25.458,12.45c-1.769,1.527-2.649,2.545-3.745,3.191
	C198.245,187.911,189.608,190.319,180.33,189.476z M101.813,209.38c0.394-4.812,3.932-7.813,6.732-11.282
	c1.956-2.423,4.108-3.423,7.144-2.684c0.864,0.209,1.824,0.033,2.742,0.033c-1.526-1.272-3.225-1.753-4.775-2.528
	c-1.713-0.858-3.219-2.031-2.779-4.583l54.48,2.741c-1.31,1.972-4.7,3.517-2.596,6.266c1.465,1.912,4.147,2.896,5.952,4.082
	c-2.022,0.988-4.266,2.083-7.04,3.437c5.859,1.291,10.815,2.383,15.769,3.473c-0.06,0.314-0.121,0.626-0.184,0.938
	c-0.932,0.065-1.864,0.134-2.795,0.199c-0.098,0.289-0.193,0.578-0.29,0.869c4.201,2.02,8.406,4.044,12.902,6.208
	c-2.979,0.188-5.679,0.358-8.915,0.562c4.635,8.331,12.51,11.619,19.626,16.422c-0.826,0.143-1.192,0.241-1.563,0.264
	c-3.346,0.217-6.703,0.308-10.035,0.661c-3.236,0.344-4.128,2.386-2.059,4.703c1.264,1.409,2.889,2.498,4.351,3.733
	c-0.34,1.541-0.338,3.033,0.34,4.095c2.85,4.459,5.901,8.79,8.877,13.166c-1.329-0.509-2.337-1.313-3.337-2.129
	c-4.712-3.85-9.318-7.844-14.177-11.499c-2.945-2.214-6.437-3.064-9.883-2.238c2.559,6.261,5.049,12.356,7.539,18.451
	c-0.269,0.224-0.536,0.442-0.806,0.663c-1.134-1.103-2.714-2.011-3.296-3.351c-0.992-2.289-1.935-1.703-2.957-0.351
	c-0.869,1.149-1.447,2.517-2.213,3.896c-1.231-0.918-2.151-1.605-3.223-2.404c-1.539,7.601,3.827,13.315,4.695,20.151
	c-4.901-3.509-9.606-6.881-14.312-10.251c-0.384,0.192-0.767,0.383-1.15,0.573c0.89,5.933,1.777,11.866,2.71,18.103
	c-5.717-2.54-7.221,2.261-9.895,5.271c-0.595-0.533-1.118-0.999-1.631-1.457c-0.676,0.738-1.207,1.318-2.359,2.576
	c-2.613-4.178-5.024-8.039-7.662-12.253c-0.644,4.834-1.206,9.045-1.767,13.258c-0.451,0.062-0.902,0.125-1.352,0.187
	c-0.891-0.769-1.996-1.392-2.639-2.332c-5.631-8.219-9.945-17.083-10.727-27.124c-1.503-19.363-4.749-38.09-16.617-54.265
	C101.856,212.565,101.691,210.783,101.813,209.38z"/>
</svg>
