<?xml version="1.0" encoding="utf-8"?>
<!-- Generator: Adobe Illustrator 17.0.0, SVG Export Plug-In . SVG Version: 6.00 Build 0)  -->
<!DOCTYPE svg PUBLIC "-//W3C//DTD SVG 1.1//EN" "http://www.w3.org/Graphics/SVG/1.1/DTD/svg11.dtd">
<svg version="1.1" id="Layer_1" xmlns="http://www.w3.org/2000/svg" xmlns:xlink="http://www.w3.org/1999/xlink" x="0px" y="0px"
	 width="200px" height="400px" viewBox="0 0 200 400" enable-background="new 0 0 200 400" xml:space="preserve">
<g>
	
		<linearGradient id="SVGID_1_" gradientUnits="userSpaceOnUse" x1="-1524.7694" y1="1328.3153" x2="-1371.3322" y2="1287.202" gradientTransform="matrix(1 0 0 1 1565.72 -1153.2549)">
		<stop  offset="0.3279" style="stop-color:#FF0000"/>
		<stop  offset="1" style="stop-color:#FFFFFF"/>
	</linearGradient>
	<path fill="url(#SVGID_1_)" d="M200,154.892c-0.032,0.1-0.132,0.177-0.271,0.356c-0.562-0.814-1.105-1.596-1.644-2.382
		c-18.904-27.593-41.066-52.202-67.217-73.128C112.552,65.083,92.805,52.804,70.867,44.27c-17.149-6.672-34.855-10.61-53.336-10.674
		c-2.968-0.009-5.248,1.243-6.433,3.857c-0.915,2.018-1.572,4.263-1.794,6.461c-0.782,7.754,1.089,15.155,3.578,22.402
		c5.139,14.971,13.271,28.277,22.963,40.677c1.282,1.642,1.915,3.116,1.694,5.297c-0.46,4.58,1.385,8.715,3.116,12.854
		c1.606,3.839,3.298,7.691,4.358,11.693c1.004,3.797,1.139,7.816,1.84,11.704c0.624,3.457,1.846,6.646,5.124,8.592
		c0.287,0.171,0.42,0.85,0.388,1.273c-0.299,3.926-0.03,7.808,1.057,11.591c2.067,7.195,5.276,13.601,12.421,17.135
		c0.062,0.03,0.055,0.199,0.037,0.127c-0.63,0.701-1.18,1.347-1.764,1.96c-2.52,2.645-4.272,5.748-3.857,9.431
		c0.755,6.696-0.091,12.98-3.027,19.107c-1.504,3.139-0.792,4.663,1.843,6.928c-1.377,4.072-1.864,7.984,2.324,10.617
		c-1.012,3.604-3.314,6.897-0.66,10.551c0.098,0.136-0.02,0.428-0.042,0.648c-0.424,4.064,2.006,7.874,5.828,9.305
		c0.467,0.174,0.938,0.804,1.078,1.312c0.743,2.712,1.21,5.514,2.128,8.159c0.43,1.24,1.622,2.236,2.54,3.277
		c0.642,0.729,1.52,1.265,2.096,2.031c1.769,2.356,3.607,4.504,6.893,4.628c0.427,0.017,0.865,0.583,1.245,0.95
		c2.094,2.031,4.018,4.285,6.319,6.046c1.188,0.909,3.018,1.177,4.593,1.309c0.97,0.08,1.633,0.263,2.333,0.906
		c2.913,2.675,6.198,4.498,10.322,4.401c0.624-0.014,1.276,0.347,1.881,0.615c3.454,1.529,6.829,3.264,10.364,4.569
		c3.284,1.215,6.728,2.032,10.223,0.47c0.357-0.158,0.88,0.017,1.314,0.094c2.168,0.384,4.316,0.936,6.497,1.154
		c4.805,0.478,9.442,0.201,13.558-2.922c1.24-0.941,2.954-1.448,4.527-1.714c2.854-0.483,5.384-1.582,7.242-3.719
		c2.955-3.399,5.988-6.801,8.441-10.56c9.739-14.911,17.056-31.047,23.335-47.662c2.146-5.68,4.009-11.464,6.104-17.5
		c0,0.815,0.015,1.345-0.002,1.875"/>
</g>
<path d="M200,154.893c-0.032,0.1-1.376-1.24-1.915-2.026c-18.904-27.593-41.066-52.202-67.217-73.128
	c-18.316-14.655-38.063-26.934-60.001-35.468c-17.149-6.672-34.855-10.61-53.336-10.674c-2.968-0.009-5.248,1.243-6.433,3.857
	c-0.915,2.018-1.572,4.263-1.794,6.461c-0.782,7.754,1.089,15.155,3.578,22.402c5.139,14.971,13.271,28.277,22.963,40.677
	c1.282,1.642,1.915,3.116,1.694,5.297c-0.46,4.58,1.385,8.715,3.116,12.854c1.606,3.839,3.298,7.691,4.358,11.693
	c1.004,3.797,1.139,7.816,1.84,11.704c0.624,3.457,1.846,6.646,5.124,8.592c0.287,0.171,0.42,0.85,0.388,1.273
	c-0.299,3.926-0.03,7.808,1.057,11.591c2.067,7.195,5.276,13.601,12.421,17.135c0.062,0.03,0.055,0.199,0.037,0.127
	c-0.63,0.701-1.18,1.347-1.764,1.96c-2.52,2.645-4.272,5.748-3.857,9.431c0.755,6.696-0.091,12.98-3.027,19.107
	c-1.504,3.139-0.792,4.663,1.843,6.928c-1.377,4.072-1.864,7.984,2.324,10.617c-1.012,3.604-3.314,6.897-0.66,10.551
	c0.098,0.136-0.02,0.428-0.042,0.648c-0.424,4.064,2.006,7.874,5.828,9.305c0.467,0.174,0.938,0.804,1.078,1.312
	c0.743,2.712,1.21,5.514,2.128,8.159c0.43,1.24,1.622,2.236,2.54,3.277c0.642,0.729,1.52,1.265,2.096,2.031
	c1.769,2.356,3.607,4.504,6.893,4.628c0.427,0.017,0.865,0.583,1.245,0.95c2.094,2.031,4.018,4.285,6.319,6.046
	c1.188,0.909,3.018,1.177,4.593,1.309c0.97,0.08,1.633,0.263,2.333,0.906c2.913,2.675,6.198,4.498,10.322,4.401
	c0.624-0.014,1.276,0.347,1.881,0.615c3.454,1.529,6.829,3.264,10.364,4.569c3.284,1.215,6.728,2.032,10.223,0.47
	c0.357-0.158,0.88,0.017,1.314,0.094c2.168,0.384,4.316,0.936,6.497,1.154c4.805,0.478,9.442,0.201,13.558-2.922
	c1.24-0.941,2.954-1.448,4.527-1.714c2.854-0.483,5.384-1.582,7.242-3.719c2.955-3.399,5.988-6.801,8.441-10.56
	c9.739-14.911,17.056-31.047,23.335-47.662c2.146-5.68,6.119-16.155,6.102-15.625L200,154.893z M145.653,103.61
	c13.022,13.415,25.955,26.919,38.707,40.587c3.48,3.73,6.309,8.109,9.15,12.38c1.105,1.665,1.636,3.811,2.031,5.818
	c0.318,1.61-0.747,2.691-2.397,2.479c-2.097-0.271-4.3-0.646-6.171-1.56c-4.658-2.272-9.33-4.605-13.675-7.411
	c-6.666-4.299-13.552-8.114-20.78-11.353c-4.989-2.237-9.915-4.611-14.906-6.839c-2.946-1.316-5.075-3.18-6.449-6.278
	c-3.673-8.287-10.087-14.186-17.984-18.239c-4.186-2.148-6.315-5.058-7.35-9.506c-1.528-6.572-4.858-12.224-10.322-16.5
	C115.01,84.549,131.927,89.469,145.653,103.61z M71.49,141.856c1.626-0.042,1.087,1.369,1.3,2.109
	c0.018,2.289-1.02,3.915-2.896,4.688c-1.801,0.74-4.68,0.229-5.877-1.069c-0.862-0.936-0.672-1.929,0.135-2.714
	C66.181,142.9,68.685,141.928,71.49,141.856z M69.492,97.167c0.651-2.043,1.85-3.981,3.117-5.737
	c1.375-1.901,3.437-2.792,5.865-2.874c4.864-0.163,9.7-0.221,14.42,1.264c3.939,1.239,6.972,3.639,8.534,7.428
	c1.732,4.199,3.053,8.567,4.591,12.968c-5.113,2.238-10.098,4.072-15.359,4.778c-3.488,0.468-7.134,0.747-10.59,0.261
	C71.136,113.999,66.628,106.146,69.492,97.167z M73.453,125.623c1.097-3.609,3.323-6.172,7.202-6.834
	c5.616-0.955,11.244-1.855,16.881-2.678c2.566-0.373,5.174-0.458,7.755-0.756c5.018-0.581,9.473,0.963,13.223,4.086
	c3.231,2.695,6.169,5.782,8.989,8.918c2.091,2.326,1.585,4.779-1.038,6.663c-3.189,2.288-6.897,3.425-10.671,4.077
	c-6.889,1.193-13.832,2.071-20.75,3.096c-3.681,0.546-7.356,1.124-9.507,1.452c-6.467,0.287-9.62-1.701-11.472-6.25
	C72.5,133.551,72.243,129.601,73.453,125.623z M77.107,219.835c3.129-8.172,9.136-13.104,18.019-14.145
	c8.854-1.035,17.763-1.712,26.37-4.293c1.565-0.47,2.969,0.804,2.711,2.482c-0.179,1.148-0.553,2.327-1.108,3.346
	c-1.846,3.362-3.596,6.814-5.812,9.923c-1.436,2.019-3.451,3.75-5.507,5.18c-7.091,4.926-14.814,8.38-23.517,9.283
	c-0.504,0.052-1.012,0.088-1.792,0.157c-0.914-0.119-2.105-0.188-3.259-0.436C77.913,230.189,75.034,225.25,77.107,219.835z
	 M132.211,183.277c1.477,0.29,2.913,0.79,4.849,1.325c-4.01,2.894-6.385,6.491-8.541,10.307c-1.598,2.827-4.121,4.308-7.426,4.666
	c-6.957,0.751-13.881,1.844-20.851,2.444c-3.904,0.337-7.904,0.276-11.798-0.166c-4.698-0.532-6.128-3.462-4.506-7.902
	c1.324-3.625,3.795-6.063,7.253-7.623c5.536-2.497,11.436-3.457,17.406-3.985C116.499,181.648,124.392,181.75,132.211,183.277z
	 M130.616,181.129c0.609-0.033,1.22-0.063,1.828-0.097c0.621-0.033,1.239-0.089,1.858-0.091c8.813-0.042,17.63,0.042,26.439-0.143
	c7.403-0.152,14.757-0.95,21.938-2.899c0.154-0.044,0.331-0.006,0.88-0.006c-3.485,2.872-7.211,4.382-11.177,5.379
	c-6.198,1.56-12.504,1.692-18.846,1.405C145.801,184.326,138.2,183.059,130.616,181.129z M125.743,205.464
	c1.769-4.075,3.729-8.095,5.968-11.93c3.919-6.712,9.847-9.057,17.462-7.405c3.137,0.682,6.331,1.201,9.524,1.494
	c4.716,0.431,9.154-0.994,13.546-2.523c4.578-1.596,9.165-3.167,13.753-4.735c0.307-0.105,0.646-0.116,1.102-0.193
	c0.848,2.366,0.397,4.42-0.552,6.405c-2.019,4.219-5.171,7.546-8.696,10.486c-15.283,12.75-32.383,22.144-51.646,27.361
	c-2.627,0.713-5.464,0.713-8.214,0.87c-1.003,0.058-2.035-0.386-3.377-0.669C120.356,219.132,122.827,212.19,125.743,205.464z
	 M175.355,172.172c-5.304,0.127-10.625-0.061-15.926-0.34c-7.692-0.406-15.217-1.949-22.693-3.747
	c-7.665-1.839-15.283-1.038-22.81,0.792c-5.753,1.4-11.429,3.118-17.156,4.63c-9.224,2.438-16.88-2.292-18.95-11.657
	c-1.756-7.946,2.744-14.81,11.31-16.511c4.231-0.842,8.63-1.077,12.958-1.126c6.917-0.081,13.517-1.789,20.197-3.197
	c5.715-1.209,11.495-2.195,17.189,0.042c3.78,1.485,7.444,3.261,11.209,4.788c6.846,2.774,13.27,6.195,18.886,11.099
	c4.956,4.324,10.995,6.579,17.243,8.335c2.262,0.638,4.478,1.43,6.966,2.231c-1.556,2.2-3.533,3.172-5.644,3.465
	C183.9,171.567,179.624,172.067,175.355,172.172z M98.68,69.449c1.362,0.188,2.773,0.213,4.079,0.594
	c6.815,1.988,12.936,5.303,18.296,9.968c0.842,0.73,1.519,1.664,2.184,2.57c0.23,0.314,0.388,1.083,0.239,1.195
	c-0.345,0.262-0.922,0.392-1.358,0.315c-0.827-0.146-1.65-0.406-2.424-0.737c-6.884-2.956-13.303-6.709-19.19-11.351
	c-0.487-0.382-0.922-0.833-1.356-1.275c-0.232-0.236-0.411-0.525-0.613-0.79C98.584,69.775,98.632,69.613,98.68,69.449z
	 M98.179,65.038c-4.159,0.716-10.004-2.963-11.389-7.09L98.179,65.038z M82.467,56.417c-2.474-0.351-4.605-1.521-6.48-3.134
	L82.467,56.417z M70.607,57.378c0.441-2.007,2.008-2.988,3.797-2.029c3.996,2.141,7.363,4.983,8.33,9.763
	c0.138,0.681,0.02,1.411,0.02,2.078c-5.795,0.959-11.095-2.208-12.153-7.152C70.418,59.187,70.42,58.229,70.607,57.378z
	 M80.916,71.84c-4.185,3.306-14.009,2.626-15.245-4.398C71.311,66.011,78.488,68.047,80.916,71.84z M63.761,51.351
	c0.279,0.007,0.575,0.042,0.833,0.138c1.015,0.387,2.643,0,2.741,1.618c0.092,1.543-1.371,2.714-3.143,2.862
	c-0.168,0.014-0.339,0.001-0.509,0.001c-1.817-0.028-3.013-0.96-2.979-2.322C60.738,52.322,62.068,51.314,63.761,51.351z
	 M48.076,49.015c2.356,0.116,4.699,0.569,7.04,0.92c1.717,0.256,3.024,1.167,3.283,2.94c0.255,1.747-1.103,2.614-2.413,3.324
	c-3.669,1.986-7.699,2.465-12.726,2.781c-1.082-0.125-3.121-0.225-5.093-0.642c-1.044-0.221-2.189-0.789-2.913-1.555
	c-2.243-2.372-1.566-5.257,1.469-6.513C40.369,48.764,44.242,48.831,48.076,49.015z M37.336,37.692
	c4.337,0.493,6.11,1.817,6.483,5.078c-4.214,0.403-8.125-0.627-11.909-2.272C32.161,38.352,34.769,37.403,37.336,37.692z
	 M23.198,45.647c1.364-2.104,4.295-3.026,6.51-2.024c1.371,0.619,2.32,1.579,2.363,3.189c0.046,1.682-0.883,2.771-2.313,3.395
	c-0.855,0.375-1.829,0.474-2.511,0.64c-0.831-0.101-1.395-0.133-1.944-0.243C22.708,50.089,21.766,47.855,23.198,45.647z
	 M31.477,59.192L25.7,57.06C27.636,57.751,29.691,58.223,31.477,59.192z M17.665,41.994h-6.383
	C12.143,39.807,15.07,39.791,17.665,41.994z M16.429,54.612c-1.805,0.138-3.385-0.436-4.905-1.502
	c0.715-1.55,1.903-2.364,3.411-2.465c1.492-0.103,2.013,1.162,2.537,2.31C17.984,54.076,17.499,54.529,16.429,54.612z
	 M20.377,72.801c-1.334-0.646-2.338-1.586-2.373-3.194c-0.035-1.554,0.868-2.571,2.387-2.33c1.407,0.224,2.822,0.726,4.083,1.39
	c0.618,0.325,0.895,1.297,1.426,2.132c-0.51,0.812-0.795,1.672-1.39,2.128C23.177,73.952,21.73,73.459,20.377,72.801z
	 M35.051,95.499c-0.478,1.224-1.818,1.578-3.131,0.827c-1.199-0.688-2.263-2.965-1.784-4.248c0.242-0.647,0.937-1.126,1.176-1.398
	C34.13,90.756,35.866,93.406,35.051,95.499z M34.562,82.194c-1.672,1.179-3.542,1.422-5.483,0.913
	c-3.274-0.857-4.345-4.26-1.973-6.677c0.763-0.777,2.161-0.931,3.538-1.478c1.47,0.688,3.094,1.124,4.3,2.085
	C36.775,78.495,36.486,80.839,34.562,82.194z M35.886,68.136c-0.549-1.171-0.421-2.766,0.813-3.525
	c1.646-1.012,3.44-2.039,5.296-2.391c3.474-0.656,7.038-0.83,9.653-1.107c3.702,0.254,6.46,0.417,9.212,0.642
	c1.884,0.154,2.728,1.988,1.466,3.415c-0.791,0.896-1.885,1.638-2.987,2.126c-4.548,2.015-9.405,2.744-14.327,2.948
	c-2.24,0.092-4.519-0.04-6.732-0.379C37.389,69.729,36.261,68.934,35.886,68.136z M45.194,88.374
	c-0.022,1.724-0.835,2.618-2.363,2.592c-1.648-0.026-2.648-1.541-2.653-4.021c-0.004-1.191,0.903-2.014,2.22-2.017
	C43.821,84.924,45.216,86.642,45.194,88.374z M39.477,101.372c-0.067-0.776,0.354-1.828,0.934-2.377c1.059-1,2.339-1.802,3.9-0.658
	c1.019,0.747,1.392,1.564,0.333,2.439c-0.901,0.744-1.974,1.278-3.155,2.021C40.626,102.222,39.517,101.841,39.477,101.372z
	 M43.961,118.727c-0.607-0.2-0.996-1.062-1.483-1.629c0.311-1.373,0.382-2.444,1.844-2.399c0.964,0.032,2.011,0.19,2.072,1.496
	C46.445,117.281,44.868,119.025,43.961,118.727z M44.577,82.601c-1.679-2.811-0.949-5.208,2.176-6.133
	c3.055-0.903,6.271-1.254,8.822-1.736c2.13,0.276,3.618,0.317,5.023,0.682c3.569,0.922,4.884,3.804,3.422,7.216
	c-2.821,6.581-11.458,8.209-16.933,3.142C46.107,84.864,45.263,83.751,44.577,82.601z M53.28,107.495
	c-3.43-0.907-5.066-2.768-4.996-6.183c0.237-2.479,1.421-4.956,3.923-6.663c2.026-1.38,4.315-1.341,5.787,0.575
	c1.365,1.778,2.631,3.908,3.068,6.061C61.941,105.616,57.854,108.703,53.28,107.495z M52.292,136.225l-4.503-6.549
	C50.901,130.962,52.816,133.747,52.292,136.225z M53.229,118.366c-1.236-1.791-0.717-3.197,1.411-3.528
	c2.391-0.373,4.685,0.013,6.928,1.424c-0.767,2.31-2.248,3.601-4.49,3.976C55.379,120.524,54.155,119.708,53.229,118.366z
	 M55.926,149.383l-1.701-4.117c1.17-0.069,2.904,1.535,3.185,2.844C56.918,148.555,56.466,149.311,55.926,149.383z M58.36,128.469
	c3.379-2.189,8.979,0.311,9.638,4.302c0.402,2.429-1.478,4.031-4.721,4.218c-1.672-0.602-3.483-0.966-4.984-1.854
	C55.598,133.541,55.722,130.178,58.36,128.469z M64.176,168.373c-2.165,0.005-4.067-1.402-4.549-3.372
	c-0.422-1.72,0.951-4.616,2.597-5.31c0.355-0.149,0.947-0.115,1.265,0.089c1.749,1.129,3.453,2.325,5.148,3.534
	c0.174,0.122,0.265,0.483,0.253,0.729C68.778,166.25,66.458,168.365,64.176,168.373z M70.557,192.769
	c1.349-0.85,2.471-0.326,3.58,0.431c1.087,0.745,1.24,1.833,0.944,3.003c-0.771,3.037-6.854,7.422-10.274,7.341
	C64.923,198.973,66.58,195.279,70.557,192.769z M63.286,209.145c0.275,1.665,0.664,3.324,0.758,5.001
	c0.029,0.508-0.756,1.062-1.167,1.596L63.286,209.145z M59.871,221.661l1.888-2.154c1.939,1.096,2.545,2.104,1.643,2.932
	C62.211,223.535,61.206,222.312,59.871,221.661z M63.504,233.855c-0.269-1.325-0.242-2.711-0.345-4.1l2.651,5.475
	C64.605,235.562,63.73,234.977,63.504,233.855z M68.033,242.944c-0.438,1.086,0.267,2.944-1.769,2.972
	c-0.938,0.014-2.116-0.251-2.003-1.723c0.147-1.928,1.209-3.322,2.445-3.265C68.079,240.996,68.226,241.821,68.033,242.944z
	 M69.821,258.39c0.21-1.425,0.296-2.501,0.556-3.534l0.287,6.964C70.215,260.629,70.038,259.338,69.821,258.39z M68.948,212.659
	c-0.118-2.286,1.114-3.912,2.809-5.793c1.32,2.104,2.15,4.026,1.841,6.235c-0.179,1.277-0.947,2.226-2.414,2.068
	C69.744,215.012,69.021,214.101,68.948,212.659z M71.616,224.233l0.517-5.967c0.183,1.734,0.414,3.466,0.497,5.202
	C72.642,223.726,71.758,224.322,71.616,224.233z M71.753,227.947c1.312,0.218,2.347,0.171,3.134,0.591
	c0.603,0.32,1.003,1.19,1.271,1.896L71.753,227.947z M77.306,243.343c-0.173,0.331-0.971,0.715-1.148,0.591l-1.383-4.476
	C76.452,239.599,78.01,242.012,77.306,243.343z M80.987,255.129c0.141,0.53-0.379,1.234-0.597,1.861l-2.832-5.331
	C79.43,252.507,80.568,253.555,80.987,255.129z M78.774,267.369c2.134-2.021,2.894-2.074,5.119-0.08
	c2.277,2.037,2.388,2.223,2.372,3.959L78.774,267.369z M87.566,249.574c-3.862-4.802-3.341-9.542,1.477-13.433
	c3.125-2.523,6.747-4.11,10.512-5.339c8.758-2.855,17.734-4.407,26.977-4.176c0.677,0.018,1.357,0.045,2.029,0.124
	c0.5,0.059,0.991,0.205,1.862,0.396c-11.329,4.577-20.14,12.018-28.575,20.021c-1.74,1.651-3.767,3.09-5.869,4.25
	C92.768,253.188,89.849,252.413,87.566,249.574z M88.489,261.422c1.603,0.177,3.249,1.62,3.521,3.093L88.489,261.422z
	 M97.834,280.155c-2.544,0.447-4.586-0.155-6.293-1.887c-1.126-1.14-0.822-2.435,0.734-3.078c2.231-0.925,5.232,0.95,5.551,3.481
	C97.882,279.112,97.834,279.564,97.834,280.155z M96.544,269.362c0.561-0.221,1.116-0.624,1.681-0.638
	c3.429-0.074,4.845,1.03,5.042,3.945L96.544,269.362z M111.757,286.305c-3.054-0.057-5.383-1.069-6.813-3.969
	c1.755-0.936,3.384-0.433,4.924,0.351C111.236,283.383,112.205,284.418,111.757,286.305z M113.413,279.283
	c-1.08-0.09-2.182-0.481-3.171-0.955c-1.411-0.678-1.648-2.334-0.381-3.251c1.033-0.748,2.361-1.091,3.559-1.612
	c2.186,0.334,3.43,1.317,3.418,2.905C116.827,278.07,115.351,279.442,113.413,279.283z M104.738,263.076
	c-2.294-2.452-3.064-5.211-2.197-8.417c1.26-4.66,4.348-8.136,7.695-11.36c6.677-6.434,14.221-11.724,22.533-15.791
	c4.896-2.394,10.065-4.232,15.613-6.529c-0.07,1.392,0.099,2.549-0.221,3.548c-1.062,3.324-2.102,6.682-3.509,9.865
	c-4.052,9.149-9.087,17.772-14.243,26.346C125.234,269.34,110.643,269.385,104.738,263.076z M125.549,289.418
	c-2.395,0.257-4.284-0.541-5.45-3.021c2.054-0.908,4.042-0.96,5.869-0.227c0.623,0.252,0.858,1.602,1.096,2.5
	C127.096,288.786,126.101,289.357,125.549,289.418z M121.636,278.933c-0.502-0.708-0.453-1.24,0.398-1.594
	c2.552-1.062,7.366,0.191,9.004,2.446c0.564,0.778,0.869,1.748,1.291,2.632C129.531,283.628,123.005,280.858,121.636,278.933z
	 M131.692,267.88c0.4-3.035,1.138-6.148,2.396-8.924c2.678-5.902,6.033-11.499,8.666-17.422c2.812-6.325,5.205-12.844,7.566-19.357
	c0.638-1.765,1.488-3.111,2.998-4.101c4.114-2.687,8.252-5.337,12.354-8.04c9.765-6.444,18.79-13.73,26.024-23.037
	c0.1-0.125,0.251-0.208,0.549-0.451c1.003,3.208,0.432,6.141-0.336,9.029c-1.949,7.327-5.349,14.037-9.312,20.418
	c-10.82,17.404-21.207,35.105-33.632,51.46c-1.718,2.263-3.777,4.397-6.069,6.046c-1.532,1.104-3.747,1.676-5.676,1.726
	C133.561,275.321,131.131,272.146,131.692,267.88z M136.207,292.58c-1.107-0.398-2.359-1.151-2.907-2.115l5.154-1.443
	C138.445,290.986,137.155,292.919,136.207,292.58z M136.053,283.173c1.287-2.223,3.372-2.981,5.787-3.034
	c1.59-0.033,1.824,1.303,2.081,2.424c0.295,1.287-0.156,2.311-1.477,2.841C140.447,286.204,137.562,285.222,136.053,283.173z
	 M142.682,290.534l9.041-2.599C148.921,290.332,145.715,289.912,142.682,290.534z M165.716,273.592
	c-1.64,2.883-4.072,5.376-6.428,7.765c-1.488,1.51-3.594,2.09-5.82,1.408c-2.421-0.74-3.832-2.75-3.213-5.553
	c0.724-3.28,1.463-6.71,3.024-9.628c4.126-7.703,8.571-15.243,13.138-22.698c3.854-6.293,8.057-12.374,12.104-18.548
	c0.114-0.02,0.229-0.039,0.343-0.058c0,1.873,0.184,3.771-0.028,5.62C177.147,246.637,173.071,260.666,165.716,273.592z
	 M198.103,201.597c-0.572,6.598-2.466,12.872-5.252,18.812c-4.591,9.791-9.476,19.44-14.429,29.546
	c0.863-8.476,1.642-16.47,2.512-24.451c0.434-3.962,2.301-7.4,4.319-10.746c3.932-6.521,8-12.966,10.47-20.243
	c0.342-1.008,0.682-2.016,1.021-3.023C198.197,194.777,198.401,198.162,198.103,201.597z"/>
</svg>
