<?xml version="1.0" encoding="utf-8"?>
<!-- Generator: Adobe Illustrator 17.0.0, SVG Export Plug-In . SVG Version: 6.00 Build 0)  -->
<!DOCTYPE svg PUBLIC "-//W3C//DTD SVG 1.1//EN" "http://www.w3.org/Graphics/SVG/1.1/DTD/svg11.dtd">
<svg version="1.1" id="Layer_3" xmlns="http://www.w3.org/2000/svg" xmlns:xlink="http://www.w3.org/1999/xlink" x="0px" y="0px"
	 width="200px" height="400px" viewBox="0 0 200 400" enable-background="new 0 0 200 400" xml:space="preserve">
<linearGradient id="SVGID_1_" gradientUnits="userSpaceOnUse" x1="14.228" y1="184.967" x2="199.999" y2="184.967">
	<stop  offset="0" style="stop-color:#000000"/>
	<stop  offset="0.9912" style="stop-color:#FF0000"/>
</linearGradient>
<path fill="url(#SVGID_1_)" d="M199,174.234c-0.658-0.796-3.026-3.323-3.128-3.547c-1.974-4.322-3.953-8.643-5.895-12.979
	c-11.046-24.665-25.305-47.146-46.018-64.843c-12.192-10.417-24.756-20.493-37.849-29.735C90.123,51.844,72.768,42.844,54.076,36.7
	c-4.232-1.391-8.573-2.452-12.863-3.664c-4.112,0-8.224,0-12.336,0c-2.257,1.107-4.679,1.971-6.739,3.369
	c-4.952,3.361-6.528,8.534-6.999,14.192c-0.283,3.4-0.606,6.797-0.911,10.195c0,10.28,0,20.56,0,30.84
	c0.197,0.472,0.525,0.931,0.571,1.416c1.352,14.231,6.756,26.703,15.577,37.946c1.729,2.204,1.674,5.925,2.101,8.994
	c0.295,2.12-0.509,4.467,0.057,6.463c3.661,12.913,8.386,25.4,16.792,36.095c9.307,11.841,21.459,18.152,36.667,17.886
	c5.147-0.09,10.285-0.745,15.492-1.146c-9.562,8.654-19,17.323-28.58,25.832c-10.781,9.577-16.17,21.597-16.958,35.882
	c-0.759,13.759,2.282,27.06,4.429,40.5c1.129,7.065,4.297,12.577,9.739,16.877c17.93,14.163,37.885,21.301,61.017,17.516
	c27.359-4.476,45.428-22.581,45.329-51.055c-0.025-7.224,1.994-13.968,5.424-20.268c2.394-4.398,4.967-8.7,7.539-12.998
	c3.666-6.124,6.295-12.558,7.282-19.724c0.722-5.245,2.169-10.39,3.293-15.579L199,174.234z"/>
<g>
	<polygon fill="#000000" points="178.494,251.105 178.494,251.105 178.494,251.105 	"/>
	<path fill="#000000" d="M199.872,174.073c-0.658-0.796-3.026-3.323-3.128-3.547c-1.974-4.322-3.953-8.643-5.895-12.979
		c-11.046-24.665-25.305-47.146-46.018-64.843c-12.192-10.417-24.756-20.493-37.849-29.735
		C90.995,51.683,73.64,42.682,54.949,36.539c-4.232-1.391-8.573-2.452-12.863-3.664c-4.112,0-8.224,0-12.336,0
		c-2.257,1.107-4.679,1.971-6.739,3.369c-4.952,3.361-6.528,8.534-6.999,14.192c-0.283,3.4-0.606,6.797-0.911,10.195
		c0,10.28,0,20.56,0,30.84c0.197,0.472,0.525,0.931,0.571,1.416c1.352,14.231,6.756,26.703,15.577,37.946
		c1.729,2.204,1.674,5.925,2.101,8.994c0.295,2.12-0.509,4.467,0.057,6.463c3.662,12.913,8.386,25.4,16.792,36.095
		c9.307,11.841,21.459,18.152,36.667,17.886c5.147-0.09,10.285-0.745,15.492-1.146c-9.562,8.654-19,17.323-28.58,25.832
		c-10.781,9.577-16.17,21.597-16.958,35.882c-0.759,13.759,2.282,27.06,4.429,40.5c1.129,7.065,4.297,12.577,9.739,16.877
		c17.93,14.163,37.885,21.301,61.017,17.516c27.359-4.476,45.428-22.581,45.329-51.055c-0.025-7.224,1.994-13.968,5.424-20.268
		c2.394-4.398,4.967-8.7,7.539-12.998c3.666-6.124,6.295-12.558,7.282-19.724c0.722-5.245,2.169-10.39,3.293-15.579L199.872,174.073
		z M182.754,160c7.544,8.547,9.279,12.187,8.457,17.861c-6.117-2.031-14.031-8.558-13.497-11.026
		c1.775,0.706,3.55,1.411,5.325,2.117c0.359-0.388,0.717-0.776,1.076-1.164c-2.323-2.976-4.647-5.952-7.181-9.198
		C179.087,159.115,180.224,163.407,182.754,160z M175.317,182.737c2.434,0.077,4.616,0.046,3.056-4.535
		c3.363,2.867,5.726,4.881,8.796,7.498c-12.325,0-23.486,0-34.646,0c0.01-0.365,0.019-0.731,0.029-1.096
		c3.762,0.266,7.521,0.602,11.287,0.758c1.239,0.051,3.336,0.003,3.61-0.625C169.302,180.491,172.552,182.649,175.317,182.737z
		 M152.384,231.991c2.139-3.412,4.843-6.668,7.933-9.238c4.621-3.842,9.83-6.97,14.698-10.527c2.17-1.586,4.118-3.475,6.167-5.227
		c-0.227-0.351-0.453-0.702-0.68-1.053c-0.999,0.351-2.147,0.493-2.975,1.084c-7.915,5.648-17.016,8.16-26.324,10.194
		c-2.248,0.491-4.429,1.287-6.648,1.918c-1.529,0.435-3.595,1.648-4.025-0.893c-0.261-1.543,0.384-4.405,1.372-4.799
		c5.292-2.115,10.823-3.634,16.266-5.373c3.341-1.067,6.702-2.082,10.004-3.26c4.879-1.74,9.714-3.604,15.15-5.632
		c0.29,2.065,0.123,3.061,0.542,3.51c3.189,3.416,0.692,5.679-1.511,7.998c-1.059,1.115-2.228,2.125-3.319,3.211
		c-6.614,6.589-13.193,13.212-19.841,19.766c-2.31,2.277-4.786,4.388-7.186,6.574c-0.469-0.203-0.937-0.406-1.406-0.609
		C151.147,237.057,151.07,234.087,152.384,231.991z M149.737,225.715c-1.263-1.329-1.119-2.99,0.647-4.375
		c4.151-3.256,8.776-5.456,15.147-6.07C159.822,219.045,154.939,222.275,149.737,225.715z M123.926,195.676
		c1.273,6.187,1.273,6.181,7.68,5.76c0.894-0.059,1.794-0.02,2.69-0.041c4.306-0.097,5.858-1.854,5.409-6.312
		c3.185-0.277,6.374-0.798,9.553-0.745c2.137,0.036,4.243,1.171,6.393,1.298c2.474,0.146,5.149,0.221,7.442-0.55
		c5.681-1.911,11.37-3.142,17.373-2.448c1.342,0.155,2.67,0.432,4.047,1.076c-5.446,3.419-11.426,5.216-17.63,5.608
		c-6.588,0.415-12.08,2.798-17.303,6.633c-1.784,1.31-4.522,2.075-6.739,1.915c-11.873-0.856-23.72-2.079-35.574-3.193
		c-0.731-0.069-1.448-0.288-2.826-0.572C109.348,196.311,116.776,196.41,123.926,195.676z M119.821,189.226
		c0.001-0.329,0.001-0.659,0.002-0.988c2.779,0,5.565-0.111,8.337,0.03c3.05,0.155,6.087,0.541,9.13,0.826
		c0.008,0.044,0.015,0.088,0.023,0.132C131.482,189.226,125.651,189.226,119.821,189.226z M133.451,231.583
		c3.178-2.557,5.422-3.47,10.627-2.681c-1.721,2.077-2.719,3.878-4.225,4.995c-5.839,4.331-11.835,8.451-17.785,12.631
		c-1.145,0.805-2.273,1.729-3.554,2.214c-0.94,0.356-2.118,0.086-3.19,0.094c0.156-1.303,0.049-2.723,0.559-3.868
		c0.359-0.807,1.565-1.23,2.378-1.844C123.337,239.293,128.498,235.567,133.451,231.583z M124.117,225.183
		c1.246-1.031,2.248-2.46,3.075-3.875c1.724-2.951,3.722-3.194,6.259-1.068c1.465,1.228,3.006,2.365,5.121,4.018
		c-5.503,3.858-9.895,8.955-17.095,10.571C120.45,230.545,121.184,227.609,124.117,225.183z M123.913,261.643
		c0.804,0.103,1.875,2.293,1.908,3.549c0.17,6.383-6.09,12.945-12.813,13.808c-0.492-2.477-0.722-5.038-1.532-7.4
		c-1.491-4.35,1.668-7.353,3.774-9.674C116.633,260.402,120.972,261.267,123.913,261.643z M119.245,255.128
		c-0.258-0.355-0.515-0.709-0.773-1.064c6.57-5.402,13.14-10.805,19.782-16.267c3.082,5.287,3.082,5.287,10.139,3.187
		C148.239,247.576,129.363,256.735,119.245,255.128z M158.653,158.743c-7.532-5.891-14.76-11.544-22.563-17.646
		c8.047-3.9,15.292,0.562,26.357,10.663C161.347,153.785,160.213,155.873,158.653,158.743z M168.906,140.155
		c-2.835-1.61-3.425-0.259-2.895,2.57c-0.433-0.202-0.866-0.404-1.299-0.605c-0.135-1.585-0.269-3.169-0.404-4.754
		c1.506,0.533,3.011,1.066,4.517,1.599C168.852,139.361,168.879,139.758,168.906,140.155z M161.058,123.73
		c0.868-0.677,2.706-0.986,3.654-0.504c2.025,1.031,4.557,2.082,3.261,5.446c-0.396,1.029,0.14,2.416,0.331,4.566
		c-2.733-2.348-5.073-4.096-7.035-6.197C160.645,126.373,160.536,124.137,161.058,123.73z M146.568,99.391
		c2.718,4.404,4.983,8.075,7.248,11.746c-0.144,0.326-0.289,0.652-0.433,0.977c-1.922-0.51-4.695-0.406-5.595-1.653
		C145.763,107.653,144.142,104.251,146.568,99.391z M147.958,115.013c-0.181,0.512-0.362,1.023-0.544,1.535
		c-2.327-0.335-4.691-0.516-6.965-1.069c-1.191-0.29-2.227-1.227-3.327-1.881c-5.285-3.144-9.573-0.971-10.253,5.25
		c-0.411,3.761-0.711,7.533-1.037,11.046c-4.846-4.866-9.579-9.235-13.816-14.041c-2.016-2.287-3.498-5.27-4.469-8.189
		c-0.916-2.754,0.889-4.404,3.776-4.271c2.423,0.112,4.83,0.555,7.248,0.816c4.227,0.456,5.328-0.742,5.08-4.846
		c-0.098-1.629,0.56-3.304,0.874-4.959c1.693,0.649,3.649,0.961,5.012,2.029c1.777,1.393,3.667,3.15,4.479,5.166
		c2.034,5.048,6.151,7.682,10.377,10.389C145.695,112.821,146.777,113.995,147.958,115.013z M38.21,84.019c4.24,0,8.48,0,12.719,0
		c0.14,0.269,0.279,0.539,0.419,0.808c-3.255,1.347-6.51,2.695-9.936,4.113c0.366,1.145,0.743,2.322,1.608,5.03
		c-4.861-0.452-8.925-0.829-12.989-1.207c-0.11-0.67-0.221-1.34-0.331-2.01c2.051-0.803,4.228-1.39,6.107-2.487
		c1.235-0.721,2.04-2.179,3.037-3.307C38.633,84.646,38.422,84.333,38.21,84.019z M64.414,99.708
		c-6.283-0.736-12.384-1.45-18.66-2.185c0.528-4.303,3.647-4.12,6.313-4.269C59.752,92.823,62.541,94.275,64.414,99.708z
		 M58.353,84.823c8.927,1.173,17.57,2.136,26.145,3.521c3.358,0.542,6.759,1.644,9.794,3.177c4.555,2.301,5.21,7.767,1.565,11.335
		c-0.629,0.616-2.512,0.759-3.298,0.277c-6.789-4.168-14.448-3.857-21.917-4.71c-1.856-0.212-3.7-1.4-5.332-2.471
		c-1.685-1.105-3.018-2.735-4.66-3.921C57.597,89.827,57.226,88.901,58.353,84.823z M39.19,77.895
		c0.828-1.117,1.475-2.96,2.518-3.221c3.684-0.923,6.883,0.511,10.158,3.452c-3.58,0.359-6.457,0.783-9.345,0.869
		C41.423,79.028,40.301,78.285,39.19,77.895z M44.149,116.132c0.581-1.072,1.48-1.971,2.048-3.048
		c0.27-0.512,0.089-1.26,0.119-1.901c0.461-9.869,0.461-9.869,10.308-9.731c2.437,0,4.986-0.447,7.278,0.129
		c2.189,0.551,4.679,1.716,6.025,3.413c2.408,3.037,1.016,6.226-2.73,7.403c-3.042,0.956-6.232,1.516-9.157,2.733
		c-1.319,0.549-2.15,2.268-3.203,3.457c1.396,0.953,2.708,2.546,4.202,2.741c4.948,0.646,9.962,0.788,14.951,1.125
		c1.279,0.086,2.658-0.089,3.807,0.344c1.036,0.39,1.822,1.446,2.717,2.209c-0.855,0.658-1.737,1.912-2.56,1.874
		c-4.62-0.212-8.741,0.842-12.673,3.356c-1.241,0.794-3.245,0.423-4.904,0.529c-2.468,0.159-3.623-1.01-4.129-3.478
		c-1.18-5.76-1.294-5.733-7.229-5.75c-1.282-0.004-2.623,0.169-3.828-0.15c-0.926-0.245-2.356-1.122-2.367-1.74
		C42.804,118.479,43.547,117.244,44.149,116.132z M79.457,119.431c-1.24-0.078-2.406-1.319-3.607-2.025
		c0.977-1.036,1.936-2.089,2.935-3.103c1.309-1.329,2.882-2.464,3.931-3.968c2.773-3.978,4.022-4.483,8.696-2.873
		c1.211,0.417,2.413,0.946,3.663,1.15c9.828,1.598,14.337,8.073,15.943,17.339c-5.619,2.186-11.312,1.591-16.127-1.574
		C90.054,121.195,85.055,119.784,79.457,119.431z M92.539,59.933c1.075,0.393,2.237,0.637,3.211,1.205
		c4.816,2.81,9.418,6.038,14.399,8.505c11.288,5.591,19.924,14.193,27.743,23.733c1.396,1.703,1.789,4.229,2.645,6.374
		c-0.335,0.175-0.671,0.35-1.006,0.525c-15.821-13.074-31.642-26.148-47.463-39.222C92.226,60.68,92.383,60.306,92.539,59.933z
		 M80.791,56.287c0.412-0.182,0.824-0.365,1.236-0.547c1.065,1.139,2.767,2.131,3.07,3.445c0.733,3.181,3.153,4.28,5.377,6.042
		c4.443,3.521,8.417,7.634,12.584,11.503c-0.159,0.148-0.318,0.296-0.476,0.444c-4.625-1.599-9.246-3.21-13.876-4.794
		c-2.646-0.905-5.433-1.509-7.921-2.727c-2.129-1.042-3.923-2.768-6.376-4.566c3.206-1.137,6.054-1.328,7.205-2.825
		C82.475,61.143,81.146,58.34,80.791,56.287z M68.133,68.162c0.134-0.296,0.269-0.592,0.403-0.888
		c3.049,1.312,6.047,2.762,9.163,3.89c2.126,0.769,4.39,1.26,6.634,1.58c10.551,1.506,18.882,7.638,27.509,13.131
		c0.686,0.437,1.199,1.673,1.161,2.509c-0.021,0.455-1.378,1.221-2.122,1.209c-4.057-0.066-8.236,0.232-12.139-0.641
		c-8.368-1.872-16.593-4.384-24.876-6.633c-2.592-0.704-5.244-1.245-7.756-2.168c-1.514-0.556-3.368-1.39-4.082-2.655
		c-1.186-2.102-2.33-4.771-1.981-6.961c0.17-1.07,3.722-1.662,5.788-2.335C66.53,67.971,67.363,68.162,68.133,68.162z M48.67,41.732
		c3.756-1.45,9.256,2.901,9.74,7.892c-3.96-0.562-7.599-0.932-11.157-1.683c-0.944-0.199-2.443-2.151-2.328-2.31
		C45.987,44.169,47.121,42.33,48.67,41.732z M40.859,53.018c6.716,0.308,13.403,1.34,20.077,2.284
		c0.796,0.112,1.447,1.244,2.166,1.903c-0.065,0.465-0.13,0.929-0.195,1.394c-2.941,0.296-5.882,0.591-9.657,0.971
		c1.705,1.525,3.055,2.734,4.406,3.942c-0.1,0.349-0.2,0.697-0.3,1.046c-2.458-0.427-4.915-0.854-6.875-1.195
		c-3.882,3.609-7.273,7.738-11.582,10.362c-2.205,1.343-6.05-0.009-9.683-0.166c3.296-6.723,6.674-11.797,14.648-11.152
		c-0.114-0.319-0.227-0.638-0.341-0.958c-0.896-0.269-1.906-0.359-2.663-0.845c-1.506-0.967-2.873-2.151-4.298-3.245
		C37.997,55.836,39.495,52.955,40.859,53.018z M25.324,44.809c3.536,0,7.071,0,10.607,0c-0.007,0.253-0.013,0.505-0.02,0.758
		c-3.54,0-7.08,0-10.62,0C25.301,45.315,25.312,45.062,25.324,44.809z M20.954,53.648c1.993-0.574,4.144-0.601,6.235-0.833
		c0.072,0.494,0.144,0.987,0.216,1.481l-7.277,2.489C20.401,55.649,20.432,53.798,20.954,53.648z M17.89,68.161
		c1.58-0.555,3.085-1.324,5.311-2.299c2.019,1.574,1.609,4.003-0.275,5.112c-1.659,0.976-4.576,1.181-6.265,0.354
		C14.975,70.502,16.043,68.81,17.89,68.161z M17.606,76.556c1.437-0.894,3.335-1.048,4.424-1.346
		c1.595,0.174,2.633,0.016,3.341,0.427c1.095,0.635,1.965,1.659,2.93,2.518c-0.947,0.669-1.806,1.608-2.859,1.949
		c-1.928,0.625-3.96,1.14-5.969,1.223c-1.11,0.046-2.991-0.668-3.208-1.42C15.99,78.953,16.731,77.101,17.606,76.556z
		 M17.769,93.031c-2.2-0.472-1.434-2.49,0.047-3.352c2.043-1.188,4.338-1.943,6.525-2.883c0.414,0.217,0.828,0.434,1.242,0.651
		c-0.571,1.463-0.739,3.594-1.804,4.237C22.076,92.711,19.632,93.43,17.769,93.031z M24.531,103.641
		c-1.315-1.535-2.384-3.357-3.12-5.235c-0.115-0.295,1.906-1.749,3.111-2.145c1.157-0.38,2.536-0.082,4.959-0.082
		c0.521,0.06,2.239,0.044,3.801,0.529c0.764,0.237,1.681,1.388,1.714,2.159c0.029,0.696-0.913,1.694-1.673,2.11
		c-1.879,1.027-3.86,1.906-5.879,2.62C26.54,103.916,24.945,104.124,24.531,103.641z M31.245,119.39
		c-2.77,0.969-4.75,0.111-5.122-3.295c-0.267-2.447,3.563-7.246,5.874-7.458c2.133-0.195,5.553,2.994,5.672,5.289L31.245,119.39z
		 M33.36,126.409c2.401-1.008,4.71-2.405,7.19-2.845c1.32-0.234,3.686,0.814,4.247,1.944c0.937,1.888,0.784,4.149-1.789,5.495
		C38.184,133.526,36.499,132.91,33.36,126.409z M37.134,150.673c-1.382-4.526,2.852-11.845,7.549-12.467
		c0.897-0.119,2.799,1.674,2.983,2.792C48.766,147.67,44.845,151.146,37.134,150.673z M60.086,173.815
		c-1.982,2.637-4.237,5.068-6.373,7.562c-4.811-2.805-5.143-4.556-1.495-8.08c1.376-1.33,2.762-2.872,4.452-3.574
		c1.069-0.444,2.831,0.268,4.011,0.939C61.005,170.846,60.695,173.006,60.086,173.815z M59.585,153.456
		c-1.438,0.203-2.82,0.8-4.226,1.227c0.42,1.245,0.834,2.492,1.263,3.734c0.288,0.835,0.955,1.717,0.839,2.484
		c-0.672,4.428-4.399,4.114-7.469,4.29c-2.225,0.127-5.153,0.716-5.571-2.997c-0.459-4.072,0.812-6.702,4.121-6.94
		c3.429-0.247,4.377-1.902,4.341-4.948c-0.036-3.061,0.535-5.585,3.971-7.143c1.232-0.558,1.642-3.705,1.793-5.717
		c0.376-5.022,0.467-5.105,5.428-4.825c1.95,0.11,3.957-0.542,5.917-0.945c1.115-0.229,2.277-1.1,3.263-0.903
		c1.939,0.387,5.096,0.976,5.382,2.089c0.682,2.654,0.974,6.083-2.242,7.832c-2.006,1.091-4.367,1.519-6.408,2.56
		c-2.036,1.037-3.872,2.467-5.795,3.725c0.166,0.566,0.333,1.132,0.499,1.697c2.364,0.192,4.727,0.405,7.094,0.571
		c3.699,0.259,7.423,0.311,11.092,0.793c2.273,0.298,3.995,2.008,3.129,4.318c-0.398,1.061-2.617,1.866-4.087,2.009
		c-2.941,0.287-5.772-0.665-7.927,3.008c-0.751,1.28-5.204,0.438-7.962,0.373c-0.168-0.004-0.619-1.8-0.383-2.599
		c0.741-2.508-0.378-3.297-2.622-3.404C61.872,153.691,60.695,153.299,59.585,153.456z M65.059,181.359
		c0.611-1.321,1.02-2.799,1.889-3.921c0.923-1.192,2.312-2.014,3.444-3.055c3.009-2.766,3.389-5.883,0.591-9.247
		c4.739-2.674,7.883-8.227,14.538-4.409c0.526,2.064-0.695,3.694-2.736,4.813c-5.896,3.233-10.603,7.549-13.478,13.773
		c-0.543,1.175-1.95,1.951-2.958,2.911C65.918,181.936,65.489,181.648,65.059,181.359z M73.022,190.39
		c-0.632,1.031-2.095,1.553-3.182,2.305c-0.894-1.53-2.803-3.31-2.499-4.545c1.047-4.256,4.629-5.561,8.614-4.198
		C75.012,186.096,74.25,188.386,73.022,190.39z M76.163,195.553c1.311-0.478,2.136-0.747,2.935-1.078
		c1.027-0.426,2.313-0.647,2.999-1.401c3.098-3.405,13.731-5.249,17.594-2.816c0.58,0.365,0.89,1.159,1.34,1.776
		C92.98,196.244,81.871,198.641,76.163,195.553z M100.994,185.469c-2.688,0.104-5.423,0.172-8.073-0.201
		c-5.264-0.741-7.037-3.82-4.466-8.423c1.837-3.29,4.433-6.239,7.064-8.983c2.833-2.955,6.292-5.309,9.133-8.256
		c3.878-4.023,3.703-6.712-0.882-9.699c-2.456-1.6-5.569-2.238-8.442-3.129c-1.302-0.404-2.742-0.366-4.119-0.529
		c-0.132-0.352-0.263-0.703-0.395-1.055c5.782-5.805,12.19-10.697,20.417-12.698c1.426-0.347,3.179-0.254,4.556,0.251
		c10.129,3.711,17.076,11.301,23.795,19.134c-0.119,0.384-0.238,0.768-0.357,1.152c-6.785,0-13.57,0-21.156,0
		c3.129,2.675,7.886,3.495,19.81,4.072c6.766,0.327,13.236,1.649,18.854,6.048c-1.559,2.152-3.093,4.269-4.906,6.771
		c-4.693-1.737-10.397-1.513-12.886-8.131c-1.514-4.025-6.049-4.425-10.047-3.905c-3.644,0.474-6.767,1.905-7.171,6.225
		c-0.277,2.957-1.841,4.358-4.794,4.328c-0.894-0.009-1.811,0.054-2.681,0.246c-2.832,0.627-5.382,2.08-5.451,5.137
		c-0.072,3.183,3.085,3.682,5.365,3.873c5.232,0.438,10.508,0.448,15.765,0.432c1.189-0.003,2.674-0.507,3.512-1.312
		c4.34-4.17,9.683-4.123,15.386-4.101c-3.319,3.682-6.374,7.199-9.609,10.542c-0.584,0.604-1.903,0.639-2.894,0.684
		C124.547,184.487,112.772,185.015,100.994,185.469z M91.881,219.982c1.06-1.831,0.76-4.442,1.09-6.705
		c0.482-3.313,2.919-4.528,5.76-4.617c5.38-0.17,10.796-0.28,16.151,0.152c6.059,0.489,12.067,1.601,19.308,2.611
		c-2.451,1.826-4.178,2.989-5.764,4.32c-3.112,2.613-6.353,5.12-9.146,8.048c-2.395,2.51-4.604,4.432-8.434,4.458
		c-2.038,0.014-4.278,1.472-6.053,2.784c-4.461,3.298-9.4,3.151-15.189,3.089c2.184-4.703,1.621-8.107-3.185-9.637
		C88.404,222.931,90.805,221.84,91.881,219.982z M105.608,234.567c3.635-1.014,4.113-0.484,4.314,3.329
		c0.326,6.184-2.252,10.345-7.481,13.599c-3.842,2.391-7.089,5.739-10.601,8.66c4.521-1.993,8.98-4.154,13.613-5.838
		c0.927-0.337,2.834,0.862,3.714,1.86c1.052,1.191,1.744,2.874,2.076,4.452c0.162,0.771-0.735,1.869-1.338,2.681
		c-6.655,8.948-13.346,17.869-20.283,27.139c-0.493-0.223-1.436-0.531-2.252-1.041c-2.375-1.483-4.254-1.405-5.749,1.288
		c-0.534,0.962-1.454,1.854-2.411,2.409c-2.078,1.205-3.668,0.695-3.43-1.958c0.424-4.72,1.46-9.407-1.378-13.859
		c-0.291-0.457,0.926-2.181,1.758-2.996c4.573-4.478,9.243-8.856,13.88-13.268c-2.936,1.418-5.872,2.836-9.473,4.575
		c0.792-4.701,0.146-7.381-4.79-6.953c-2.304,0.199-3.34-2.499-1.511-3.957c1.938-1.545,1.41-2.918,0.965-4.705
		c-1.323-5.318-0.169-7.041,5.186-8.48C88.827,239.24,97.219,236.908,105.608,234.567z M71.337,231.642
		c0.633-1.101,3.194-1.093,4.875-1.591c0.45,1.979,1.34,3.983,1.234,5.932c-0.118,2.161-7.184,5.943-10.026,5.514
		C68.687,238.133,69.606,234.654,71.337,231.642z M64.992,246.935c0.853-0.283,2.8,0.602,3.195,1.44
		c1.712,3.631-0.051,8.236-3.602,10.208c-1.121,0.623-2.368,1.035-3.436,1.73c-0.929,0.604-1.686,1.472-2.699,2.385
		C56.138,257.249,59.574,248.731,64.992,246.935z M59.539,280.645c-1.468-2.336-1.155-7.453,1.155-10.336
		c1.108-1.383,2.462-2.582,3.782-3.779c1.565-1.419,3.631-2.293,4.943-0.26c0.929,1.44,1.28,3.826,0.779,5.445
		c-0.452,1.461-2.352,2.531-3.723,3.638C64.295,277.113,62.024,278.759,59.539,280.645z M69.822,302.542
		c-0.758,1.295-2.958,1.991-4.638,2.382c-0.662,0.154-2.373-1.204-2.442-1.977c-0.516-5.761-1.668-11.702,2.7-16.622
		c1.609,2.232,3.1,4.401,4.696,6.49C72.693,296.157,71.573,299.551,69.822,302.542z M73.278,309.81
		c0.123-2.548,0.722-5.071,1.087-7.609c0.474-3.297,4.054-6.02,7.184-5.436c3.123,0.582,4.384,3.403,3.087,7.384
		c-0.422,1.294-1.154,2.628-2.107,3.58c-2.627,2.626-5.447,5.061-8.68,8.019C73.647,313.864,73.18,311.824,73.278,309.81z
		 M91.599,317.17c-1.056,2.569-2.437,5.017-3.825,7.432c-0.951,1.652-3.715,1.442-4.707-0.428c-1.6-3.016-2.066-6.076,0.723-8.783
		c2.003-1.944,4.032-3.86,6.329-6.056C92.801,311.729,92.709,314.47,91.599,317.17z M110.083,333.596
		c-2.415,0.485-3.78-0.444-2.912-2.758c1.461-3.895,3.235-7.706,5.286-11.321c0.493-0.869,2.913-1.506,3.864-1.046
		c1.327,0.643,2.105,2.418,2.527,2.956C118.983,327.668,114.967,332.616,110.083,333.596z M126.542,332.691
		c-0.859,0.842-2.68,2.097-3,1.84c-1.079-0.864-2.196-2.26-2.357-3.568c-0.336-2.734,4.364-8.768,7.607-9.902
		C129.498,325.474,129.837,329.461,126.542,332.691z M136.958,332.159c-2.877-4.597-2.208-7.179,2.586-9.373
		C138.888,326.104,141.385,329.912,136.958,332.159z M137.887,307.71c-0.351,2.718-1.117,5.407-1.973,8.017
		c-0.226,0.69-1.49,1.039-2.277,1.544c-0.326-0.766-0.97-1.552-0.923-2.295c0.213-3.358-1.911-3.764-4.586-3.818
		c-2.024,2.531-4.087,5.111-6.928,8.664c-0.566-2.875-1.192-5.177-1.443-7.519c-0.523-4.873-0.43-4.793-5.393-4.163
		c-0.909,0.115-2.108-0.633-2.904-1.303c-3.612-3.044-6.903-2.144-8.448,2.168c-0.652,1.82-1.952,3.408-2.982,5.092
		c0.018-0.002,0.031,0.001,0.049-0.002l-0.004,0.004c0.001,0,0.001-0.001,0.002-0.001c0.003-0.003-0.129,0.13-0.129,0.13
		c1.142,0.066,2.321-0.029,3.419,0.226c3.802,0.882,4.62,3.286,2.338,6.402c-1.888,2.578-3.563,5.323-5.598,7.775
		c-0.702,0.846-2.892,1.719-3.215,1.395c-1.305-1.309-3.253-3.329-2.958-4.633c0.179-0.791,0.356-1.593,0.555-2.391
		c0.093-0.372,0.192-0.743,0.296-1.112c0.565-2.004,1.33-3.937,2.662-5.548c0.683-0.826,1.518-1.566,2.547-2.19
		c0.01-0.016,0.02-0.032,0.03-0.048c-1.987,0.225-2.411-0.953-2.354-2.31c0.008-0.196,0.026-0.395,0.051-0.594
		c0.588-4.738-0.782-8.173-5.613-9.894c-1.66-0.592-3.1-2.158-1.099-3.786c5.985-4.872,10.336-10.858,13.508-18.062
		c0.237,3.225,0.305,6.473,0.751,9.669c0.601,4.312,2.85,5.416,6.349,2.8c2.687-2.008,4.803-4.779,8.082-8.144
		c-1.24,3.139-2.056,5.36-2.992,7.529c-1.013,2.348-2.537,4.555-3.099,6.994c-0.534,2.319-0.115,4.858-0.115,8.241
		c4.688-2.96,5.524-6.687,6.351-10.592c0.596-2.814,1.672-5.559,2.833-8.204c0.441-1.005,1.719-1.644,2.615-2.449
		c0.442,0.085,0.884,0.171,1.326,0.256c0.426,4.807,0.852,9.614,1.305,14.727c3.616-1.157,5.669-3.311,6.479-6.663
		c0.452-1.869,0.604-3.851,1.335-5.596c0.383-0.914,1.724-1.427,2.632-2.12c0.504,1.018,1.508,2.076,1.432,3.049
		C139.313,295.217,138.693,301.477,137.887,307.71z M141.488,274.498c-2.041,2.119-3.825,4.497-5.954,6.516
		c-1.724,1.636-3.666,1.27-3.846-1.242c-0.42-5.859-2.356-12.666-0.116-17.405c3.129-6.619,9.821-11.299,16.64-14.7
		c0.51,0.375,1.02,0.749,1.53,1.124c-1.154,2.361-2.219,4.769-3.48,7.071c-2.372,4.33-1.732,8.694,2.364,12.438
		c0.628-1.306,1.472-2.405,1.67-3.611c0.414-2.52,0.686-5.097,0.659-7.647c-0.061-5.809,1.591-10.322,6.327-14.435
		c5.568-4.835,9.861-11.116,14.874-16.618c5.138-5.64,10.478-11.095,15.729-16.632c0.389,0.299,0.777,0.599,1.166,0.898
		c-0.906,1.754-1.684,3.589-2.739,5.248c-5.512,8.663-11.382,17.113-16.581,25.957c-6.964,11.846-12.274,24.475-16.14,37.689
		c-1.467,5.015-3.036,10-4.558,14.998c-0.591-0.056-1.183-0.112-1.774-0.168c0-2.766,0.145-5.542-0.037-8.297
		c-0.228-3.445-0.607-6.891-1.179-10.293c-0.165-0.983-1.085-2.345-1.909-2.556C143.429,272.654,142.223,273.735,141.488,274.498z
		 M178.494,265.458c-4.163,6.906-6.111,14.349-6.203,22.344c-0.081,7.044-1.492,13.781-4.887,19.991
		c-1.606,2.937-3.621,5.563-8.362,6.124c2.635-22.829,9.876-43.101,25.449-59.986C182.507,257.782,180.726,261.756,178.494,265.458z
		 M191.878,224.197c-0.191,0.85-0.409,1.689-0.651,2.52c-0.121,0.416-0.248,0.829-0.381,1.24c-0.797,2.467-1.802,4.86-2.945,7.202
		c-0.19,0.39-0.385,0.779-0.583,1.167c-2.571,5.038-5.736,9.862-8.797,14.722c0.034,0.018,0.067,0.036,0.101,0.054l0,0
		c-0.043,0-0.086,0.001-0.129,0.002c-0.945,1.87-1.787,3.812-2.691,5.712c-0.911,1.916-1.885,3.787-3.092,5.494
		c-9.207,13.024-13.794,27.642-16.06,43.225c-0.68,4.674-1.969,9.288-3.358,13.813c-0.453,1.475-2.261,3.727-3.186,3.607
		c-1.712-0.223-3.905-1.576-4.708-3.09c-3.153-5.938-2.443-12.351-1.11-18.762c0.268,1.902,0.345,3.86,0.874,5.687
		c0.318,1.1,1.34,1.996,2.046,2.983c0.978-0.86,2.551-1.559,2.834-2.608c1.436-5.31,2.594-10.699,3.746-16.082
		c3.224-15.052,8.377-29.313,17.078-42.142c0.325-0.479,0.574-1.008,0.847-1.522c-0.015-0.008-0.03-0.016-0.045-0.024
		c5.275-9.225,10.553-18.449,15.824-27.676c1.506-2.637,2.991-5.286,5.099-7.665C193.053,216.355,192.737,220.375,191.878,224.197z
		 M191.456,168.826c-3.047-6.704-6.095-13.407-9.142-20.111c0.697-0.284,1.393-0.567,2.09-0.851
		c2.863,6.763,5.727,13.526,8.59,20.29C192.481,168.378,191.969,168.602,191.456,168.826z"/>
</g>
</svg>
