<?xml version="1.0" encoding="utf-8"?>
<!-- Generator: Adobe Illustrator 17.0.0, SVG Export Plug-In . SVG Version: 6.00 Build 0)  -->
<!DOCTYPE svg PUBLIC "-//W3C//DTD SVG 1.1//EN" "http://www.w3.org/Graphics/SVG/1.1/DTD/svg11.dtd">
<svg version="1.1" id="Layer_5" xmlns="http://www.w3.org/2000/svg" xmlns:xlink="http://www.w3.org/1999/xlink" x="0px" y="0px"
	 width="200px" height="400px" viewBox="0 0 200 400" enable-background="new 0 0 200 400" xml:space="preserve">
<linearGradient id="SVGID_1_" gradientUnits="userSpaceOnUse" x1="-1460.0483" y1="1194.3494" x2="-1460.0483" y2="1497.2574" gradientTransform="matrix(1 0 0 1 1565.72 -1153.2549)">
	<stop  offset="0.4544" style="stop-color:#FF0000"/>
	<stop  offset="0.7526" style="stop-color:#FFFFFF"/>
</linearGradient>
<path fill="url(#SVGID_1_)" d="M199.919,172.201c0.069,0.062-0.073-0.01-0.139-0.129c-2.437-4.351-4.66-8.837-7.342-13.031
	c-3.875-6.064-8.018-11.966-12.165-17.852c-5.818-8.255-12.422-15.872-19.159-23.393c-7.286-8.132-14.897-15.93-22.976-23.258
	c-4.858-4.406-9.923-8.593-15.015-12.732c-4.435-3.605-8.971-7.094-13.585-10.466c-4.073-2.976-8.245-5.831-12.5-8.54
	c-5.469-3.48-10.932-7.01-16.641-10.065c-6.729-3.601-13.833-6.42-21.299-8.189c-4.193-0.993-8.372-2.106-12.617-2.811
	c-5.52-0.915-11.086-0.777-16.65-0.045c-4.851,0.637-9.742,1.021-14.049,3.681c-1.802,1.112-3.008,2.542-3.117,4.836
	c-0.076,1.597-0.463,3.199-0.876,4.754c-0.583,2.2-0.686,4.424,0.25,6.454c1.231,2.67,2.174,5.371,2.589,8.284
	c0.13,0.91,0.592,1.808,1.048,2.632c1.496,2.71,3.198,5.315,4.538,8.099c0.732,1.519,0.78,3.351,1.339,4.972
	c1.223,3.559,3.613,6.433,5.769,9.442c0.512,0.714,1.021,1.478,1.305,2.297c0.687,1.987,1.067,4.095,1.894,6.015
	c1.043,2.425,2.485,4.677,3.601,7.074c0.614,1.318,0.774,2.846,1.393,4.161c0.523,1.112-0.43,2.843,1.649,3.379
	c-2.219,1.729-1.643,3.892-1.266,6.007c0.422,2.364,1.603,4.412,2.573,6.575c1.431,3.192,1.563,6.709,0.969,10.207
	c-0.385,2.257,0.499,4.155,1.952,5.771c1.044,1.162,2.171,2.321,2.469,3.837c0.536,2.736,0.697,5.544,1.218,8.283
	c0.375,1.972,0.629,4.085,2.354,5.503c1.976,1.623,3.579,3.535,4.677,5.854c0.262,0.553,0.759,1.158,0.684,1.671
	c-0.163,1.104,0.502,1.388,1.202,1.896c0.931,0.677,2.094,1.425,2.456,2.401c0.51,1.381,1.519,2.089,2.509,2.89
	c0.537,0.435,1.25,0.651,1.884,0.967c1.798,0.899,3.519,2.042,5.412,2.638c2.619,0.824,5.347,1.379,8.068,1.784
	c2.871,0.427,5.785,0.633,8.688,0.772c2.405,0.115,4.833,0.136,7.229-0.058c3.423-0.276,6.821-0.902,10.244-1.169
	c4.575-0.355,9.165-0.518,13.748-0.742c1-0.049,2.005-0.008,3.009-0.008c0.008,0.149,0.017,0.299,0.028,0.45
	c-1.376,0.33-2.785,0.559-4.118,1.01c-5.671,1.92-11.323,3.887-16.97,5.873c-6.866,2.414-13.384,5.389-18.456,10.897
	c-1.722,1.87-2.982,3.899-3.665,6.338c0.438-0.357,0.725-0.966,1.178-1.142c0.522-0.203,1.271-0.189,1.771,0.048
	c0.318,0.151,0.641,1.019,0.486,1.324c-0.748,1.479-0.782,2.838,0.196,4.205c0.093,0.132,0.123,0.465,0.035,0.543
	c-0.928,0.845-1.484,2.046-2.764,2.565c-1.895,0.767-3.73,1.683-5.588,2.541c-0.25,0.114-0.51,0.239-0.718,0.416
	c-2.355,1.995-3.923,4.509-4.905,7.422c-0.532,1.577-0.71,3.154,0.073,4.656c0.205,0.393,1.102,0.863,1.356,0.721
	c1.522-0.853,2.693-0.766,3.564,0.859c0.197,0.367,0.413,0.723,0.634,1.073c0.68,1.079,1.176,2.37,2.096,3.18
	c1.428,1.257,1.703,1.812,0.403,3.246c-1.413,1.56-2.91,3.05-4.446,4.491c-2.797,2.625-3.416,5.714-2.096,9.236
	c0.203,0.541,0.629,0.996,0.871,1.367c1.221-0.779,2.249-1.434,3.127-1.993c0.998,0.512,1.94,0.817,2.666,1.397
	c2.181,1.742,3.176,4.277,4.264,6.743c1.228,2.783-0.586,4.737-1.896,6.762c-1.461,2.26-3.817,4.088-2.892,7.311
	c0.21,0.729,0.019,1.567,0.084,2.349c0.111,1.306,1.077,1.743,2.122,1.045c1.147-0.766,2.276-0.914,3.595-0.17
	c2.339,1.322,3.938,3.27,4.839,5.694c0.926,2.492,0.696,5.091-0.261,7.564c-1.586,4.104-4.438,7.423-6.93,10.964
	c-2.016,2.864-3.91,5.819-5.996,8.632c-2.47,3.33-5.072,6.563-7.649,9.812c-1.953,2.466-3.941,4.902-5.954,7.317
	c-0.336,0.403-0.993,0.548-1.306,0.959c-1.644,2.172-3.303,4.338-4.799,6.612c-0.888,1.35-2.369,2.636-1.37,4.598
	c0.028,0.055-0.052,0.175-0.099,0.256c-0.649,1.14-0.047,2.005,0.696,2.756c0.841,0.847,1.888,1.471,3.12,1.133
	c2.145-0.586,3.755-1.966,4.882-3.852c0.842-1.409,1.506-2.923,2.334-4.343c1.612-2.758,3.361-5.437,4.91-8.227
	c2.415-4.353,5.788-7.92,9.283-11.348c2.587-2.535,5.408-4.865,8.331-7.008c1.319-0.968,3.095-1.56,4.737-1.779
	c2.417-0.325,4.819-0.024,7.249,0.765c1.695,0.549,2.306,1.612,2.749,2.905c0.613,1.792,1.747,2.274,3.397,1.271
	c1.851-1.125,3.645-2.62,5.996-2.237c1.522,0.247,3.002,0.817,4.464,1.341c2.158,0.773,3.684,2.48,5.298,3.971
	c1.275,1.176,1.389,2.984,1.271,4.656c-0.048,0.662-0.736,1.254,0.262,1.808c0.576,0.318,0.972,1.181,1.532,1.269
	c1.603,0.248,3.286,0.562,4.784-0.491c2.015-1.411,4.074-2.762,6.022-4.255c1.136-0.867,2.295-1.826,3.082-2.989
	c0.815-1.203,2.301-2.313,1.723-4.07c-0.745-2.276,0.112-4.076,1.243-5.766c1.281,0.12,2.393,0.225,3.598,0.339
	c0.283-0.938,0.697-1.212,1.776-0.87c2.101,0.664,4.221,0.61,6.176-0.758c2.191-1.536,3.301-3.865,4.306-6.14
	c0.743-1.688,0.782-3.689,1.113-5.555c0.429-2.425,0.917-4.841,1.232-7.281c0.494-3.832,0.814-7.687,1.311-11.519
	c0.261-2.027,0.562-4.079,1.153-6.025c0.839-2.77,1.651-5.625,3.033-8.136c2.286-4.146,5.01-8.052,7.567-12.047
	c1.106-1.726,2.205-3.462,3.413-5.114c1.664-2.275,3.502-4.424,5.134-6.718c3.159-4.437,6.187-8.966,9.352-13.396
	c1.096-1.531,2.485-2.851,3.668-4.324c1.646-2.049,3.222-4.152,4.839-6.226c0.605-0.774,1.239-1.524,1.843-2.266
	c0.247,0.148,0.372,0.179,0.399,0.246c0.882,2.279,2.313,3.659,4.969,3.74"/>
<g>
	<path fill="#FFFFFF" d="M68.969,152.144c0.269-0.126,0.557-0.261,0.892-0.418C69.525,151.883,69.238,152.018,68.969,152.144z"/>
	<polygon fill="#FFFFFF" points="163.159,137.999 163.158,137.993 163.158,137.993 	"/>
	
		<rect x="163.169" y="138.008" transform="matrix(-0.6508 -0.7593 0.7593 -0.6508 164.5761 351.7143)" fill="#FFFFFF" width="0.009" height="0.001"/>
	<path fill="#020202" d="M199.919,172.201c0.069,0.062-0.073-0.01-0.139-0.129c-2.437-4.351-4.66-8.837-7.342-13.031
		c-3.875-6.064-8.018-11.966-12.165-17.852c-5.818-8.255-12.422-15.872-19.159-23.393c-7.286-8.132-14.897-15.93-22.976-23.258
		c-4.858-4.406-9.923-8.593-15.015-12.732c-4.435-3.605-8.971-7.094-13.585-10.466c-4.073-2.976-8.245-5.831-12.5-8.54
		c-5.469-3.48-10.932-7.01-16.641-10.065c-6.729-3.601-13.833-6.42-21.299-8.189c-4.193-0.993-8.372-2.106-12.617-2.811
		c-5.52-0.915-11.086-0.777-16.65-0.045c-4.851,0.637-9.742,1.021-14.049,3.681c-1.802,1.112-3.008,2.542-3.117,4.836
		c-0.076,1.597-0.463,3.199-0.876,4.754c-0.583,2.2-0.686,4.424,0.25,6.454c1.231,2.67,2.174,5.371,2.589,8.284
		c0.13,0.91,0.592,1.808,1.048,2.632c1.496,2.71,3.198,5.315,4.538,8.099c0.732,1.519,0.78,3.351,1.339,4.972
		c1.223,3.559,3.613,6.433,5.769,9.442c0.512,0.714,1.021,1.478,1.305,2.297c0.687,1.987,1.067,4.095,1.894,6.015
		c1.043,2.425,2.485,4.677,3.601,7.074c0.614,1.318,0.774,2.846,1.393,4.161c0.523,1.112-0.43,2.843,1.649,3.379
		c-2.219,1.729-1.643,3.892-1.266,6.007c0.422,2.364,1.603,4.412,2.573,6.575c1.431,3.192,1.563,6.709,0.969,10.207
		c-0.385,2.257,0.499,4.155,1.952,5.771c1.044,1.162,2.171,2.321,2.469,3.837c0.536,2.736,0.697,5.544,1.218,8.283
		c0.375,1.972,0.629,4.085,2.354,5.503c1.976,1.623,3.579,3.535,4.677,5.854c0.262,0.553,0.759,1.158,0.684,1.671
		c-0.163,1.104,0.502,1.388,1.202,1.896c0.931,0.677,2.094,1.425,2.456,2.401c0.51,1.381,1.519,2.089,2.509,2.89
		c0.537,0.435,1.25,0.651,1.884,0.967c1.798,0.899,3.519,2.042,5.412,2.638c2.619,0.824,5.347,1.379,8.068,1.784
		c2.871,0.427,5.785,0.633,8.688,0.772c2.405,0.115,4.833,0.136,7.229-0.058c3.423-0.276,6.821-0.902,10.244-1.169
		c4.575-0.355,9.165-0.518,13.748-0.742c1-0.049,2.005-0.008,3.009-0.008c0.008,0.149,0.017,0.299,0.028,0.45
		c-1.376,0.33-2.785,0.559-4.118,1.01c-5.671,1.92-11.323,3.887-16.97,5.873c-6.866,2.414-13.384,5.389-18.456,10.897
		c-1.722,1.87-2.982,3.899-3.665,6.338c0.438-0.357,0.725-0.966,1.178-1.142c0.522-0.203,1.271-0.189,1.771,0.048
		c0.318,0.151,0.641,1.019,0.486,1.324c-0.748,1.479-0.782,2.838,0.196,4.205c0.093,0.132,0.123,0.465,0.035,0.543
		c-0.928,0.845-1.484,2.046-2.764,2.565c-1.895,0.767-3.73,1.683-5.588,2.541c-0.25,0.114-0.51,0.239-0.718,0.416
		c-2.355,1.995-3.923,4.509-4.905,7.422c-0.532,1.577-0.71,3.154,0.073,4.656c0.205,0.393,1.102,0.863,1.356,0.721
		c1.522-0.853,2.693-0.766,3.564,0.859c0.197,0.367,0.413,0.723,0.634,1.073c0.68,1.079,1.176,2.37,2.096,3.18
		c1.428,1.257,1.703,1.812,0.403,3.246c-1.413,1.56-2.91,3.05-4.446,4.491c-2.797,2.625-3.416,5.714-2.096,9.236
		c0.203,0.541,0.629,0.996,0.871,1.367c1.221-0.779,2.249-1.434,3.127-1.993c0.998,0.512,1.94,0.817,2.666,1.397
		c2.181,1.742,3.176,4.277,4.264,6.743c1.228,2.783-0.586,4.737-1.896,6.762c-1.461,2.26-3.817,4.088-2.892,7.311
		c0.21,0.729,0.019,1.567,0.084,2.349c0.111,1.306,1.077,1.743,2.122,1.045c1.147-0.766,2.276-0.914,3.595-0.17
		c2.339,1.322,3.938,3.27,4.839,5.694c0.926,2.492,0.696,5.091-0.261,7.564c-1.586,4.104-4.438,7.423-6.93,10.964
		c-2.016,2.864-3.91,5.819-5.996,8.632c-2.47,3.33-5.072,6.563-7.649,9.812c-1.953,2.466-3.941,4.902-5.954,7.317
		c-0.336,0.403-0.993,0.548-1.306,0.959c-1.644,2.172-3.303,4.338-4.799,6.612c-0.888,1.35-2.369,2.636-1.37,4.598
		c0.028,0.055-0.052,0.175-0.099,0.256c-0.649,1.14-0.047,2.005,0.696,2.756c0.841,0.847,1.888,1.471,3.12,1.133
		c2.145-0.586,3.755-1.966,4.882-3.852c0.842-1.409,1.506-2.923,2.334-4.343c1.612-2.758,3.361-5.437,4.91-8.227
		c2.415-4.353,5.788-7.92,9.283-11.348c2.587-2.535,5.408-4.865,8.331-7.008c1.319-0.968,3.095-1.56,4.737-1.779
		c2.417-0.325,4.819-0.024,7.249,0.765c1.695,0.549,2.306,1.612,2.749,2.905c0.613,1.792,1.747,2.274,3.397,1.271
		c1.851-1.125,3.645-2.62,5.996-2.237c1.522,0.247,3.002,0.817,4.464,1.341c2.158,0.773,3.684,2.48,5.298,3.971
		c1.275,1.176,1.389,2.984,1.271,4.656c-0.048,0.662-0.736,1.254,0.262,1.808c0.576,0.318,0.972,1.181,1.532,1.269
		c1.603,0.248,3.286,0.562,4.784-0.491c2.015-1.411,4.074-2.762,6.022-4.255c1.136-0.867,2.295-1.826,3.082-2.989
		c0.815-1.203,2.301-2.313,1.723-4.07c-0.745-2.276,0.112-4.076,1.243-5.766c1.281,0.12,2.393,0.225,3.598,0.339
		c0.283-0.938,0.697-1.212,1.776-0.87c2.101,0.664,4.221,0.61,6.176-0.758c2.191-1.536,3.301-3.865,4.306-6.14
		c0.743-1.688,0.782-3.689,1.113-5.555c0.429-2.425,0.917-4.841,1.232-7.281c0.494-3.832,0.814-7.687,1.311-11.519
		c0.261-2.027,0.562-4.079,1.153-6.025c0.839-2.77,1.651-5.625,3.033-8.136c2.286-4.146,5.01-8.052,7.567-12.047
		c1.106-1.726,2.205-3.462,3.413-5.114c1.664-2.275,3.502-4.424,5.134-6.718c3.159-4.437,6.187-8.966,9.352-13.396
		c1.096-1.531,2.485-2.851,3.668-4.324c1.646-2.049,3.222-4.152,4.839-6.226c0.605-0.774,1.239-1.524,1.843-2.266
		c0.247,0.148,0.372,0.179,0.399,0.246c0.882,2.279,2.313,3.659,4.969,3.74 M90.247,193.809c1.314-0.588,2.68-1.086,4.064-1.481
		c1.488-0.426,2.302,0.361,2.158,1.878c-0.045,0.462,0.004,0.946,0.088,1.409c0.189,1.034-0.204,1.895-0.614,2.748l-0.875,3.911
		c-0.194,2.905-2.023,4.451-5.168,4.289c-0.415-0.864-0.829-1.604,0.188-2.314c0.226-0.157,0.261-0.93,0.084-1.259
		c-0.504-0.939-0.791-1.976-1.223-2.885c-0.519-1.094-1.858-1.803-2.861-2.656c-0.302-0.259-0.665-0.444-1.373-0.908
		C86.759,195.524,88.474,194.603,90.247,193.809z M69.699,221.292c-0.274-1.351,0.839-1.808,2.016-2.384
		c1.799-0.883,3.495-1.977,5.264-2.927c0.848-0.455,1.372-0.18,1.537,0.841c0.11,0.684,0.342,1.372,0.644,1.998
		c0.549,1.138,0.452,2.289,0.371,3.466l0.385,3.601c0.389,2.222-0.107,3.007-2.235,3.534c-0.29-0.386-0.569-0.759-0.958-1.28
		c0.255-0.268,0.62-0.564,0.87-0.939c0.227-0.337,0.327-0.761,0.646-1.552c-1.744,0.881-2.458,0.555-2.554-1.036
		c-0.03-0.488-0.505-1.165-0.954-1.37C73.174,222.533,71.541,221.989,69.699,221.292z M72.531,248.232
		c-1.659,0.071-3.35-0.426-5.015-0.734c-1.008-0.187-1.318-1.347-0.604-2.382c0.739-1.069,1.49-2.167,2.426-3.053
		c0.412-0.389,1.372-0.539,1.946-0.359c2.149,0.672,4.32,1.392,5.998,3.008c0.564,0.543,1.049,1.189,1.472,1.852
		c0.708,1.107,1.942,1.737,2.208,3.313c0.273,1.616,0.304,3.038-0.483,4.576c-1.867-0.806-1.905-0.974-0.556-2.023
		C77.889,250.279,75.966,248.087,72.531,248.232z M75.66,271.654c-0.499,0.236-1.225,0.7-1.785-0.149
		c-0.076-0.114-0.658,0.105-1.008,0.169c-0.353-2.354,0.985-3.919,2.733-5.044c1.159-0.748,2.669-1.492,3.954-1.389
		c2.609,0.212,5.559-0.462,7.655,1.957c0.285,0.328,0.792,0.454,1.156,0.727c1.706,1.276,1.872,3.111,1.741,5.022
		c-0.088,1.279-0.098,2.592-0.412,3.821c-0.281,1.099-0.556,2.436-2.401,2.435c-1.259-1.917-2.546-3.889-3.849-5.849
		c-0.128-0.193-0.321-0.438-0.521-0.479C80.522,272.393,78.391,270.362,75.66,271.654z M97.369,302.214
		c-0.136-0.019-0.272-0.037-0.408-0.055c-0.028-0.317-0.054-0.637-0.053-0.613c-1.188-0.474-2.358-0.705-3.236-1.339
		c-1.52-1.102-3.135-0.91-4.813-0.894c-2.152,0.022-4.07,0.87-6.062,1.472c-0.883,0.268-1.744,0.61-2.885,1.015
		c-0.637-0.756,0.561-1.018,0.983-1.444c0.536-0.542,1.017-0.774,0.926-1.841c-0.064-0.756,1.183-1.676,1.933-2.432
		c0.548-0.552,1.542-0.831,1.812-1.458c0.758-1.756,2.519-2.072,3.827-3.012c1.719-1.236,3.696-1.362,5.755-1.129
		c1.615,0.184,2.2,1.383,2.897,2.544c0.392,0.654,0.854,1.265,1.228,1.812C98.65,297.261,98.01,299.738,97.369,302.214z
		 M170.469,146.484c0.316,1.417,1.488,2.278,2.231,3.414c0.953,1.456,2.143,2.753,3.183,4.156c0.854,1.148,1.613,2.369,2.477,3.51
		c0.132,0.172,0.616,0.079,0.732,0.09c0.496,1.259,0.974,2.467,1.447,3.667c0.177,0.448,0.354,0.899,0.53,1.346
		c0.024,0.027,0.047,0.055,0.07,0.082l-0.003,0.002c-0.003,0.012-0.006,0.024-0.009,0.037c0.32,0.304,0.783,0.558,0.921,0.93
		c0.499,1.356,0.885,2.752,1.312,4.122c-1.398,0.516-2.015-0.75-2.937-1.298c-0.154-0.093-0.214-0.695-0.178-0.71
		c0.404-0.163,0.839-0.255,1.416-0.407c-0.271-0.246-0.613-0.556-0.98-0.886c0.135-0.526,0.291-1.137,0.446-1.752
		c-0.005-0.004-0.011-0.009-0.016-0.013c-0.014-0.034-0.027-0.069-0.041-0.104c-0.612-0.704-1.187-1.447-1.867-2.08
		c-0.463-0.428-0.52-1.666-1.656-0.985c-0.146-0.326-0.508-0.773-0.404-0.953c0.452-0.783,0.226-1.184-0.498-1.608
		c-1.045-0.611-1.438-1.677-1.976-2.739c-0.85-1.68-2.429-3-3.22-4.698c-0.659-1.418-2.602-1.966-2.43-3.896
		c0.032-0.379-0.549-0.813-0.739-1.336C169.202,144.871,170.202,145.281,170.469,146.484z M183.168,177.608
		c-0.15,0.261-0.455,0.563-0.723,0.595c-0.641,0.074-4.37-2.292-4.864-3.044c2.03-0.561,4.494,0.224,5.501,1.714
		C183.208,177.062,183.269,177.433,183.168,177.608z M159.991,180.879c0.014,0.013,0.026,0.027,0.04,0.041
		c0.364,0.101,0.755,0.149,1.083,0.32c0.612,0.323,1.186,0.723,1.774,1.087c-0.077,0.16-0.15,0.319-0.225,0.478
		c-0.485-0.244-1.012-0.431-1.443-0.746c-0.27-0.194-0.508-0.432-0.741-0.675c-0.148-0.154-0.294-0.31-0.444-0.46l-0.016-0.007
		l-0.078-0.003c-0.179,0.106-0.362,0.254-0.542,0.371c-0.053,0.035-0.104,0.057-0.157,0.084c-0.035,0.018-0.072,0.043-0.107,0.057
		c-0.086,0.033-0.171,0.048-0.251,0.037c-1.017-0.144-2.009-0.473-3.012-0.729c0.032-0.121,0.065-0.245,0.096-0.367
		c1.325,0.18,2.651,0.358,3.977,0.539c0.015-0.01,0.029-0.021,0.044-0.029L159.991,180.879l0.002,0.001l0,0L159.991,180.879z
		 M162.873,170.669c-2.518-0.962-5.068-1.838-7.613-2.725c-0.283-0.098-0.628-0.014-0.992-0.014
		c0.031-0.357,0.054-0.661,0.059-0.702c-1.032-0.144-1.954-0.27-2.876-0.403c-0.66-0.095-1.318-0.19-1.976-0.305
		c-0.414-0.073-0.975-0.042-1.204-0.299c-0.58-0.641-1.168-0.608-1.964-0.609c-0.713-0.001-1.426-0.66-2.135-1.036
		c-0.077-0.042-0.164-0.208-0.185-0.196c-1.451,0.767-1.547-0.804-2.236-1.322c-0.244-0.183-0.357-0.539-0.586-0.903
		c-0.436,0.542-0.656,0.82-0.929,1.16c-0.829-0.938-2.416-1.122-2.331-2.79c0.004-0.057-0.855-0.158-1.364-0.248
		c0.092-0.174,0.208-0.396,0.199-0.38c-0.812-0.26-1.644-0.75-2.457-0.722c-0.739,0.024-1.675-0.905-2.384,0.333
		c-0.123,0.214-1.401-0.232-2.271-0.399c0,0.346,0,0.673,0,1.012c-0.062,0.022-0.155,0.091-0.238,0.079
		c-1.11-0.142-2.214-0.348-3.329-0.438c-1.544-0.125-3.096-0.194-4.645-0.215c-0.306-0.002-0.618,0.32-0.852,0.647
		c-1.65-0.06-3.429-1.932-5.037,0.12c-1.205,0.112-2.321,0.215-3.566,0.331c0.267,0.383,0.417,0.597,0.566,0.812
		c-2.131-1.365-3.49,0.417-5.09,1.054c2.348-0.558,4.438,0.302,6.589,1.031c0.952,0.32,2.064,0.173,3.104,0.22
		c0.531,0.024,1.114-0.127,1.588,0.04c1.148,0.407,2.247,0.954,3.765,1.62c-1.118,0.322-2.003,0.663-2.922,0.822
		c-1.969,0.343-3.958,0.575-5.933,0.883l-15.313,3.206c-1.211,0.354-2.473,0.532-3.892,0.823c-0.22,0.986-1.273,0.949-2.278,1.133
		c-1.147,0.21-2.262,0.599-3.393,0.905c-1.033,0.278-2.063,0.573-3.104,0.816c-0.914,0.215-1.842,0.37-2.587,0.517
		c1.328-1.66,2.7-3.375,4.2-5.248c-0.489,0.036-0.729,0.053-1.067,0.078c0.795-1.442,1.742-2.72,2.229-4.152
		c0.609-1.797,0.428-3.685-0.669-5.328c-0.485-0.724-1.148-1.33-1.776-2.04c1.468-0.242,3.035-1.136,4.272,0.36
		c2.098-0.821,4.135-1.1,6.341-0.834c1.125,0.134,2.318-0.364,3.488-0.515c1.359-0.173,2.726-0.32,4.092-0.391
		c0.398-0.021,0.811,0.265,1.434,0.489c0.123-0.105,0.474-0.399,0.814-0.686c1.714,0.738,9.792-0.475,10.985-1.635
		c0.522,0.957,0.472,0.784,1.482,0.499c0.666-0.19,1.498,0.205,2.521,0.383c0.857-1.465,2.325,0.3,3.599-0.096
		c-0.051-0.83-0.136-1.656,1.189-1.567c0.813,0.056,1.651-1.216,1.368-1.818c0.486-0.274,0.945-0.593,1.449-0.801
		c0.374-0.154,0.853-0.319,1.205-0.213c2.062,0.626,4.283,1.024,6.088,2.105c1.42,0.849,3.064,1.007,4.392,1.979
		c0.471,0.343,1.219,0.41,1.841,0.417c1.675,0.016,2.714,1.441,4.218,1.812c0.195,0.048,0.46,0.216,0.508,0.38
		c0.337,1.162,0.852,0.704,1.467,0.164c1.808,0.878,2.852,3.252,5.499,2.309c-0.078,0.584-0.137,1.016-0.15,1.116
		c0.606,0.279,1.042,0.519,1.504,0.684c0.478,0.171,1.021,0.463,1.458,0.363c1.25-0.289,1.599,0.21,1.436,1.246
		c1.251,0.515,2.455,1.007,3.656,1.505c0.253,0.105,0.495,0.237,0.74,0.357c2.314,1.131,4.713,2.12,6.896,3.46
		c1.022,0.627,1.952,1.026,3.108,1.143c0.403,0.04,0.771,0.485,1.146,0.761c0.357,0.263,0.698,0.544,1.31,1.023
		c0.037,0.22,0.143,0.82,0.286,1.631c-2.131,0.635-4.287,0.438-6.325-0.195C167.095,172.587,165.03,171.494,162.873,170.669z
		 M81.719,139.843c0.609-0.074,1.438-0.196,2.269-0.266c0.872-0.072,1.748,0.477,2.654-0.183c0.224-0.163,0.959,0.375,1.488,0.603
		c0.52-1.017,1.542-1.349,2.01-0.778c0.456-0.108,0.788-0.294,1.066-0.234c1.893,0.416,3.383-0.195,4.644-1.737
		c2.879,2.257,5.929,0.165,9.144,0.165c-0.291,0.333-0.436,0.5-0.582,0.664c0.057,0.08,0.113,0.16,0.169,0.24
		c0.359-0.259,0.719-0.517,1.282-0.923c0.149,0.071,0.562,0.27,0.951,0.457c0.324-0.263,0.665-0.542,1.072-0.874
		c0.135,0.406,0.229,0.688,0.323,0.969c0.156-0.042,0.312-0.084,0.47-0.126c-0.184-0.654-0.363-1.309-0.549-1.96
		c-0.021-0.076-0.077-0.142,0.118-0.466c0.773,0.751,1.545,1.503,2.389,2.323c0.168-0.512,0.295-0.902,0.455-1.39
		c1.299,0.323,2.565,0.641,3.836,0.952c0.612,0.15,1.309,0.146,1.824,0.454c1.007,0.603,2.052,1.259,2.783,2.141
		c0.245,0.296-0.412,1.342-0.661,2.061c-0.825-0.48-1.377-0.8-1.929-1.121c0.02,0.12,0.042,0.24,0.062,0.361
		c-1.99,0.605-3.981,1.21-6.062,1.843c0-0.306,0-0.688,0-1.202c-1.229,1.789-3.086,1.236-4.628,1.585
		c0.093,0.477,0.175,0.894,0.253,1.3c-1.725,0-3.293,0-4.859,0c0.031,0.056,0.063,0.113,0.096,0.171
		c-0.8,0.295-1.609,0.567-2.395,0.896c-0.344,0.145-0.645,0.396-0.95,0.619c-0.178,0.132-0.436,0.46-0.472,0.436
		c-1.717-1.202-2.749,0.961-4.378,0.91c-1.241-0.042-2.529,1.337-3.899,2.146c-0.224,0-0.769-0.163-1.116,0.029
		c-1.266,0.7-1.86,0.635-2.861-0.606c-1.255,0.914-2.188,2.528-4.397,2.185C84.446,147.697,83.123,143.97,81.719,139.843z
		 M103.764,88.995c-0.101,0.605-0.04,1.238-0.04,2.076c-0.456,0.085-1.13,0.102-1.706,0.349c-0.644,0.276-1.197,0.76-1.792,1.153
		c-0.077,0.051-0.158,0.11-0.245,0.125c-1.406,0.216-1.956,1.317-2.482,2.422c-0.126,0.265-0.118,0.592-0.183,0.888
		c-0.058,0.263-0.074,0.561-0.21,0.778c-0.52,0.831-1.081,1.636-1.728,2.6c0.644,1.024,1.433,2.143,2.056,3.348
		c0.19,0.37-0.066,0.978-0.143,1.473c-0.03,0.195-0.083,0.412-0.201,0.562c-0.761,0.976-0.708,2.73-2.491,2.63
		c0.125,0.479,0.242,0.926,0.369,1.417c-2.114,0.017-2.474-1.73-3.376-2.85c-0.82-1.017-1.624-2.054-2.351-3.14
		c-0.185-0.275-0.124-0.783-0.043-1.155c0.11-0.51,0.347-0.992,0.42-1.547c1.841-2.13,0.314-5.198,2.233-7.275
		c-0.138-0.067-0.278-0.135-0.417-0.202c-0.212,0.073-0.424,0.146-0.938,0.321c0.494-1.09,0.792-2.061,1.331-2.868
		c1.292-1.938,2.652-3.834,4.08-5.672c0.535-0.689,1.442-1.085,1.996-1.766c1.388-1.705,2.739-0.19,4.116-0.101
		c1.869,0.122,3.401,0.815,4.638,2.187c-0.586,0.452-1.157,0.893-1.951,1.508c0.624,0.123,0.922,0.184,1.39,0.276
		c-0.341,0.228-0.579,0.388-0.818,0.546c0.106,0.02,0.211,0.04,0.316,0.059c-0.145,0.893-0.291,1.785-0.436,2.678
		c-0.148-0.013-0.296-0.025-0.445-0.037c0-0.349,0-0.699,0-1.203C104.307,88.746,103.792,88.83,103.764,88.995z M90.221,68.447
		c0.083-0.152,0.167-0.303,0.251-0.453c1.783,1.395,3.569,2.789,5.35,4.187c1.79,1.402,3.574,2.811,5.522,4.344
		c-2.937,0.234-3.14,0.103-4.982-1.981c-0.669-0.756-1.781-1.199-2.256-2.033c-0.735-1.286-2.655-1.457-2.818-3.235
		C91.259,68.97,90.593,68.721,90.221,68.447z M107.147,90.482c-0.398,0.952-0.673,1.606-1.034,2.469
		c-0.279-0.768-0.441-1.219-0.68-1.876C105.854,90.929,106.376,90.749,107.147,90.482z M112.644,128.053
		c1.916-0.873,7.521,3.46,7.712,6.167C117.819,132.192,115.281,130.162,112.644,128.053z M124.701,132
		c-0.862-0.067-1.607-1.904-2.358-2.963c-0.2-0.282-0.217-0.694-0.341-1.122c2.492-0.298,4.866-0.294,5.944,2.714
		c0.02,0.053,0.07,0.104,0.129,0.151l0.318,0.15c3.043,0.469,3.856,2.722,4.264,5.305c0.013,0.088,0.104,0.161,0.132,0.25
		c0.026,0.083,0.016,0.175,0.046,0.646c-0.633-0.131-1.291-0.077-1.516-0.365c-0.219-0.281,0.003-0.906,0.047-1.656
		C128.926,134.937,127.538,132.221,124.701,132z M132.948,138.212c0.481-0.951,0.771-1.518,1.182-2.333
		c1.242,0.721,2.676,1.519,4.054,2.404c0.209,0.133,0.31,0.736,0.194,1.005c-0.169,0.393-0.532,0.878-0.9,0.971
		c-0.771,0.191-1.6,0.153-2.404,0.211c-0.024-0.173-0.049-0.344-0.073-0.516c0.216-0.111,0.434-0.22,0.696-0.353
		C134.711,139.103,133.783,138.635,132.948,138.212z M174.106,163.548c-0.509-1.138-1.479-1.331-2.44-1.735
		c-0.598-0.25-1.051-0.842-1.57-1.283c0.127-0.182,0.253-0.364,0.379-0.547c0.605,0.301,1.207,0.603,2.071,1.034
		c-0.428-0.919-0.776-1.665-1.124-2.412c0.09-0.079,0.179-0.159,0.269-0.238c0.724,0.823,1.49,1.611,2.157,2.477
		c0.747,0.968,1.403,2.004,2.099,3.011c-0.073,0.119-0.146,0.237-0.218,0.355C175.166,164,174.278,163.934,174.106,163.548z
		 M157.191,130.386c1.305,1.618,2.467,3.103,3.676,4.548c0.666,0.797,1.426,1.515,2.103,2.304c0.152,0.175,0.133,0.499,0.189,0.755
		c0.005,0.001,0.012,0,0.017,0.001l-0.016,0.005c0,0,0.016-0.005,0.01-0.002c0.001,0.005,0.001,0.01,0.002,0.015
		c1.524,1.693,3.049,3.387,4.573,5.082c-0.113,0.104-0.226,0.208-0.338,0.312c-1.102-0.595-2.261-1.032-2.681-2.52
		c-0.193-0.676-0.95-1.178-1.361-1.815c-0.09-0.14-0.125-0.314-0.145-0.499c-0.021-0.188-0.025-0.384-0.055-0.565
		c-0.001-0.001-0.002-0.002-0.003-0.004c0,0-0.001,0-0.001-0.001c-0.235-0.041-0.527-0.018-0.748-0.079
		c-0.074-0.02-0.14-0.05-0.192-0.094c-0.823-0.695-1.582-1.469-2.367-2.211c-0.067-0.064-0.218-0.116-0.216-0.167
		c0.002-0.035-0.007-0.062-0.006-0.096l-1.902-2.249C156.975,132.353,156.966,131.584,157.191,130.386z M158.201,142.44
		c1.807,2.095,3.688,4.098,5.802,5.899c0.847,0.723,1.485,1.687,2.277,2.485c0.387,0.391,0.903,0.656,1.454,1.045
		c-0.088,0.196-0.209,0.468-0.331,0.738c0.129-0.071,0.258-0.145,0.387-0.216c1.227,1.725,2.454,3.449,3.681,5.173
		c-0.117,0.112-0.233,0.223-0.35,0.334c-0.283-0.117-0.639-0.162-0.835-0.363c-1.456-1.494-2.894-3.005-4.301-4.544
		c-0.446-0.489-0.741-1.112-1.17-1.62c-0.507-0.604-1.115-1.122-1.625-1.725c-0.639-0.757-1.216-1.571-1.834-2.347
		c-0.349-0.434-0.704-0.867-1.099-1.256c-1.196-1.172-2.416-2.319-3.614-3.49c-0.078-0.078-0.048-0.267-0.116-0.755
		C157.204,142.043,157.891,142.079,158.201,142.44z M155.75,145.963c0.193,0.86-0.109,2.076,1.574,2.2
		c0.252,0.018,0.333,0.967,0.686,1.249c1.603,1.285,3.32,2.428,4.904,3.736c1.928,1.592,3.761,3.302,5.734,5.046
		c-0.587,0.27-0.95,0.437-1.239,0.57c-1.029-0.897-2.003-1.856-3.087-2.667c-1.821-1.363-3.868-2.464-5.51-4.006
		c-0.875-0.819-1.719-0.484-2.536-0.778c-0.578-0.208-1.125-0.529-1.646-0.86c-0.444-0.283-0.784-0.791-1.257-0.958
		c-2.038-0.723-3.522-2.292-5.333-3.348c-0.903-0.526-1.95-0.804-2.849-1.335c-1.62-0.959-3.178-2.024-4.993-3.194
		c0.215-0.404,0.402-1.29,0.851-1.452c0.504-0.182,1.347,0.14,1.863,0.501c1.904,1.333,3.699,2.827,5.61,4.149l1.421,0.812
		c0.648,0.327,1.31,0.634,1.93,1.006c0.52,0.311,1.022,0.648,1.538,0.977l1.631,0.933c-0.51-1.229-0.876-2.505-2.164-3.186
		c-1.224-0.65-2.433-1.332-3.91-2.143c0.625-0.372,0.941-0.559,1.306-0.778c-0.526-1.056-2.042,0.607-2.44-0.916
		c-0.228-0.879-0.762-1.679-0.936-2.78c0.289,0.131,0.654,0.189,0.852,0.403c1.035,1.122,1.986,2.322,3.062,3.402
		c0.291,0.294,1.033,0.125,1.348,0.411c0.73,0.664,1.288,1.516,1.994,2.211C154.554,145.57,155.11,145.812,155.75,145.963z
		 M152.055,137.277c-0.831-1.394-1.761-2.035-3.109-2.068c-0.634-0.016-2.812-2.47-2.7-3.022c0.118-0.564,0.51-1.069,0.766-1.569
		c0.619,0.822,1.019,1.9,1.717,2.15c1.028,0.37,1.868,0.781,2.471,1.681c0.391,0.586,0.829,1.146,1.159,1.767
		C152.448,136.387,152.224,136.726,152.055,137.277z M143.659,116.76c0.382-0.023,0.877,0.074,1.154,0.319
		c1.758,1.542,3.546,3.063,5.163,4.749c0.772,0.81,1.191,1.963,1.771,2.96c-0.174,0.165-0.348,0.331-0.52,0.497
		c-0.861-0.642-1.746-1.251-2.574-1.931c-0.912-0.75-1.815-1.521-2.641-2.366c-0.563-0.578-0.964-1.311-1.479-1.94
		c-0.168-0.209-0.525-0.264-0.695-0.47c-0.245-0.295-0.501-0.65-0.557-1.011C143.24,117.308,143.505,116.768,143.659,116.76z
		 M136.911,123.082c0.154-0.803-0.03-2.069,1.466-2.109c0.584-0.017,1.157-0.358,2.008-0.643c0.222,2.573,1.629,4.346,2.96,6.079
		c-0.607,0.14-1.201,0.279-1.943,0.451c-1.036-0.619-2.356-1.31-3.555-2.173C137.369,124.344,136.821,123.552,136.911,123.082z
		 M132.697,123.967c0.606-0.006,1.431,0.241,1.783,0.681c0.964,1.205,1.79,2.532,2.549,3.882c0.378,0.67,0.491,1.491,0.502,2.366
		c-0.985-0.467-2.413-0.087-2.875-1.236l-0.82-0.353c-1.041-0.981-2.112-1.989-3.149-2.967c0.317-0.671,0.434-1.152,0.726-1.475
		C131.762,124.475,132.26,123.97,132.697,123.967z M110.383,111.507c-0.163-0.127-0.344-0.267-0.529-0.413
		c0.089-0.125,0.144-0.259,0.192-0.257c1.719,0.056,2.205-1.573,3.266-2.407c1.178-0.928,2.2-2.072,3.444-2.89
		c0.888-0.586,2.017-0.825,3.059-1.152c1.124-0.353,2.057-1.886,2.024-2.965c0.748-0.522,1.533-0.788,1.766-1.304
		c0.312-0.689,0.193-1.57,0.261-2.37c-0.12,0.002-0.241,0.005-0.361,0.008c0.246-0.353,0.496-0.706,0.689-0.983
		c0.549,0,1.09-0.091,1.581,0.024c0.546,0.126,1.048,0.439,1.625,0.696c-0.058-0.254-0.117-0.531-0.245-1.1
		c1.604,2.31,3.028,4.358,4.45,6.405c-0.145,0.114-0.288,0.228-0.434,0.342c-0.316-0.349-0.636-0.699-1.064-1.171
		c0,0.562,0,1.024,0,1.643c-0.898-0.342-1.646-0.627-2.294-0.874c0.414,0.957,0.896,2.064,1.238,2.854
		c-0.812,0.51-1.354,0.729-1.727,1.113c-0.614,0.631-0.938,1.369-2.101,1.52l-3.841,3.929c-0.318-0.106-0.711-0.235-1.33-0.438
		c0.661,1.159-0.032,1.471-1.051,1.651c0.367,0.226,0.555,0.339,0.884,0.541c-1.065,0.308-1.898,0.548-2.732,0.789
		c0,0.326,0,0.806,0,1.364c-0.736-0.327-1.274-0.566-1.813-0.806c-0.072,0.143-0.142,0.286-0.212,0.427
		c0.203,0.14,0.406,0.279,0.594,0.409c-0.959,0.627-1.927,1.26-3.228,2.111c-1.05-0.079-2.456-0.415-3.8-1.51
		c0.069-0.032-0.169,0.08-0.367,0.175c-0.957-0.606-1.202-3.019-0.354-3.747C108.695,112.5,109.559,112.047,110.383,111.507z
		 M85.156,60.566c1.956,1.335,3.863,2.74,5.8,4.102c0.727,0.511,1.541,0.91,2.214,1.48c0.094,0.079,0.174,0.174,0.246,0.278
		c0.216,0.313,0.356,0.715,0.551,1.054c0.531,0.109,1.179,0.061,1.573,0.353l12.292,9.418c-0.259,0.204-0.441,0.428-0.521,0.396
		c-0.879-0.35-2.35-0.579-2.503-1.15c-0.638-2.367-3.145-2.246-4.443-3.743c-1.473-1.696-3.477-2.935-5.256-4.365
		c-0.381-0.307-0.791-0.58-1.188-0.867c-1.722-1.087-3.481-2.117-5.153-3.275c-1.715-1.189-3.342-2.503-4.948-4.024
		C84.268,60.332,84.799,60.322,85.156,60.566z M73.11,61.182c0.648-1.299,1.872-1.87,3.125-1.173
		c2.762,1.535,5.528,3.085,7.786,5.351c-0.842,1.123,0.137,4.015,1.853,5.405c-1.875,1.183-3.058,3.421-5.896,2.563
		c-1.722-0.521-3.613-0.475-5.343-0.979c-0.886-0.258-1.585-1.165-2.365-1.78c-0.072-0.057-0.191-0.16-0.177-0.208
		C73.044,67.37,71.641,64.122,73.11,61.182z M65.621,76.265c1.27-0.185,2.36,0.276,3.498,0.57c1.696,0.44,3.37,0.965,5.185,1.494
		c0.046-0.134,0.167-0.477,0.328-0.929c0.153,0.196,0.309,0.31,0.292,0.387c-0.195,0.916,0.241,1.031,1.04,1.001
		c1.013-0.037,1.883,0.35,2.507,1.245c0.183,0.262,0.693,0.278,0.933,0.526c0.318,0.327,0.62,0.747,0.713,1.172
		c0.032,0.149-0.559,0.483-0.905,0.65c-0.551,0.262-1.131,0.622-1.708,0.641c-1.099,0.038-2.204-0.18-3.308-0.211
		c-1.213-0.034-2.542-0.271-3.605,0.138c-0.787,0.303-1.032-0.265-1.54-0.267l-11.464,0.204c-0.547,0.017-1.105-0.104-1.644-0.227
		c-0.248-0.059-0.664-0.298-0.65-0.417c0.037-0.326,0.201-0.684,0.419-0.934c0.705-0.808,1.458-1.574,2.153-2.315
		c-1.045-1.252-1.953-2.341-2.848-3.414c0.499-0.845,1.97-1.209,2.897-0.848c0.593,0.231,1.258,0.489,1.864,0.434
		c1.202-0.107,2.225,0.131,3.3,0.697C63.807,76.245,64.801,76.385,65.621,76.265z M66.209,97.782
		c-0.792,0.133-1.212-0.197-1.171-1.004c0.038-0.732,0.159-1.461,0.195-2.193c0.043-0.878,0.056-1.647-0.938-2.238
		c-0.941-0.561-1.645-1.52-2.452-2.304c0.085-0.154,0.17-0.308,0.255-0.462c2.791,0.196,5.583,0.391,8.375,0.587
		c-0.046,0.114-0.092,0.227-0.138,0.341l4.598,1.694c0.461,0.208,0.87,0.795,1.025,1.298c0.07,0.226-0.476,0.815-0.854,0.968
		c-0.792,0.323-1.743,0.315-2.466,0.727c-0.753,0.428-2.177,0.227-2.004,1.829c-1.79-1.137-2.211,1.01-3.566,1.429
		c0.061-0.333,0.098-0.536,0.152-0.839C66.84,97.677,66.524,97.728,66.209,97.782z M61.172,124.667
		c0.685,0.112,1.08,0.178,1.711,0.283c-0.257-0.438-0.423-0.721-0.587-1.002c-0.014,0.001-0.029,0.005-0.042,0.006l0.017-0.009
		c-0.001,0-0.003,0-0.005,0c0.002-0.004,0.002-0.006,0.004-0.01c-0.628,0.039-1.033-0.08-1.206-0.378
		c-0.002-0.004-0.002-0.009-0.004-0.013c-0.04-0.072-0.068-0.152-0.082-0.245c-0.004-0.027,0.002-0.061,0-0.089
		c-0.004-0.075-0.01-0.149,0.001-0.237c0.009-0.069,0.033-0.151,0.051-0.229c0.014-0.057,0.019-0.107,0.038-0.169
		c0.045-0.145,0.104-0.302,0.179-0.472c0.292,0.71,1.656,0.621,1.03,1.812l0.011,0.02c0.001,0.002,0.002,0.004,0.004,0.007
		c0.327-0.023,0.733-0.168,0.998-0.114c0.016,0.003,0.025,0.014,0.04,0.019c0.047,0.015,0.094,0.03,0.128,0.062
		c0.019,0.018,0.026,0.052,0.041,0.077c0.02,0.033,0.045,0.06,0.055,0.107c0.009,0.041,0.001,0.104,0.002,0.156
		c0,0.053,0.01,0.094,0.001,0.159c-0.017,0.13-0.052,0.288-0.109,0.477c-0.123,0.401,0.509,1.03,0.39,1.436
		c-0.446,1.506-1.701,0.543-2.673,0.626c0.381-0.29,0.762-0.582,1.164-0.889C61.997,125.662,61.667,125.264,61.172,124.667z
		 M62.406,133.326c-0.806-1.92-0.464-3.611,1.566-5.048c0.644,0.302,0.696,0.703,0.569,1.148l0.71,1.431
		c-0.608,0.984-1.025,2.041-1.777,2.733c-0.48,0.443-1.457,0.346-2.211,0.49c-0.029-0.146-0.06-0.292-0.089-0.438
		C61.613,133.531,62.052,133.417,62.406,133.326z M57.68,56.159c0-0.712-0.097-1.445,0.06-2.121
		c0.047-0.204,0.798-0.245,1.227-0.361c0.052,0.151,0.104,0.301,0.156,0.452c-0.376,0.248-0.752,0.496-1.345,0.887
		c0.535,0.335,0.953,0.599,1.37,0.861c0.06-0.07,0.121-0.138,0.182-0.208c-0.119-0.212-0.238-0.427-0.422-0.761
		c0.955,0.212,1.801,0.399,2.918,0.646c-0.513,0.096-0.785,0.147-1.169,0.218c0.311,0.251,0.547,0.44,1.123,0.902
		c-1.205-0.149-2.009-0.25-2.752-0.341c-0.526,0.451-0.944,0.809-1.361,1.167c-0.083-0.094-0.166-0.188-0.248-0.283
		c0.25-0.333,0.5-0.665,0.749-0.999C58.004,56.199,57.843,56.179,57.68,56.159z M55.875,53.91c-0.561,0-1.242,0-1.836,0
		c-0.233-0.614-0.444-1.169-0.706-1.859L55.875,53.91z M45.666,46.426c-1.021,1.778-2.316,2.796-4.47,2.622l-1.968-2.001
		C41.419,46.835,43.505,46.635,45.666,46.426z M27.164,47.534c1.611-1.011,3.305-0.3,3.894,1.522
		c0.183,0.564,0.651,1.035,0.941,1.477c-0.428,0.098-1.03,0.236-1.645,0.378c0.197,1.912-1.306,2.723-2.458,3.36
		c-1.166,0.646-2.723,0.584-3.992,0.812c-1.206-1.838,0.502-2.766,1.064-4.303c-0.564,0.371-0.887,0.584-1.183,0.779
		c-0.394-0.521-0.731-0.966-0.93-1.228C24.319,49.379,25.729,48.436,27.164,47.534z M26.266,67.182
		c-2.14-0.841-4.13-3.49-3.53-6.144c0.065-0.289-0.027-0.613-0.045-0.924c1.759-1.009,2.359-1.066,3.739,0.33
		c0.818,0.83,1.413,1.881,2.061,2.88l1.061,1.482c-0.134,0.295-0.319,0.601-0.415,0.933C28.754,67.043,27.563,67.693,26.266,67.182z
		 M33.815,82.948c-0.772,0.55-2.802-0.02-3.168-0.96c-0.542-1.392-0.901-2.862-1.538-4.205c-0.221-0.464-1.041-0.642-1.465-0.879
		c0.285-0.698,0.693-1.467,0.904-2.285c0.216-0.84,0.239-1.729,0.356-2.677c2.621,0.263,4.61,0.98,5.268,3.677
		c0.267,1.092,0.742,2.132,1.075,3.21C35.503,79.658,34.491,82.466,33.815,82.948z M40.306,99.105
		c-0.508,0.26-1.225,0.113-1.808,0.15c-1.766-2.517-3.126-6.51-2.999-11.098c2.693-0.413,4.366,0.75,5.238,2.851
		c0.567,1.366,0.869,2.846,1.238,4.288C42.411,97,41.886,98.299,40.306,99.105z M42.773,58.868c2.358,0.685,4.661,1.312,6.935,2.025
		c1.695,0.532,3.377,1.123,5.021,1.797c0.604,0.249,1.217,0.715,1.583,1.249c0.734,1.072,1.448,1.838,2.605,1.016
		c0.823,0.937,1.508,1.718,2.307,2.627c-1.48,1.226-3.128,0.957-4.85,0.468c0.428-0.547,0.823-1.053,1.234-1.58
		c-0.457-0.402-0.796-0.703-1.208-1.067c-0.445,0.554-1.26,0.895-0.953,1.915c0.029,0.097-0.521,0.548-0.764,0.518
		c-2.262-0.283-4.511-0.671-6.773-0.941c-0.7-0.084-1.435,0.167-2.148,0.134c-0.325-0.016-0.777-0.276-0.926-0.555
		c-0.732-1.366-1.539-2.726-2.004-4.188C42.529,61.346,42.773,60.231,42.773,58.868z M51.906,89.228
		c1.028,0.206,1.72,0.345,2.565,0.514c-0.435,0.602-0.711,0.987-0.981,1.363c-0.664-0.139-1.294-0.271-1.924-0.402
		c-0.007-0.084-0.014-0.167-0.022-0.251c0.412-0.056,0.829-0.112,1.252-0.17L51.906,89.228z M48.365,82.838
		c-1.277,0.172-1.766-0.647-2.104-1.799c0.586,0.051,1.039,0.088,1.682,0.145C48.035,81.548,48.195,82.172,48.365,82.838z
		 M45.065,118.171c-0.114,0.027-0.538-0.572-0.523-0.866l-1.415-11.583c-0.132-0.867,0.344-1.192,1.179-1.174
		c1.677,0.038,3.863,1.767,4.661,3.238c1.13,2.087,0.709,4.229,0.64,6.375c-0.008,0.236-0.339,0.443-0.425,0.695
		c-0.163,0.48-0.258,0.985-0.443,1.723c-0.163,0.136-0.507,0.571-0.956,0.761C46.912,117.704,45.989,117.967,45.065,118.171z
		 M50.119,137.557c-0.778-0.258-1.349-0.449-2.106-0.703c0.249-0.69,0.593-1.314,0.69-1.975c0.377-2.558-0.135-4.945-1.115-7.361
		c-0.451-1.109-1.048-1.885-1.77-2.738c-0.306-0.36-0.124-1.208-0.021-1.81c0.057-0.331,0.407-0.612,0.604-0.887
		c3.325,0.752,5.819,2.594,7.108,6.103c-0.506,0.985-0.227,4.061,0.492,4.632c-0.513,0.631-1.351,1.205-1.455,1.888
		c-0.216,1.428-0.81,1.981-2.207,1.777c-0.211-0.031-0.444,0.093-0.701,0.152C49.79,136.925,49.904,137.145,50.119,137.557z
		 M55.867,155.096c-0.669,0.368-1.729,0.316-2.491,0.079c-0.294-0.093-0.261-1.236-0.424-2.173c0.049,0.019-0.233-0.083-0.524-0.187
		c0.108-0.743,0.223-1.529,0.337-2.316c-0.222,0.02-0.444,0.038-0.504,0.042c0.553-3.137,0.301-6.025-1.451-8.723
		c1.423-1.983,3.332-0.08,5.084-0.934c-0.079,0.631-0.115,0.925-0.152,1.217c0.083-0.056,0.167-0.113,0.251-0.168
		c0.359,0.579,0.836,1.12,1.058,1.749c0.516,1.473,0.863,3.005,1.363,4.484C59.148,150.346,57.963,153.946,55.867,155.096z
		 M65,172.339c-0.043,1.152-0.428,2.304-0.746,3.431c-0.281,0.992-1.167,0.743-1.807,0.59c-0.499-0.119-1.067-0.497-1.322-0.93
		c-0.249-0.418-0.081-1.063-0.201-1.584c-0.095-0.411-0.348-0.785-0.568-1.254c-0.271-1.398-0.639-2.923-0.838-4.469
		c-0.097-0.75,0.304-1.576,0.158-2.303c-0.23-1.146-0.65-2.275-1.144-3.34c-0.369-0.794-1.017-1.456-1.465-2.22
		c-0.136-0.231-0.021-0.609-0.021-1.047c1.575,0.193,3.011,0.084,4.189,0.583c1.583,0.672,2.928,1.84,3.129,3.801
		c0.121,1.178,0.301,2.349,0.388,3.528C64.879,168.863,65.063,170.606,65,172.339z M66.658,141.207
		c-0.96-0.415-1.672-0.724-2.494-1.079c3.435-0.771,3.484-0.747,4.481,1.982C67.514,143.039,67.575,139.977,66.658,141.207z
		 M67.275,144.412c0.328-0.575,0.686-1.199,1.036-1.815c0.693,0.213,1.298,0.251,1.688,0.561c0.378,0.3,0.535,0.878,0.789,1.334
		c0.149-0.089,0.298-0.176,0.448-0.267c-0.555,0.337-1.11,0.675-1.815,1.103c-0.157-0.695-0.255-1.134-0.364-1.617
		C68.217,143.387,68.559,145.798,67.275,144.412z M71.673,152.031c-0.973,0.133-1.924,0.263-2.874,0.393
		c-0.024-0.056-0.048-0.111-0.071-0.168c0.051-0.023,0.103-0.048,0.154-0.072l1.15-3.317c-0.545,0-0.976,0-1.402,0
		c-0.014-0.085-0.062-0.375-0.139-0.841c0.502,0.049,1.182-0.012,1.765,0.196C71.553,148.687,72.072,150.243,71.673,152.031z
		 M72.042,115.106c0-1.158-0.289-2.56,0.073-3.766c0.458-1.527-0.535-2.611-0.65-3.928c-0.047-0.535-0.449-1.037-0.514-1.575
		c-0.067-0.552-1.134-2.033,0.879-1.168c0.29,0.125,0.85-0.298,1.249-0.531c0.854-0.499,1.555-0.643,1.764,0.818
		c0.856-0.42,1.484-0.729,2.23-1.094c0.414,0.665,0.767,1.178,2.014,0.495c0.753-0.413,2.266,0.515,3.417,0.901
		c0.367,0.125,0.669,0.445,0.722,0.482c1.774,1.508,3.266,2.777,4.786,4.068c-0.609,0.472-1.068,0.828-1.527,1.184
		c0.054,0.091,0.107,0.183,0.161,0.276c-1.409,0.442-2.819,0.886-4.456,1.4c0.004-0.012-0.054,0.141-0.073,0.191
		c-1.914,0.312-3.583,0.5-5.211,0.869C75.198,114.119,73.527,114.679,72.042,115.106z M77.06,123.724
		c-0.206-0.375-0.458-0.773-0.492-1.178c-0.021-0.238,0.366-0.741,0.536-0.727c0.968,0.081,1.927,0.283,2.889,0.444
		c0.04,0.112,0.08,0.225,0.12,0.337c0.703-0.131,1.208-1.475,2.159-0.352c0.042,0.051,0.674-0.4,1.088-0.652
		c0.196,0.364,0.364,0.675,0.352,0.652c1.004,0.098,1.718,0.172,2.432,0.239c0.137,0.012,0.33,0.064,0.406-0.003
		c1.494-1.343,3.065-0.125,4.596-0.155c0.355-0.007,0.759,0.07,1.057-0.07c1.013-0.476,1.957-0.372,2.937,0.086
		c0.396,0.185,0.876,0.177,1.301,0.308c1.528,0.477,3.052,0.965,4.57,1.47c0.203,0.07,0.351,0.351,0.548,0.383
		c1.05,0.166,1.182,0.308,1.155,1.453c0.355,0.105,0.716,0.211,1.29,0.381c-0.729,0.45-1.252,0.773-1.611,0.994
		c-0.416-0.137-0.756-0.358-1.085-0.341c-2.224,0.114-4.448,0.247-6.667,0.454c-0.618,0.056-1.201,0.479-1.821,0.548
		c-0.625,0.072-1.277-0.086-2.205-0.169c-0.201,0.283-0.566,0.799-0.932,1.314c-0.026-0.136-0.052-0.272-0.077-0.408l-5.309,1.819
		c-0.045,0.068-0.162,0.122-0.246,0.124c-1.429,0.02-2.858,0.029-4.286,0.043c-0.14,0.002-0.314-0.02-0.413,0.052
		c-0.795,0.574-1.576,1.168-2.728,1.684c0.097-0.411,0.152-0.839,0.299-1.232C77.847,128.738,78.446,126.254,77.06,123.724z
		 M107.398,179.4c-1.812,0.139-3.663-0.43-5.487,0.326c-0.693,0.287-1.676-0.13-2.567-0.231c-0.174,0.308-0.379,0.67-0.634,1.126
		c-0.364-0.341-0.668-0.627-0.796-0.746c-1.026,0.299-1.93,0.563-2.966,0.864c0.134-0.475,0.206-0.729,0.271-0.959l-0.266,0.023
		c-0.513,0.791-1.187,0.383-1.84,0.162l-1.083,0.095c-0.07,0.061-0.3-0.058-0.455-0.096c-0.58-0.139-1.182-0.457-1.731-0.379
		c-1.078,0.148-2.125,0.518-3.326,0.833c0.104-0.478,0.176-0.808,0.264-1.205c-2.722,1.253-5.648,0.69-7.466-1.573
		c1.453-0.268,2.749-0.573,4.064-0.725c1.085-0.124,2.2-0.003,3.289-0.11c0.649-0.063,1.267-0.396,1.914-0.54
		c0.55-0.123,1.059-1.245,1.767,0.024c0.158,0.284,1.544-0.117,2.365-0.201c0.723-0.076,1.446-0.148,2.158-0.219
		c0.244-0.084,0.55-0.286,0.847-0.274c1.564,0.06,3.126,0.194,4.69,0.264c0.806,0.035,1.616-0.027,2.423-0.014
		c1.216,0.019,2.539,0.399,3.082-1.032c0.337,0.33,0.576,0.749,0.811,0.747c0.353-0.001,0.7-0.307,1.056-0.468
		c0.215-0.097,0.499-0.292,0.66-0.224c1.602,0.675,3.127,0.236,4.658-0.236c0.004,0.126,0.008,0.254,0.013,0.381
		c0.519,0.081,1.036,0.21,1.558,0.233c3.613,0.154,7.229,0.297,10.844,0.419c1.933,0.063,3.868,0.04,5.799,0.119
		c2.388,0.098,4.773,0.255,7.157,0.409c0.264,0.018,0.51,0.204,0.774,0.262c0.99,0.223,1.979,0.496,2.984,0.615
		c1.018,0.121,2.083-0.124,2.906,0.807c0.179,0.2,0.753,0.157,1.105,0.073c1.746-0.417,3.242,0.049,4.625,1.116
		c0.268,0.208,0.66,0.254,0.964,0.497c-1.123-0.121-2.252-0.216-3.375-0.369c-2.438-0.339-4.864-0.783-7.312-1.033
		c-1.179-0.119-2.4,0.238-3.585,0.139c-1.326-0.112-2.598-0.218-3.946,0.008c-1.543,0.258-3.147,0.227-4.725,0.217
		c-1.914-0.011-3.827-0.195-5.737-0.168c-0.577,0.008-1.146,0.466-1.854,0.779c-0.97-0.81-2.526-0.487-3.831-0.233
		C114.105,179.556,110.736,179.144,107.398,179.4z M112.49,193.53c-0.243-0.572-0.614-1.799-1.79-0.799
		c0-1.949-0.06-3.712,0.049-5.464c0.021-0.369,0.602-0.912,1.015-1.015c3.335-0.841,6.682-1.645,10.046-2.357
		c1.961-0.415,3.952-0.839,5.94-0.906c2.496-0.085,5.004,0.184,7.505,0.317c1.654,0.087,3.304,0.2,4.953,0.306
		c2.134,0.136,4.267,0.28,6.398,0.406c0.523,0.03,1.051,0.004,1.497,0.004c0.34,0.206,0.666,0.549,1.028,0.595
		c2.477,0.309,4.964,0.525,7.442,0.829c2.972,0.363,5.93,0.851,8.908,1.149c2.531,0.253,5.085,0.368,7.63,0.44
		c1.371,0.04,2.754-0.259,4.118-0.182c1.216,0.069,2.768-0.473,3.361,1.378c0.093,0.285,1.042,0.217,1.289,0.544
		c0.776,1.035,1.404,2.179,2.241,3.522c-2.597,0-4.959-0.007-7.32,0.001c-1.482,0.006-2.967,0.027-4.449,0.046
		c-2.086,0.028-4.173,0.106-6.26,0.076c-1.234-0.019-2.467-0.216-3.702-0.303c-0.161-0.011-0.324,0.225-0.502,0.257
		c-0.341,0.057-0.769,0.188-1.029,0.046c-1.055-0.569-2.106-0.818-3.257-0.349c-0.088,0.037-0.185,0.075-0.276,0.071
		c-1.427-0.05-2.852-0.107-4.164-0.158c0.012-0.011,0.23-0.217,0.448-0.421c-0.044-0.07-0.087-0.141-0.131-0.21
		c-0.542,0.311-1.084,0.621-1.298,0.746c-1.519,0.093-2.78,0.215-4.04,0.229c-0.58,0.005-1.18-0.355-1.736-0.286
		c-2.736,0.343-5.466,0.745-8.187,1.186c-2.018,0.327-4.038,0.672-6.024,1.149c-3.032,0.732-6.057,1.503-9.038,2.41
		c-3.54,1.076-7.024,2.331-10.547,3.466c-0.84,0.271-1.736,0.377-2.926,0.627c0.858-1.963,0.29-4.257,2.77-5.155
		C112.722,195.628,112.765,194.174,112.49,193.53z M101.154,217.235c0.708-1.535,0.176-3.122,0.265-4.683
		c0.083-1.444,0.168-2.89,0.292-4.331c0.069-0.798,0.22-1.588,0.335-2.382c-0.14-0.135-0.281-0.271-0.421-0.405
		c1.681-0.636,3.354-1.293,5.044-1.902c2.213-0.797,4.424-1.609,6.669-2.313c1.165-0.367,2.412-0.468,3.6-0.773
		c2.118-0.545,4.19-1.306,6.334-1.702c3.572-0.661,7.188-1.098,10.785-1.649c1.064-0.164,2.114-0.52,3.181-0.569
		c1.381-0.062,2.771,0.128,4.158,0.145c0.737,0.008,1.474-0.149,2.211-0.173c0.991-0.033,1.986-0.009,2.98-0.009
		c0.017,0.169,0.032,0.338,0.048,0.509c-2.755,2.169-5.468,4.397-8.281,6.49c-1.958,1.456-4.005,2.812-6.107,4.057
		c-1.973,1.165-4.014,2.259-6.126,3.137c-2.177,0.902-4.439,1.65-6.729,2.204c-3.216,0.781-6.238,2.008-9.27,3.289
		c-2.261,0.956-4.688,1.514-6.979,2.405c-1.018,0.398-1.884,1.188-2.819,1.798c-0.122-0.082-0.246-0.163-0.368-0.244
		C100.353,219.164,100.718,218.182,101.154,217.235z M104.609,238.604c-0.232-1.468-0.744-2.701-0.524-3.787
		c0.342-1.697-0.525-2.982-1.026-4.346c-0.613-1.667-1.71-3.148-2.462-4.774c-0.399-0.862-0.642-1.848-0.695-2.792
		c-0.021-0.36,0.624-0.906,1.081-1.111c1.136-0.511,2.34-0.871,3.514-1.299c1.696-0.614,3.389-1.237,5.085-1.852
		c1.814-0.658,3.634-1.305,5.444-1.969c2.081-0.762,4.156-1.549,6.237-2.307c1.066-0.39,2.124-0.834,3.223-1.088
		c1.825-0.422,2.158-0.02,1.803,1.728c-0.344,1.681-0.423,3.432-0.907,5.063c-0.491,1.662-1.315,3.23-2.032,4.821
		c-0.357,0.795-0.671,1.673-1.245,2.289c-0.452,0.486-1.272,0.63-1.97,0.944c0.148,1.014-6.198,4.673-8.132,4.544
		c0.235,0.992-1.687,2.299-3.237,2.1c0.053,0.33,0.1,0.625,0.131,0.824C107.551,236.537,106.242,237.457,104.609,238.604z
		 M106.345,239.926c2.348-1.559,4.391-2.967,6.49-4.287c0.758-0.478,1.656-0.728,2.478-1.11c1.902-0.884,3.759-1.882,5.709-2.635
		c0.935-0.36,2.043-0.27,3.066-0.381c0,0.411-0.088,0.813,0.015,0.87c1.091,0.598,0.638,1.234,0.102,1.898
		c-1.42,1.758-2.793,3.558-4.269,5.267c-0.818,0.945-1.847,1.707-2.706,2.623c-0.567,0.608-0.976,1.362-1.505,2.011
		c-0.527,0.648-1.111,1.25-1.681,1.862c-0.19,0.205-0.492,0.34-0.611,0.574c-0.783,1.556-0.772,1.561-2.185,2.438
		c-0.875-1.136-1.527-2.3-2.476-3.116c-0.886-0.764-1.159-1.374-0.724-1.911C107.36,242.367,106.782,240.978,106.345,239.926z
		 M117.967,308.872c-0.391-0.033-0.872,0.069-1.153-0.124c-1.186-0.811-2.312-1.71-3.46-2.577l-0.244-0.111
		c-2.018,0.3-3.161-1.321-4.682-2.128c-0.859-0.456-1.826-0.712-2.982-1.146c-0.239-1.944,1.539-3.38,3.93-2.994
		c2.977,0.48,5.05,2.274,6.696,4.608c0.891,1.263,1.527,2.704,2.279,4.065C118.224,308.601,118.095,308.737,117.967,308.872z
		 M122.91,255.09c-0.952,2.213-2.178,4.308-3.137,6.167c-0.727-0.922-1.418-1.745-2.049-2.612c-0.823-1.137-1.6-2.306-2.395-3.464
		c-0.278-0.404-0.492-1.097-0.835-1.168c-1.051-0.218-0.776-0.714-0.479-1.324c0.746-1.526,2.677-3.515,3.207-3.652
		c0.424-0.897,0.605-1.6,1.025-2.1c0.871-1.036,2.148-1.818,2.755-2.969c0.946-1.799,2.456-2.944,3.868-4.242
		c0.245-0.225,0.693-0.38,0.756-0.637c0.52-2.22,2.299-2.669,4.143-3.063c0.078-0.017,0.138-0.121,0.313-0.287
		c-0.277-0.064-0.474-0.111-0.672-0.159c-0.009-0.124-0.017-0.248-0.024-0.373c1.005,0,2.008,0,3.291,0
		c-0.036,0.179-0.016,0.715-0.242,1.107c-0.576,1.006-1.831,1.973-1.792,2.911c0.098,2.345-2.426,3.137-2.609,5.317
		c-0.093,1.089-1.276,2.09-2.014,3.202c0.083,0.048,0.274,0.159,0.639,0.369c-0.456,0.174-0.817,0.311-0.928,0.354
		C125.434,251.055,123.831,252.947,122.91,255.09z M134.488,265.291c-0.265-0.618-0.392-1.368-1.411-1.284
		c-0.334,0.028-0.799-0.374-1.05-0.698c-0.518-0.676-1.114-1.03-1.973-0.89c-0.134,0.021-0.381,0.02-0.393-0.022
		c-0.387-1.385-1.397-0.946-2.299-0.789c-0.738,0.129-1.469,0.294-2.414,0.487c0.43-0.992,0.764-1.976,1.266-2.86
		c0.713-1.254,1.551-2.434,2.335-3.646c0.359-0.553,0.771-1.077,1.063-1.661c0.315-0.631,0.455-1.35,0.783-1.971
		c0.427-0.807,1.025-1.525,1.437-2.339c0.46-0.91,1.156-1.911,1.086-2.82c-0.074-0.942,0.679-0.945,0.893-1.467
		c0.833-2.05,1.431-4.367,2.994-5.872c1.458-1.403,1.37-3.747,3.314-4.688c1.128-0.543,2.242-1.12,3.372-1.661
		c0.198-0.096,0.528-0.002,0.655-0.135c0.916-0.951,1.979-0.946,3.143-0.606c0.322,0.095,0.7,0.015,1.245,0.015
		c-0.22,0.677-0.247,1.46-0.653,1.87c-0.853,0.864-0.87,1.888-1.137,2.944c-0.365,1.439-1.234,2.744-1.808,4.141
		c-0.227,0.556-0.241,1.196-0.35,1.799c-0.025,0.133-0.006,0.294-0.074,0.397c-1.077,1.652-1.012,3.828-2.635,5.313
		c-0.421,0.386-1.064,1.649-0.673,2.782c0.128,0.372-0.36,0.936-0.51,1.431c-0.291,0.958-0.532,1.93-0.807,2.894
		c-0.19,0.661-1.335,1.17-0.316,2.021c-0.396,0.426-0.79,0.851-1.297,1.397c-0.013-0.016,0.168,0.21,0.439,0.545
		c-0.372,0.123-0.689,0.228-0.674,0.224c-0.287,1.428-0.439,2.702-0.816,3.905c-0.38,1.21-0.983,2.352-1.487,3.522
		c-0.146-0.017-0.291-0.033-0.437-0.051C135.031,266.775,134.796,266.018,134.488,265.291z M148.083,262.753l-0.401,6.87
		c1.594,2.75,0.054,5.26-0.386,7.942c-4.119-1.042-7.888-0.856-11.779,1.676c0.856-2.139,1.568-3.915,2.324-5.803
		c0.21-0.148,0.636-0.448,1.254-0.885c-0.449,0-0.656,0-0.872,0c0.688-2.276,0.688-2.276,2.045-1.812
		c0.428-1.584,0.856-3.169,1.287-4.757c0.079,0.025,0.16,0.052,0.241,0.077c0,0.752,0,1.506,0,2.532
		c0.701-0.804,1.212-1.386,1.82-2.081c-0.131-0.11-0.389-0.328-0.733-0.617c0.427-0.331,0.785-0.608,1.106-0.859
		c-0.229-0.179-0.647-0.469-0.631-0.499c0.259-0.427,0.557-0.835,0.881-1.22c0.408-0.481,0.936-0.886,1.252-1.418
		c0.302-0.51,0.398-1.144,0.615-1.817c0.018,0.013-0.189-0.148-0.393-0.311c0.855-0.994,1.715-1.989,2.571-2.984
		c0.094,0.05,0.187,0.099,0.282,0.147c-0.304,1.58-0.605,3.161-0.938,4.892C147.687,261.935,148.098,262.353,148.083,262.753z
		 M150.74,251.489c-0.069,0.04-0.13,0.079-0.189,0.119l-0.142,1.424c-0.4-0.199-0.802-0.396-1.435-0.711
		c0.417-0.484,0.754-0.826,1.029-1.21c0.265-0.369,0.467-0.784,0.716-1.214C151.63,250.388,151.69,250.946,150.74,251.489z
		 M167.145,224.444c-0.531,0.688-0.952,1.342-1.48,1.897c-0.781,0.817-1.589,1.63-2.479,2.323c-1.398,1.091-2.048,2.637-2.807,4.144
		c-0.18,0.354-0.628,0.565-0.916,0.876c-0.204,0.221-0.397,0.479-0.506,0.756c-0.309,0.795-0.587,1.604-0.844,2.415
		c-0.099,0.314-0.104,0.658-0.36,0.806c-0.434,0.604-0.92,1.177-1.284,1.818c-0.454,0.798-0.691,1.743-1.247,2.445
		c-0.272,0.345-1.002,0.327-1.55,0.453c-0.005,0.039-0.009,0.078-0.014,0.116c0.131,0.276,0.323,0.577,0.406,0.834
		c0.007,0.022,0.02,0.047,0.025,0.069c0.023,0.097,0.029,0.188-0.001,0.264c-0.402,1.021-0.979,1.979-1.546,2.928
		c-0.174,0.292-0.534,0.472-0.809,0.703c-0.132-0.066-0.264-0.136-0.395-0.205c0.282-0.801,0.609-1.589,0.833-2.406
		c0.236-0.866,0.374-1.761,0.599-2.862c0.354,0.278,0.621,0.486,0.885,0.694c0,0-0.048-0.123-0.05-0.123
		c0.021-0.005,0.044-0.008,0.065-0.012c0.104-0.837,0.129-1.699,0.387-2.487c0.172-0.52,0.616-1.922,0.534-2.643
		c-0.035-0.306,0.136-0.638,0.25-1.109c0.188,0.277,0.295,0.435,0.401,0.592c0.131,0.025,0.261,0.052,0.393,0.077
		c0.101-0.704,0.201-1.41,0.302-2.115c0.013-0.088,0.01-0.19,0.054-0.262c0.663-1.083,1.316-2.173,2.007-3.238
		c0.525-0.811,1.04-1.641,1.671-2.367c0.781-0.899,1.659-1.724,2.529-2.543c0.944-0.889,1.878-1.806,2.923-2.567
		c0.548-0.399,1.322-0.49,1.994-0.72c0.05,0.129,0.101,0.258,0.152,0.387c-0.318,0.191-0.64,0.383-1.175,0.703
		C166.551,224.241,166.784,224.321,167.145,224.444z M187.899,196.55c-0.553,1.211-1.125,2.365-2.603,2.815
		c-0.738,0.225-1.488,0.517-1.983,1.432c-0.385,0.706-1.553,0.973-2.353,1.468c-2.155,1.332-4.281,2.711-6.455,4.01
		c-1.303,0.779-2.727,1.364-4.004,2.182c-1.208,0.774-2.262,1.79-3.447,2.604c-1.261,0.868-2.597,1.623-3.903,2.426
		c-0.114,0.072-0.276,0.102-0.354,0.199c-1.763,2.243-4.45,3.278-6.601,5.021c-1.181,0.956-2.429,2.094-4.336,1.722
		c-0.605-0.118-1.367,0.992-2.113,1.086c-1.616,0.204-2.573,1.191-3.537,2.294c-0.126,0.142-0.445,0.176-0.668,0.158
		c-0.806-0.065-1.648-0.277-1.901,0.87c-0.022,0.095-0.215,0.181-0.345,0.216c-0.916,0.268-1.836,0.521-2.927,0.826
		c-0.109-0.126-0.377-0.436-0.503-0.583c-0.581,0.406-1.017,0.881-1.545,1.044c-1.061,0.323-2.186,0.426-3.257,0.72
		c-0.507,0.141-0.951,0.512-1.504,0.823c0.021-0.184,0.046-0.419,0.088-0.806c-0.655,0.349-1.257,0.668-1.899,1.012
		c-0.862-0.799-1.778-1.472-2.441-2.339c-0.293-0.382-0.242-1.217-0.052-1.738c0.268-0.732,0.907-1.324,1.211-2.048
		c0.5-1.188,1.19-2.433,1.195-3.655c0.009-1.837,0.541-3.448,1.325-4.985c0.805-1.577,1.64-3.195,3.393-4.033
		c0.333-0.159,0.525-0.613,0.792-0.921c1.289-1.487,3.018-2.44,4.488-3.693c1.045-0.892,2.518-1.341,3.076-2.856
		c0.156-0.426,1.03-0.578,1.562-0.877c2.214-1.239,4.374-2.59,6.656-3.683c1-0.479,2.247-0.466,3.39-0.603
		c0.192-0.022,0.429,0.323,0.438,0.331c1.01-0.349,1.764-0.754,2.556-0.862c2.586-0.352,5.182-0.694,7.784-0.858
		c5.013-0.322,9.981-1.126,15.006-1.293c0.501-0.017,1.048-0.097,1.49-0.317c1.484-0.747,2.518,0.281,3.658,0.855
		C188.147,194.951,188.277,195.722,187.899,196.55z"/>
	<path fill="#FFFFFF" d="M53.091,90.242c-0.101,0.014-0.196,0.026-0.295,0.04l0,0C52.895,90.268,52.99,90.256,53.091,90.242z"/>
</g>
</svg>
